<svg xmlns="http://www.w3.org/2000/svg" width="1024" height="1024" viewBox="0 0 1024 1024"><path fill="#FFFFFF" fill-rule="evenodd" d="M644.00 512.00 L644.00 511.19 L643.99 510.38 L643.98 509.57 L643.96 508.76 L643.94 507.95 L643.91 507.14 L643.88 506.33 L643.84 505.52 L643.80 504.71 L643.75 503.91 L643.70 503.10 L643.64 502.29 L643.58 501.48 L643.51 500.67 L643.44 499.87 L643.36 499.06 L643.28 498.26 L643.20 497.45 L643.10 496.65 L643.01 495.84 L642.91 495.04 L642.80 494.24 L642.69 493.43 L642.57 492.63 L642.45 491.83 L642.32 491.03 L642.19 490.23 L642.06 489.43 L641.92 488.64 L641.77 487.84 L641.62 487.04 L641.46 486.25 L641.30 485.45 L641.14 484.66 L640.97 483.87 L640.79 483.08 L640.61 482.29 L640.43 481.50 L640.24 480.71 L640.04 479.93 L639.84 479.14 L639.64 478.36 L639.43 477.58 L639.22 476.79 L639.00 476.01 L638.78 475.24 L638.55 474.46 L638.32 473.68 L638.08 472.91 L637.84 472.14 L637.59 471.36 L637.34 470.59 L637.08 469.83 L636.82 469.06 L636.55 468.29 L636.28 467.53 L636.01 466.77 L635.73 466.01 L635.44 465.25 L635.16 464.49 L634.86 463.74 L634.56 462.99 L634.26 462.24 L633.95 461.49 L633.64 460.74 L633.32 459.99 L633.00 459.25 L632.68 458.51 L632.35 457.77 L632.01 457.03 L631.67 456.30 L631.33 455.56 L630.98 454.83 L630.63 454.10 L630.27 453.38 L629.91 452.65 L629.54 451.93 L629.17 451.21 L628.79 450.49 L628.41 449.78 L628.03 449.06 L627.64 448.35 L627.25 447.64 L626.85 446.94 L626.45 446.23 L626.04 445.53 L625.63 444.83 L625.22 444.14 L624.80 443.45 L624.38 442.75 L623.95 442.07 L623.52 441.38 L623.09 440.70 L622.65 440.02 L622.20 439.34 L621.75 438.66 L621.30 437.99 L620.85 437.32 L620.39 436.66 L619.92 435.99 L619.45 435.33 L618.98 434.67 L618.50 434.02 L618.02 433.37 L617.54 432.72 L617.05 432.07 L616.56 431.43 L616.06 430.79 L615.56 430.15 L615.06 429.52 L614.55 428.89 L614.04 428.26 L613.52 427.64 L613.00 427.01 L612.48 426.40 L611.95 425.78 L611.42 425.17 L610.89 424.56 L610.35 423.96 L609.81 423.35 L609.26 422.76 L608.71 422.16 L608.16 421.57 L607.60 420.98 L607.04 420.40 L606.48 419.81 L605.91 419.24 L605.34 418.66 L604.76 418.09 L604.19 417.52 L603.60 416.96 L603.02 416.40 L602.43 415.84 L601.84 415.29 L601.24 414.74 L600.65 414.19 L600.04 413.65 L599.44 413.11 L598.83 412.58 L598.22 412.05 L597.60 411.52 L596.99 411.00 L596.36 410.48 L595.74 409.96 L595.11 409.45 L594.48 408.94 L593.85 408.44 L593.21 407.94 L592.57 407.44 L591.93 406.95 L591.28 406.46 L590.63 405.98 L589.98 405.50 L589.33 405.02 L588.67 404.55 L588.01 404.08 L587.34 403.61 L586.68 403.15 L586.01 402.70 L585.34 402.25 L584.66 401.80 L583.98 401.35 L583.30 400.91 L582.62 400.48 L581.93 400.05 L581.25 399.62 L580.55 399.20 L579.86 398.78 L579.17 398.37 L578.47 397.96 L577.77 397.55 L577.06 397.15 L576.36 396.75 L575.65 396.36 L574.94 395.97 L574.22 395.59 L573.51 395.21 L572.79 394.83 L572.07 394.46 L571.35 394.09 L570.62 393.73 L569.90 393.37 L569.17 393.02 L568.44 392.67 L567.70 392.33 L566.97 391.99 L566.23 391.65 L565.49 391.32 L564.75 391.00 L564.01 390.68 L563.26 390.36 L562.51 390.05 L561.76 389.74 L561.01 389.44 L560.26 389.14 L559.51 388.84 L558.75 388.56 L557.99 388.27 L557.23 387.99 L556.47 387.72 L555.71 387.45 L554.94 387.18 L554.17 386.92 L553.41 386.66 L552.64 386.41 L551.86 386.16 L551.09 385.92 L550.32 385.68 L549.54 385.45 L548.76 385.22 L547.99 385.00 L547.21 384.78 L546.42 384.57 L545.64 384.36 L544.86 384.16 L544.07 383.96 L543.29 383.76 L542.50 383.57 L541.71 383.39 L540.92 383.21 L540.13 383.03 L539.34 382.86 L538.55 382.70 L537.75 382.54 L536.96 382.38 L536.16 382.23 L535.36 382.08 L534.57 381.94 L533.77 381.81 L532.97 381.68 L532.17 381.55 L531.37 381.43 L530.57 381.31 L529.76 381.20 L528.96 381.09 L528.16 380.99 L527.35 380.90 L526.55 380.80 L525.74 380.72 L524.94 380.64 L524.13 380.56 L523.33 380.49 L522.52 380.42 L521.71 380.36 L520.90 380.30 L520.09 380.25 L519.29 380.20 L518.48 380.16 L517.67 380.12 L516.86 380.09 L516.05 380.06 L515.24 380.04 L514.43 380.02 L513.62 380.01 L512.81 380.00 L512.00 380.00 L511.19 380.00 L510.38 380.01 L509.57 380.02 L508.76 380.04 L507.95 380.06 L507.14 380.09 L506.33 380.12 L505.52 380.16 L504.71 380.20 L503.91 380.25 L503.10 380.30 L502.29 380.36 L501.48 380.42 L500.67 380.49 L499.87 380.56 L499.06 380.64 L498.26 380.72 L497.45 380.80 L496.65 380.90 L495.84 380.99 L495.04 381.09 L494.24 381.20 L493.43 381.31 L492.63 381.43 L491.83 381.55 L491.03 381.68 L490.23 381.81 L489.43 381.94 L488.64 382.08 L487.84 382.23 L487.04 382.38 L486.25 382.54 L485.45 382.70 L484.66 382.86 L483.87 383.03 L483.08 383.21 L482.29 383.39 L481.50 383.57 L480.71 383.76 L479.93 383.96 L479.14 384.16 L478.36 384.36 L477.58 384.57 L476.79 384.78 L476.01 385.00 L475.24 385.22 L474.46 385.45 L473.68 385.68 L472.91 385.92 L472.14 386.16 L471.36 386.41 L470.59 386.66 L469.83 386.92 L469.06 387.18 L468.29 387.45 L467.53 387.72 L466.77 387.99 L466.01 388.27 L465.25 388.56 L464.49 388.84 L463.74 389.14 L462.99 389.44 L462.24 389.74 L461.49 390.05 L460.74 390.36 L459.99 390.68 L459.25 391.00 L458.51 391.32 L457.77 391.65 L457.03 391.99 L456.30 392.33 L455.56 392.67 L454.83 393.02 L454.10 393.37 L453.38 393.73 L452.65 394.09 L451.93 394.46 L451.21 394.83 L450.49 395.21 L449.78 395.59 L449.06 395.97 L448.35 396.36 L447.64 396.75 L446.94 397.15 L446.23 397.55 L445.53 397.96 L444.83 398.37 L444.14 398.78 L443.45 399.20 L442.75 399.62 L442.07 400.05 L441.38 400.48 L440.70 400.91 L440.02 401.35 L439.34 401.80 L438.66 402.25 L437.99 402.70 L437.32 403.15 L436.66 403.61 L435.99 404.08 L435.33 404.55 L434.67 405.02 L434.02 405.50 L433.37 405.98 L432.72 406.46 L432.07 406.95 L431.43 407.44 L430.79 407.94 L430.15 408.44 L429.52 408.94 L428.89 409.45 L428.26 409.96 L427.64 410.48 L427.01 411.00 L426.40 411.52 L425.78 412.05 L425.17 412.58 L424.56 413.11 L423.96 413.65 L423.35 414.19 L422.76 414.74 L422.16 415.29 L421.57 415.84 L420.98 416.40 L420.40 416.96 L419.81 417.52 L419.24 418.09 L418.66 418.66 L418.09 419.24 L417.52 419.81 L416.96 420.40 L416.40 420.98 L415.84 421.57 L415.29 422.16 L414.74 422.76 L414.19 423.35 L413.65 423.96 L413.11 424.56 L412.58 425.17 L412.05 425.78 L411.52 426.40 L411.00 427.01 L410.48 427.64 L409.96 428.26 L409.45 428.89 L408.94 429.52 L408.44 430.15 L407.94 430.79 L407.44 431.43 L406.95 432.07 L406.46 432.72 L405.98 433.37 L405.50 434.02 L405.02 434.67 L404.55 435.33 L404.08 435.99 L403.61 436.66 L403.15 437.32 L402.70 437.99 L402.25 438.66 L401.80 439.34 L401.35 440.02 L400.91 440.70 L400.48 441.38 L400.05 442.07 L399.62 442.75 L399.20 443.45 L398.78 444.14 L398.37 444.83 L397.96 445.53 L397.55 446.23 L397.15 446.94 L396.75 447.64 L396.36 448.35 L395.97 449.06 L395.59 449.78 L395.21 450.49 L394.83 451.21 L394.46 451.93 L394.09 452.65 L393.73 453.38 L393.37 454.10 L393.02 454.83 L392.67 455.56 L392.33 456.30 L391.99 457.03 L391.65 457.77 L391.32 458.51 L391.00 459.25 L390.68 459.99 L390.36 460.74 L390.05 461.49 L389.74 462.24 L389.44 462.99 L389.14 463.74 L388.84 464.49 L388.56 465.25 L388.27 466.01 L387.99 466.77 L387.72 467.53 L387.45 468.29 L387.18 469.06 L386.92 469.83 L386.66 470.59 L386.41 471.36 L386.16 472.14 L385.92 472.91 L385.68 473.68 L385.45 474.46 L385.22 475.24 L385.00 476.01 L384.78 476.79 L384.57 477.58 L384.36 478.36 L384.16 479.14 L383.96 479.93 L383.76 480.71 L383.57 481.50 L383.39 482.29 L383.21 483.08 L383.03 483.87 L382.86 484.66 L382.70 485.45 L382.54 486.25 L382.38 487.04 L382.23 487.84 L382.08 488.64 L381.94 489.43 L381.81 490.23 L381.68 491.03 L381.55 491.83 L381.43 492.63 L381.31 493.43 L381.20 494.24 L381.09 495.04 L380.99 495.84 L380.90 496.65 L380.80 497.45 L380.72 498.26 L380.64 499.06 L380.56 499.87 L380.49 500.67 L380.42 501.48 L380.36 502.29 L380.30 503.10 L380.25 503.91 L380.20 504.71 L380.16 505.52 L380.12 506.33 L380.09 507.14 L380.06 507.95 L380.04 508.76 L380.02 509.57 L380.01 510.38 L380.00 511.19 L380.00 512.00 L380.00 512.81 L380.01 513.62 L380.02 514.43 L380.04 515.24 L380.06 516.05 L380.09 516.86 L380.12 517.67 L380.16 518.48 L380.20 519.29 L380.25 520.09 L380.30 520.90 L380.36 521.71 L380.42 522.52 L380.49 523.33 L380.56 524.13 L380.64 524.94 L380.72 525.74 L380.80 526.55 L380.90 527.35 L380.99 528.16 L381.09 528.96 L381.20 529.76 L381.31 530.57 L381.43 531.37 L381.55 532.17 L381.68 532.97 L381.81 533.77 L381.94 534.57 L382.08 535.36 L382.23 536.16 L382.38 536.96 L382.54 537.75 L382.70 538.55 L382.86 539.34 L383.03 540.13 L383.21 540.92 L383.39 541.71 L383.57 542.50 L383.76 543.29 L383.96 544.07 L384.16 544.86 L384.36 545.64 L384.57 546.42 L384.78 547.21 L385.00 547.99 L385.22 548.76 L385.45 549.54 L385.68 550.32 L385.92 551.09 L386.16 551.86 L386.41 552.64 L386.66 553.41 L386.92 554.17 L387.18 554.94 L387.45 555.71 L387.72 556.47 L387.99 557.23 L388.27 557.99 L388.56 558.75 L388.84 559.51 L389.14 560.26 L389.44 561.01 L389.74 561.76 L390.05 562.51 L390.36 563.26 L390.68 564.01 L391.00 564.75 L391.32 565.49 L391.65 566.23 L391.99 566.97 L392.33 567.70 L392.67 568.44 L393.02 569.17 L393.37 569.90 L393.73 570.62 L394.09 571.35 L394.46 572.07 L394.83 572.79 L395.21 573.51 L395.59 574.22 L395.97 574.94 L396.36 575.65 L396.75 576.36 L397.15 577.06 L397.55 577.77 L397.96 578.47 L398.37 579.17 L398.78 579.86 L399.20 580.55 L399.62 581.25 L400.05 581.93 L400.48 582.62 L400.91 583.30 L401.35 583.98 L401.80 584.66 L402.25 585.34 L402.70 586.01 L403.15 586.68 L403.61 587.34 L404.08 588.01 L404.55 588.67 L405.02 589.33 L405.50 589.98 L405.98 590.63 L406.46 591.28 L406.95 591.93 L407.44 592.57 L407.94 593.21 L408.44 593.85 L408.94 594.48 L409.45 595.11 L409.96 595.74 L410.48 596.36 L411.00 596.99 L411.52 597.60 L412.05 598.22 L412.58 598.83 L413.11 599.44 L413.65 600.04 L414.19 600.65 L414.74 601.24 L415.29 601.84 L415.84 602.43 L416.40 603.02 L416.96 603.60 L417.52 604.19 L418.09 604.76 L418.66 605.34 L419.24 605.91 L419.81 606.48 L420.40 607.04 L420.98 607.60 L421.57 608.16 L422.16 608.71 L422.76 609.26 L423.35 609.81 L423.96 610.35 L424.56 610.89 L425.17 611.42 L425.78 611.95 L426.40 612.48 L427.01 613.00 L427.64 613.52 L428.26 614.04 L428.89 614.55 L429.52 615.06 L430.15 615.56 L430.79 616.06 L431.43 616.56 L432.07 617.05 L432.72 617.54 L433.37 618.02 L434.02 618.50 L434.67 618.98 L435.33 619.45 L435.99 619.92 L436.66 620.39 L437.32 620.85 L437.99 621.30 L438.66 621.75 L439.34 622.20 L440.02 622.65 L440.70 623.09 L441.38 623.52 L442.07 623.95 L442.75 624.38 L443.45 624.80 L444.14 625.22 L444.83 625.63 L445.53 626.04 L446.23 626.45 L446.94 626.85 L447.64 627.25 L448.35 627.64 L449.06 628.03 L449.78 628.41 L450.49 628.79 L451.21 629.17 L451.93 629.54 L452.65 629.91 L453.38 630.27 L454.10 630.63 L454.83 630.98 L455.56 631.33 L456.30 631.67 L457.03 632.01 L457.77 632.35 L458.51 632.68 L459.25 633.00 L459.99 633.32 L460.74 633.64 L461.49 633.95 L462.24 634.26 L462.99 634.56 L463.74 634.86 L464.49 635.16 L465.25 635.44 L466.01 635.73 L466.77 636.01 L467.53 636.28 L468.29 636.55 L469.06 636.82 L469.83 637.08 L470.59 637.34 L471.36 637.59 L472.14 637.84 L472.91 638.08 L473.68 638.32 L474.46 638.55 L475.24 638.78 L476.01 639.00 L476.79 639.22 L477.58 639.43 L478.36 639.64 L479.14 639.84 L479.93 640.04 L480.71 640.24 L481.50 640.43 L482.29 640.61 L483.08 640.79 L483.87 640.97 L484.66 641.14 L485.45 641.30 L486.25 641.46 L487.04 641.62 L487.84 641.77 L488.64 641.92 L489.43 642.06 L490.23 642.19 L491.03 642.32 L491.83 642.45 L492.63 642.57 L493.43 642.69 L494.24 642.80 L495.04 642.91 L495.84 643.01 L496.65 643.10 L497.45 643.20 L498.26 643.28 L499.06 643.36 L499.87 643.44 L500.67 643.51 L501.48 643.58 L502.29 643.64 L503.10 643.70 L503.91 643.75 L504.71 643.80 L505.52 643.84 L506.33 643.88 L507.14 643.91 L507.95 643.94 L508.76 643.96 L509.57 643.98 L510.38 643.99 L511.19 644.00 L512.00 644.00 L512.81 644.00 L513.62 643.99 L514.43 643.98 L515.24 643.96 L516.05 643.94 L516.86 643.91 L517.67 643.88 L518.48 643.84 L519.29 643.80 L520.09 643.75 L520.90 643.70 L521.71 643.64 L522.52 643.58 L523.33 643.51 L524.13 643.44 L524.94 643.36 L525.74 643.28 L526.55 643.20 L527.35 643.10 L528.16 643.01 L528.96 642.91 L529.76 642.80 L530.57 642.69 L531.37 642.57 L532.17 642.45 L532.97 642.32 L533.77 642.19 L534.57 642.06 L535.36 641.92 L536.16 641.77 L536.96 641.62 L537.75 641.46 L538.55 641.30 L539.34 641.14 L540.13 640.97 L540.92 640.79 L541.71 640.61 L542.50 640.43 L543.29 640.24 L544.07 640.04 L544.86 639.84 L545.64 639.64 L546.42 639.43 L547.21 639.22 L547.99 639.00 L548.76 638.78 L549.54 638.55 L550.32 638.32 L551.09 638.08 L551.86 637.84 L552.64 637.59 L553.41 637.34 L554.17 637.08 L554.94 636.82 L555.71 636.55 L556.47 636.28 L557.23 636.01 L557.99 635.73 L558.75 635.44 L559.51 635.16 L560.26 634.86 L561.01 634.56 L561.76 634.26 L562.51 633.95 L563.26 633.64 L564.01 633.32 L564.75 633.00 L565.49 632.68 L566.23 632.35 L566.97 632.01 L567.70 631.67 L568.44 631.33 L569.17 630.98 L569.90 630.63 L570.62 630.27 L571.35 629.91 L572.07 629.54 L572.79 629.17 L573.51 628.79 L574.22 628.41 L574.94 628.03 L575.65 627.64 L576.36 627.25 L577.06 626.85 L577.77 626.45 L578.47 626.04 L579.17 625.63 L579.86 625.22 L580.55 624.80 L581.25 624.38 L581.93 623.95 L582.62 623.52 L583.30 623.09 L583.98 622.65 L584.66 622.20 L585.34 621.75 L586.01 621.30 L586.68 620.85 L587.34 620.39 L588.01 619.92 L588.67 619.45 L589.33 618.98 L589.98 618.50 L590.63 618.02 L591.28 617.54 L591.93 617.05 L592.57 616.56 L593.21 616.06 L593.85 615.56 L594.48 615.06 L595.11 614.55 L595.74 614.04 L596.36 613.52 L596.99 613.00 L597.60 612.48 L598.22 611.95 L598.83 611.42 L599.44 610.89 L600.04 610.35 L600.65 609.81 L601.24 609.26 L601.84 608.71 L602.43 608.16 L603.02 607.60 L603.60 607.04 L604.19 606.48 L604.76 605.91 L605.34 605.34 L605.91 604.76 L606.48 604.19 L607.04 603.60 L607.60 603.02 L608.16 602.43 L608.71 601.84 L609.26 601.24 L609.81 600.65 L610.35 600.04 L610.89 599.44 L611.42 598.83 L611.95 598.22 L612.48 597.60 L613.00 596.99 L613.52 596.36 L614.04 595.74 L614.55 595.11 L615.06 594.48 L615.56 593.85 L616.06 593.21 L616.56 592.57 L617.05 591.93 L617.54 591.28 L618.02 590.63 L618.50 589.98 L618.98 589.33 L619.45 588.67 L619.92 588.01 L620.39 587.34 L620.85 586.68 L621.30 586.01 L621.75 585.34 L622.20 584.66 L622.65 583.98 L623.09 583.30 L623.52 582.62 L623.95 581.93 L624.38 581.25 L624.80 580.55 L625.22 579.86 L625.63 579.17 L626.04 578.47 L626.45 577.77 L626.85 577.06 L627.25 576.36 L627.64 575.65 L628.03 574.94 L628.41 574.22 L628.79 573.51 L629.17 572.79 L629.54 572.07 L629.91 571.35 L630.27 570.62 L630.63 569.90 L630.98 569.17 L631.33 568.44 L631.67 567.70 L632.01 566.97 L632.35 566.23 L632.68 565.49 L633.00 564.75 L633.32 564.01 L633.64 563.26 L633.95 562.51 L634.26 561.76 L634.56 561.01 L634.86 560.26 L635.16 559.51 L635.44 558.75 L635.73 557.99 L636.01 557.23 L636.28 556.47 L636.55 555.71 L636.82 554.94 L637.08 554.17 L637.34 553.41 L637.59 552.64 L637.84 551.86 L638.08 551.09 L638.32 550.32 L638.55 549.54 L638.78 548.76 L639.00 547.99 L639.22 547.21 L639.43 546.42 L639.64 545.64 L639.84 544.86 L640.04 544.07 L640.24 543.29 L640.43 542.50 L640.61 541.71 L640.79 540.92 L640.97 540.13 L641.14 539.34 L641.30 538.55 L641.46 537.75 L641.62 536.96 L641.77 536.16 L641.92 535.36 L642.06 534.57 L642.19 533.77 L642.32 532.97 L642.45 532.17 L642.57 531.37 L642.69 530.57 L642.80 529.76 L642.91 528.96 L643.01 528.16 L643.10 527.35 L643.20 526.55 L643.28 525.74 L643.36 524.94 L643.44 524.13 L643.51 523.33 L643.58 522.52 L643.64 521.71 L643.70 520.90 L643.75 520.09 L643.80 519.29 L643.84 518.48 L643.88 517.67 L643.91 516.86 L643.94 516.05 L643.96 515.24 L643.98 514.43 L643.99 513.62 L644.00 512.81 L644.00 512.00Z"/><path fill="#FFFFFF" fill-opacity="0.01" d="M0 0h1v1h-1Z M1023 0h1v1h-1Z M0 1023h1v1h-1Z M1023 1023h1v1h-1Z"/></svg>
