<svg xmlns="http://www.w3.org/2000/svg" width="1024" height="1024" viewBox="0 0 1024 1024"><path fill="#FFFFFF" fill-rule="evenodd" d="M432.25 214.29 L431.70 214.51 L431.16 214.76 L430.64 215.03 L430.12 215.33 L429.62 215.65 L429.14 216.00 L428.68 216.37 L428.24 216.76 L427.81 217.18 L427.41 217.61 L427.03 218.07 L426.67 218.54 L426.33 219.03 L426.02 219.54 L425.74 220.06 L425.48 220.59 L425.25 221.14 L425.04 221.70 L424.87 222.26 L424.72 222.84 L424.60 223.42 L424.51 224.01 L424.45 224.60 L424.41 225.19 L424.41 225.78 L424.44 226.37 L424.49 226.97 L424.58 227.55 L424.69 228.13 L424.83 228.71 L425.00 229.28 L425.20 229.84 L425.43 230.39 L425.68 230.92 L425.96 231.45 L426.26 231.96 L426.59 232.45 L426.94 232.93 L427.32 233.39 L427.72 233.83 L428.14 234.25 L428.58 234.64 L429.04 235.02 L429.52 235.37 L430.01 235.70 L430.52 236.01 L431.04 236.28 L431.58 236.54 L432.13 236.76 L432.69 236.96 L435.56 237.90 L435.71 237.95 L438.70 238.95 L438.84 239.00 L441.81 240.02 L441.95 240.07 L444.89 241.12 L445.02 241.17 L447.94 242.23 L448.07 242.27 L450.96 243.35 L451.08 243.40 L453.94 244.49 L454.06 244.53 L456.89 245.63 L457.00 245.68 L459.79 246.79 L459.90 246.83 L462.66 247.95 L462.77 247.99 L465.48 249.11 L465.58 249.16 L468.26 250.28 L468.36 250.32 L470.99 251.45 L471.08 251.49 L473.67 252.61 L473.76 252.65 L476.30 253.77 L476.39 253.81 L478.88 254.92 L478.96 254.96 L481.40 256.06 L481.48 256.10 L483.84 257.19 L486.25 258.31 L488.59 259.42 L490.87 260.51 L493.08 261.57 L495.23 262.62 L497.30 263.65 L499.30 264.65 L501.23 265.62 L503.08 266.56 L504.85 267.47 L506.21 268.18 L506.75 268.44 L507.30 268.68 L507.87 268.89 L508.45 269.07 L509.03 269.22 L509.62 269.34 L510.22 269.43 L510.82 269.49 L511.43 269.52 L512.03 269.53 L512.63 269.50 L513.23 269.43 L513.83 269.34 L514.42 269.22 L515.01 269.07 L515.58 268.89 L516.15 268.69 L516.71 268.45 L517.25 268.19 L518.80 267.38 L520.57 266.48 L522.42 265.54 L524.34 264.57 L526.34 263.58 L528.41 262.56 L530.55 261.51 L532.76 260.45 L535.03 259.36 L537.37 258.26 L539.77 257.15 L542.25 256.01 L542.33 255.98 L544.76 254.88 L544.85 254.84 L547.33 253.73 L547.42 253.69 L549.96 252.57 L550.05 252.53 L552.64 251.42 L552.73 251.38 L555.36 250.26 L555.46 250.21 L558.13 249.09 L558.24 249.05 L560.95 247.94 L561.06 247.89 L563.81 246.78 L563.92 246.74 L566.71 245.63 L566.83 245.59 L569.65 244.49 L569.77 244.44 L572.63 243.36 L572.75 243.31 L575.64 242.24 L575.77 242.19 L578.68 241.13 L578.81 241.09 L581.76 240.05 L581.89 240.00 L584.86 238.98 L585.00 238.93 L587.99 237.93 L588.14 237.88 L590.99 236.95 L591.55 236.75 L592.09 236.53 L592.63 236.28 L593.16 236.00 L593.67 235.70 L594.16 235.37 L594.64 235.01 L595.10 234.64 L595.54 234.24 L595.96 233.82 L596.36 233.38 L596.73 232.92 L597.09 232.45 L597.42 231.95 L597.72 231.44 L598.00 230.92 L598.25 230.38 L598.48 229.83 L598.68 229.27 L598.85 228.71 L598.99 228.13 L599.11 227.55 L599.19 226.96 L599.25 226.37 L599.27 225.77 L599.27 225.18 L599.24 224.59 L599.18 224.00 L599.09 223.41 L598.97 222.83 L598.82 222.25 L598.64 221.69 L598.44 221.13 L598.20 220.58 L597.95 220.05 L597.66 219.53 L597.35 219.02 L597.02 218.53 L596.66 218.06 L596.28 217.60 L595.87 217.17 L595.45 216.75 L595.01 216.36 L594.54 215.99 L594.06 215.64 L593.56 215.32 L593.05 215.02 L592.52 214.75 L591.98 214.50 L591.43 214.28 L590.87 214.09 L590.30 213.93 L588.65 213.50 L588.58 213.48 L586.82 213.03 L586.75 213.01 L584.98 212.58 L584.91 212.56 L583.14 212.14 L583.07 212.12 L581.30 211.70 L581.23 211.69 L579.46 211.28 L579.39 211.27 L577.61 210.87 L577.54 210.86 L575.76 210.48 L575.69 210.46 L573.91 210.09 L573.84 210.08 L572.05 209.71 L571.98 209.70 L570.20 209.35 L570.13 209.34 L568.34 209.00 L568.27 208.99 L566.48 208.66 L566.41 208.65 L564.62 208.33 L564.54 208.32 L562.75 208.01 L562.68 208.00 L560.88 207.70 L560.81 207.69 L559.01 207.41 L558.94 207.40 L557.14 207.13 L557.07 207.12 L555.27 206.85 L555.20 206.84 L553.40 206.59 L553.33 206.58 L551.52 206.34 L551.45 206.33 L549.65 206.11 L549.57 206.10 L547.77 205.88 L547.69 205.87 L545.89 205.67 L545.81 205.66 L544.01 205.46 L543.93 205.46 L542.12 205.27 L542.05 205.26 L540.24 205.09 L540.17 205.08 L538.36 204.92 L538.28 204.92 L536.47 204.77 L536.40 204.76 L534.59 204.62 L534.51 204.62 L532.70 204.49 L532.62 204.48 L530.81 204.37 L530.74 204.36 L528.92 204.26 L528.85 204.25 L527.03 204.16 L526.96 204.15 L525.14 204.07 L525.07 204.07 L523.25 203.99 L523.18 203.99 L521.36 203.93 L521.29 203.93 L519.47 203.88 L519.40 203.88 L517.58 203.84 L517.50 203.83 L516.38 203.82 L516.35 203.82 L515.24 203.80 L515.19 203.80 L514.29 203.79 L514.24 203.79 L511.91 203.78 L511.82 203.78 L510.46 203.79 L510.45 203.79 L509.88 203.79 L509.82 203.79 L508.12 203.81 L508.05 203.81 L506.23 203.83 L506.15 203.84 L504.34 203.88 L504.26 203.88 L502.44 203.93 L502.37 203.93 L500.55 203.99 L500.48 203.99 L498.66 204.07 L498.59 204.07 L496.77 204.15 L496.70 204.16 L494.88 204.25 L494.81 204.26 L493.00 204.36 L492.92 204.37 L491.11 204.48 L491.03 204.49 L489.22 204.62 L489.15 204.62 L487.33 204.76 L487.26 204.77 L485.45 204.92 L485.38 204.92 L483.56 205.08 L483.49 205.09 L481.68 205.26 L481.61 205.27 L479.80 205.46 L479.73 205.46 L477.92 205.66 L477.84 205.67 L476.04 205.87 L475.96 205.88 L474.16 206.10 L474.09 206.11 L472.28 206.33 L472.21 206.34 L470.41 206.58 L470.33 206.59 L468.53 206.84 L468.46 206.85 L466.66 207.12 L466.59 207.13 L464.79 207.40 L464.72 207.41 L462.92 207.69 L462.85 207.70 L461.05 208.00 L460.98 208.01 L459.19 208.32 L459.12 208.33 L457.33 208.65 L457.25 208.66 L455.46 208.99 L455.39 209.00 L453.61 209.34 L453.53 209.35 L451.75 209.70 L451.68 209.71 L449.89 210.08 L449.82 210.09 L448.04 210.46 L447.97 210.48 L446.19 210.86 L446.12 210.87 L444.35 211.27 L444.27 211.28 L442.50 211.69 L442.43 211.70 L440.66 212.12 L440.59 212.14 L438.82 212.56 L438.75 212.58 L436.98 213.01 L436.91 213.03 L435.15 213.48 L435.08 213.50 L433.39 213.94 L432.82 214.10 L432.25 214.29ZM645.24 366.14 L644.85 366.59 L644.49 367.07 L644.15 367.56 L643.83 368.06 L643.55 368.58 L643.28 369.12 L643.05 369.66 L642.84 370.22 L642.66 370.79 L642.50 371.36 L642.38 371.95 L642.28 372.53 L642.22 373.13 L642.18 373.72 L642.18 374.32 L642.20 374.91 L642.25 375.51 L642.33 376.09 L642.45 376.68 L642.59 377.26 L642.75 377.83 L642.95 378.39 L643.18 378.94 L643.43 379.48 L643.71 380.01 L644.01 380.52 L644.34 381.02 L644.69 381.50 L644.88 381.75 L644.99 381.89 L648.76 386.81 L648.86 386.94 L652.69 392.00 L652.79 392.13 L656.67 397.31 L656.77 397.44 L660.68 402.73 L660.78 402.87 L664.74 408.27 L664.84 408.41 L668.83 413.92 L668.92 414.06 L672.94 419.67 L673.04 419.80 L677.07 425.51 L677.17 425.65 L681.22 431.45 L681.32 431.59 L685.39 437.47 L685.48 437.61 L689.55 443.57 L689.65 443.71 L693.72 449.74 L693.82 449.89 L697.88 455.99 L697.98 456.14 L702.03 462.30 L702.13 462.46 L706.17 468.67 L706.27 468.83 L710.28 475.10 L710.39 475.26 L714.37 481.57 L714.48 481.74 L718.43 488.09 L718.54 488.26 L722.45 494.64 L722.56 494.83 L726.43 501.23 L726.54 501.42 L730.36 507.85 L730.47 508.05 L734.23 514.49 L734.35 514.70 L738.05 521.15 L738.18 521.37 L741.81 527.82 L741.93 528.05 L745.49 534.50 L745.62 534.74 L749.11 541.19 L749.24 541.44 L752.64 547.88 L752.78 548.14 L756.10 554.58 L756.16 554.71 L756.25 554.88 L759.45 561.25 L759.52 561.39 L759.61 561.56 L762.72 567.91 L762.79 568.05 L762.88 568.24 L765.88 574.54 L765.95 574.70 L766.05 574.90 L768.93 581.16 L769.01 581.33 L769.11 581.54 L771.88 587.75 L771.96 587.93 L772.05 588.16 L773.77 592.15 L774.02 592.69 L774.30 593.22 L774.59 593.73 L774.92 594.22 L775.27 594.70 L775.64 595.16 L776.03 595.61 L776.45 596.03 L776.88 596.43 L777.34 596.81 L777.81 597.17 L778.30 597.50 L778.81 597.81 L779.33 598.09 L779.86 598.35 L780.41 598.58 L780.96 598.78 L781.53 598.96 L782.10 599.10 L782.68 599.22 L783.27 599.31 L783.86 599.37 L784.45 599.41 L785.04 599.41 L785.63 599.38 L786.22 599.33 L786.81 599.24 L787.39 599.13 L787.97 598.99 L788.53 598.82 L789.09 598.62 L789.64 598.39 L790.17 598.14 L790.70 597.86 L791.21 597.56 L791.70 597.23 L792.17 596.88 L792.63 596.50 L793.07 596.10 L793.49 595.68 L793.89 595.24 L794.26 594.79 L794.62 594.31 L794.94 593.82 L795.25 593.31 L795.53 592.79 L795.78 592.25 L796.00 591.70 L796.20 591.14 L796.37 590.58 L796.77 589.12 L796.79 589.05 L797.24 587.37 L797.26 587.30 L797.69 585.62 L797.71 585.55 L798.14 583.86 L798.16 583.79 L798.57 582.10 L798.59 582.03 L799.00 580.34 L799.02 580.27 L799.41 578.58 L799.43 578.51 L799.81 576.81 L799.83 576.74 L800.21 575.05 L800.22 574.97 L800.59 573.28 L800.60 573.20 L800.96 571.50 L800.97 571.43 L801.32 569.73 L801.33 569.66 L801.66 567.95 L801.68 567.88 L802.00 566.17 L802.01 566.10 L802.33 564.39 L802.34 564.32 L802.64 562.61 L802.65 562.54 L802.95 560.82 L802.96 560.75 L803.24 559.04 L803.25 558.96 L803.52 557.25 L803.53 557.17 L803.79 555.46 L803.80 555.38 L804.05 553.66 L804.06 553.59 L804.30 551.87 L804.31 551.80 L804.54 550.08 L804.55 550.00 L804.77 548.28 L804.78 548.21 L804.99 546.48 L804.99 546.41 L805.19 544.68 L805.20 544.61 L805.39 542.88 L805.39 542.81 L805.57 541.08 L805.58 541.01 L805.74 539.28 L805.75 539.20 L805.90 537.47 L805.91 537.40 L806.05 535.67 L806.06 535.60 L806.19 533.86 L806.20 533.79 L806.32 532.06 L806.32 531.98 L806.44 530.25 L806.44 530.18 L806.54 528.44 L806.55 528.37 L806.64 526.63 L806.64 526.56 L806.72 524.83 L806.72 524.75 L806.79 523.02 L806.79 522.94 L806.85 521.21 L806.86 521.13 L806.90 519.40 L806.91 519.32 L806.94 517.87 L806.94 517.81 L806.97 516.11 L806.97 516.10 L806.97 515.77 L806.97 515.70 L806.98 515.03 L806.98 514.98 L806.99 512.44 L806.99 512.30 L806.97 508.47 L806.97 508.31 L806.90 504.64 L806.89 504.48 L806.78 500.88 L806.77 500.78 L806.76 500.52 L806.76 500.46 L806.62 497.33 L806.62 497.24 L806.57 496.37 L806.57 496.31 L806.43 493.89 L806.42 493.81 L806.32 492.25 L806.32 492.17 L806.20 490.44 L806.19 490.37 L806.06 488.64 L806.05 488.56 L805.91 486.83 L805.90 486.76 L805.75 485.03 L805.74 484.95 L805.58 483.23 L805.57 483.15 L805.39 481.42 L805.39 481.35 L805.20 479.62 L805.19 479.55 L804.99 477.82 L804.99 477.75 L804.78 476.03 L804.77 475.95 L804.55 474.23 L804.54 474.16 L804.31 472.43 L804.30 472.36 L804.06 470.64 L804.05 470.57 L803.80 468.85 L803.79 468.78 L803.53 467.06 L803.52 466.98 L803.25 465.27 L803.24 465.20 L802.96 463.48 L802.95 463.41 L802.65 461.70 L802.64 461.62 L802.34 459.91 L802.33 459.84 L802.01 458.13 L802.00 458.06 L801.68 456.35 L801.66 456.28 L801.33 454.58 L801.32 454.50 L800.97 452.80 L800.96 452.73 L800.60 451.03 L800.59 450.96 L800.22 449.26 L800.21 449.19 L799.83 447.49 L799.81 447.42 L799.43 445.72 L799.41 445.65 L799.02 443.96 L799.00 443.89 L798.59 442.20 L798.57 442.13 L798.16 440.44 L798.14 440.37 L797.71 438.69 L797.69 438.61 L797.26 436.93 L797.24 436.86 L796.79 435.18 L796.77 435.11 L796.31 433.44 L796.29 433.37 L795.82 431.69 L795.80 431.62 L795.33 429.95 L795.31 429.88 L794.82 428.21 L794.80 428.14 L794.30 426.48 L794.27 426.41 L793.77 424.75 L793.74 424.68 L793.22 423.02 L793.20 422.95 L792.67 421.30 L792.65 421.23 L792.11 419.57 L792.09 419.50 L791.54 417.86 L791.51 417.79 L790.95 416.14 L790.93 416.07 L790.36 414.43 L790.33 414.36 L789.75 412.73 L789.73 412.66 L789.14 411.02 L789.11 410.95 L788.51 409.32 L788.49 409.25 L787.88 407.63 L787.85 407.56 L787.23 405.94 L787.20 405.87 L786.57 404.25 L786.55 404.18 L785.91 402.56 L785.88 402.50 L785.23 400.88 L785.20 400.82 L784.54 399.21 L784.51 399.14 L783.84 397.54 L783.82 397.47 L783.14 395.87 L783.11 395.80 L782.42 394.21 L782.39 394.14 L781.69 392.55 L781.66 392.48 L780.95 390.90 L780.92 390.83 L780.20 389.25 L780.17 389.18 L779.44 387.61 L779.41 387.54 L778.67 385.97 L778.64 385.90 L777.89 384.33 L777.86 384.26 L777.11 382.70 L777.07 382.64 L776.31 381.08 L776.27 381.01 L775.61 379.69 L775.57 379.60 L774.25 377.02 L774.19 376.89 L772.58 373.83 L772.51 373.70 L770.87 370.67 L770.80 370.54 L769.12 367.53 L769.05 367.40 L767.34 364.41 L767.26 364.28 L765.52 361.31 L765.44 361.19 L763.66 358.24 L763.58 358.12 L761.76 355.20 L761.69 355.07 L759.83 352.18 L759.75 352.05 L757.87 349.18 L757.79 349.06 L755.87 346.21 L755.78 346.09 L753.83 343.27 L753.75 343.15 L751.76 340.35 L751.67 340.23 L749.65 337.45 L749.56 337.34 L747.51 334.59 L747.42 334.47 L745.34 331.75 L745.25 331.63 L743.13 328.94 L743.04 328.82 L740.89 326.15 L740.80 326.04 L738.61 323.40 L738.52 323.28 L736.31 320.67 L736.21 320.56 L733.97 317.97 L733.87 317.86 L731.99 315.74 L731.59 315.31 L731.18 314.91 L730.74 314.52 L730.29 314.16 L729.81 313.82 L729.33 313.50 L728.82 313.20 L728.31 312.93 L727.78 312.69 L727.24 312.47 L726.69 312.28 L726.13 312.12 L725.57 311.98 L725.00 311.87 L724.42 311.79 L723.84 311.73 L723.26 311.71 L722.68 311.71 L722.09 311.74 L721.52 311.80 L720.94 311.89 L720.37 312.00 L719.81 312.14 L719.25 312.31 L718.70 312.51 L718.16 312.73 L717.32 313.11 L717.16 313.17 L716.09 313.67 L715.94 313.74 L714.81 314.27 L714.67 314.34 L713.48 314.93 L713.34 315.00 L712.09 315.63 L711.96 315.70 L710.65 316.39 L710.52 316.45 L709.16 317.19 L709.03 317.26 L707.61 318.05 L707.49 318.12 L706.01 318.96 L705.89 319.03 L704.36 319.93 L704.24 320.00 L702.65 320.95 L702.54 321.02 L700.89 322.04 L700.78 322.11 L699.08 323.18 L698.97 323.25 L697.21 324.39 L697.11 324.45 L695.29 325.65 L695.19 325.72 L693.31 326.99 L693.21 327.05 L691.28 328.38 L691.19 328.44 L689.19 329.84 L689.10 329.91 L687.05 331.37 L686.97 331.44 L684.86 332.97 L684.77 333.03 L682.61 334.64 L682.53 334.70 L680.30 336.38 L680.23 336.44 L677.95 338.19 L677.87 338.25 L675.53 340.08 L675.46 340.14 L673.06 342.04 L672.99 342.10 L670.54 344.08 L670.47 344.13 L667.95 346.19 L667.89 346.25 L665.32 348.38 L665.25 348.44 L662.62 350.65 L662.56 350.71 L659.87 353.01 L659.81 353.06 L657.07 355.44 L657.01 355.50 L654.20 357.96 L654.14 358.02 L651.28 360.57 L651.23 360.62 L648.30 363.26 L648.25 363.31 L646.08 365.29 L645.65 365.71 L645.24 366.14ZM227.74 591.74 L227.96 592.29 L228.22 592.83 L228.50 593.35 L228.80 593.86 L229.13 594.35 L229.48 594.83 L229.86 595.28 L230.25 595.72 L230.67 596.14 L231.11 596.54 L231.57 596.92 L232.04 597.27 L232.54 597.60 L233.05 597.90 L233.57 598.18 L234.10 598.43 L234.65 598.66 L235.21 598.85 L235.78 599.03 L236.35 599.17 L236.93 599.28 L237.52 599.37 L238.11 599.42 L238.70 599.45 L239.29 599.45 L239.88 599.41 L240.47 599.35 L241.06 599.26 L241.64 599.15 L242.21 599.00 L242.78 598.82 L243.34 598.62 L243.88 598.39 L244.42 598.13 L244.94 597.85 L245.44 597.54 L245.93 597.21 L246.40 596.85 L246.86 596.47 L247.29 596.07 L247.71 595.65 L248.10 595.21 L248.48 594.75 L248.82 594.27 L249.15 593.77 L249.45 593.26 L249.72 592.73 L249.97 592.20 L251.75 588.06 L251.83 587.88 L251.93 587.65 L254.70 581.44 L254.78 581.27 L254.87 581.06 L257.76 574.80 L257.83 574.64 L257.93 574.44 L260.93 568.14 L261.00 567.99 L261.09 567.80 L264.20 561.46 L264.27 561.32 L264.36 561.15 L267.56 554.78 L267.63 554.64 L267.71 554.48 L271.01 548.10 L271.14 547.83 L274.54 541.40 L274.68 541.15 L278.16 534.70 L278.29 534.46 L281.85 528.01 L281.98 527.78 L285.61 521.32 L285.73 521.10 L289.43 514.65 L289.55 514.45 L293.31 508.00 L293.43 507.80 L297.25 501.38 L297.36 501.19 L301.23 494.78 L301.34 494.60 L305.25 488.22 L305.36 488.05 L309.31 481.70 L309.42 481.53 L313.40 475.22 L313.51 475.06 L317.52 468.80 L317.62 468.64 L321.65 462.42 L321.76 462.27 L325.81 456.11 L325.91 455.96 L329.97 449.86 L330.07 449.72 L334.14 443.69 L334.24 443.54 L338.30 437.59 L338.40 437.44 L342.47 431.57 L342.56 431.43 L346.62 425.63 L346.71 425.49 L350.75 419.79 L350.85 419.65 L354.86 414.05 L354.96 413.91 L358.95 408.40 L359.05 408.27 L363.00 402.87 L363.10 402.73 L367.02 397.44 L367.12 397.31 L370.99 392.13 L371.10 392.00 L374.92 386.95 L375.02 386.81 L378.79 381.90 L378.90 381.76 L379.11 381.49 L379.46 381.01 L379.79 380.51 L380.10 380.00 L380.37 379.47 L380.63 378.93 L380.85 378.38 L381.05 377.82 L381.22 377.25 L381.36 376.67 L381.47 376.08 L381.55 375.49 L381.60 374.90 L381.63 374.30 L381.62 373.71 L381.58 373.11 L381.52 372.52 L381.42 371.93 L381.30 371.35 L381.15 370.78 L380.97 370.21 L380.76 369.65 L380.52 369.10 L380.26 368.57 L379.97 368.05 L379.65 367.54 L379.31 367.05 L378.95 366.58 L378.56 366.13 L378.16 365.69 L377.73 365.28 L375.58 363.32 L375.52 363.26 L372.60 360.63 L372.54 360.58 L369.68 358.03 L369.62 357.97 L366.82 355.51 L366.76 355.45 L364.02 353.07 L363.95 353.02 L361.27 350.72 L361.20 350.67 L358.58 348.45 L358.51 348.39 L355.94 346.26 L355.87 346.20 L353.36 344.15 L353.29 344.09 L350.84 342.11 L350.76 342.05 L348.37 340.15 L348.29 340.09 L345.96 338.27 L345.88 338.21 L343.60 336.46 L343.52 336.40 L341.30 334.72 L341.22 334.66 L339.05 333.05 L338.97 332.99 L336.86 331.46 L336.77 331.39 L334.72 329.93 L334.63 329.87 L332.64 328.47 L332.55 328.40 L330.61 327.07 L330.52 327.01 L328.64 325.74 L328.54 325.68 L326.72 324.48 L326.62 324.41 L324.85 323.28 L324.75 323.21 L323.04 322.13 L322.93 322.07 L321.28 321.05 L321.17 320.98 L319.58 320.03 L319.46 319.96 L317.93 319.06 L317.81 318.99 L316.33 318.15 L316.21 318.08 L314.79 317.29 L314.66 317.22 L313.30 316.49 L313.17 316.42 L311.87 315.74 L311.73 315.67 L310.48 315.03 L310.35 314.96 L309.16 314.38 L309.01 314.31 L307.88 313.77 L307.73 313.70 L306.66 313.21 L306.51 313.14 L305.54 312.71 L305.00 312.49 L304.45 312.30 L303.90 312.13 L303.33 311.98 L302.76 311.87 L302.19 311.78 L301.61 311.73 L301.02 311.69 L300.44 311.69 L299.86 311.72 L299.28 311.77 L298.71 311.85 L298.13 311.96 L297.57 312.10 L297.01 312.27 L296.46 312.46 L295.92 312.68 L295.39 312.92 L294.88 313.19 L294.38 313.48 L293.89 313.80 L293.42 314.14 L292.96 314.51 L292.53 314.89 L292.11 315.30 L291.71 315.72 L289.85 317.82 L289.76 317.93 L287.51 320.52 L287.42 320.63 L285.21 323.25 L285.11 323.36 L282.93 326.00 L282.84 326.11 L280.69 328.79 L280.60 328.90 L278.48 331.60 L278.39 331.71 L276.31 334.43 L276.22 334.55 L274.17 337.30 L274.08 337.42 L272.06 340.19 L271.98 340.31 L269.99 343.11 L269.91 343.23 L267.95 346.05 L267.87 346.17 L265.95 349.02 L265.87 349.14 L263.98 352.02 L263.90 352.14 L262.05 355.04 L261.97 355.16 L260.16 358.08 L260.08 358.20 L258.30 361.15 L258.22 361.27 L256.48 364.24 L256.40 364.37 L254.69 367.36 L254.62 367.49 L252.94 370.50 L252.87 370.63 L251.43 373.29 L251.39 373.37 L250.82 374.45 L250.79 374.50 L250.57 374.91 L250.56 374.93 L249.92 376.17 L249.88 376.23 L249.09 377.78 L249.05 377.84 L248.27 379.39 L248.23 379.46 L247.46 381.01 L247.43 381.08 L246.66 382.64 L246.63 382.70 L245.87 384.27 L245.84 384.33 L245.09 385.90 L245.06 385.97 L244.32 387.54 L244.29 387.61 L243.56 389.18 L243.53 389.25 L242.81 390.83 L242.78 390.90 L242.07 392.48 L242.04 392.55 L241.34 394.14 L241.31 394.21 L240.63 395.80 L240.60 395.87 L239.92 397.47 L239.89 397.54 L239.22 399.14 L239.19 399.21 L238.53 400.82 L238.50 400.89 L237.85 402.50 L237.83 402.56 L237.19 404.18 L237.16 404.25 L236.53 405.87 L236.50 405.94 L235.88 407.56 L235.86 407.63 L235.24 409.25 L235.22 409.32 L234.62 410.95 L234.59 411.02 L234.00 412.66 L233.98 412.73 L233.40 414.36 L233.37 414.43 L232.80 416.07 L232.78 416.14 L232.22 417.79 L232.20 417.86 L231.65 419.51 L231.62 419.58 L231.08 421.23 L231.06 421.30 L230.53 422.95 L230.51 423.02 L229.99 424.68 L229.97 424.75 L229.46 426.41 L229.44 426.48 L228.94 428.14 L228.92 428.21 L228.43 429.88 L228.41 429.95 L227.93 431.62 L227.91 431.69 L227.44 433.37 L227.42 433.44 L226.96 435.11 L226.94 435.18 L226.49 436.86 L226.48 436.93 L226.04 438.62 L226.02 438.69 L225.59 440.37 L225.57 440.44 L225.16 442.13 L225.14 442.20 L224.73 443.89 L224.72 443.96 L224.32 445.65 L224.30 445.72 L223.92 447.42 L223.90 447.49 L223.53 449.19 L223.51 449.26 L223.15 450.96 L223.13 451.03 L222.78 452.73 L222.76 452.80 L222.42 454.50 L222.40 454.58 L222.07 456.28 L222.06 456.35 L221.73 458.06 L221.72 458.13 L221.41 459.84 L221.39 459.91 L221.09 461.62 L221.08 461.70 L220.79 463.41 L220.77 463.48 L220.49 465.20 L220.48 465.27 L220.21 466.99 L220.20 467.06 L219.94 468.78 L219.93 468.85 L219.68 470.57 L219.67 470.64 L219.43 472.36 L219.42 472.43 L219.19 474.16 L219.18 474.23 L218.96 475.95 L218.95 476.03 L218.75 477.75 L218.74 477.82 L218.54 479.55 L218.53 479.62 L218.35 481.35 L218.34 481.42 L218.16 483.15 L218.16 483.23 L217.99 484.95 L217.98 485.03 L217.83 486.76 L217.82 486.83 L217.68 488.56 L217.67 488.64 L217.54 490.37 L217.54 490.44 L217.41 492.17 L217.41 492.25 L217.31 493.81 L217.30 493.90 L217.16 496.30 L217.16 496.37 L217.12 497.24 L217.11 497.33 L216.97 500.46 L216.97 500.52 L216.96 500.79 L216.95 500.88 L216.84 504.40 L216.84 504.55 L216.77 508.28 L216.76 508.43 L216.74 512.14 L216.74 512.28 L216.75 514.99 L216.75 515.04 L216.76 515.70 L216.76 515.77 L216.77 516.03 L216.77 516.04 L216.80 517.83 L216.80 517.89 L216.83 519.32 L216.83 519.40 L216.88 521.13 L216.88 521.21 L216.94 522.94 L216.94 523.02 L217.01 524.75 L217.01 524.83 L217.09 526.56 L217.10 526.63 L217.19 528.37 L217.19 528.44 L217.29 530.18 L217.30 530.25 L217.41 531.98 L217.41 532.06 L217.54 533.79 L217.54 533.86 L217.67 535.60 L217.68 535.67 L217.82 537.40 L217.83 537.47 L217.98 539.20 L217.99 539.28 L218.16 541.01 L218.16 541.08 L218.34 542.81 L218.35 542.88 L218.53 544.61 L218.54 544.68 L218.74 546.41 L218.75 546.48 L218.95 548.21 L218.96 548.28 L219.18 550.00 L219.19 550.08 L219.42 551.80 L219.43 551.87 L219.67 553.59 L219.68 553.66 L219.93 555.38 L219.94 555.46 L220.20 557.17 L220.21 557.25 L220.48 558.96 L220.49 559.04 L220.77 560.75 L220.79 560.82 L221.08 562.54 L221.09 562.61 L221.39 564.32 L221.41 564.39 L221.72 566.10 L221.73 566.17 L222.06 567.88 L222.07 567.95 L222.40 569.66 L222.42 569.73 L222.76 571.43 L222.78 571.50 L223.13 573.20 L223.15 573.28 L223.51 574.97 L223.53 575.05 L223.90 576.74 L223.92 576.81 L224.30 578.51 L224.32 578.58 L224.72 580.27 L224.73 580.34 L225.14 582.03 L225.16 582.10 L225.57 583.79 L225.59 583.86 L226.02 585.55 L226.04 585.62 L226.48 587.30 L226.49 587.37 L226.94 589.05 L226.96 589.12 L227.37 590.62 L227.54 591.18 L227.74 591.74ZM352.42 715.55 L352.25 716.11 L352.11 716.68 L351.99 717.25 L351.91 717.83 L351.85 718.41 L351.82 719.00 L351.82 719.58 L351.84 720.17 L351.90 720.75 L351.98 721.33 L352.09 721.90 L352.23 722.47 L352.40 723.03 L352.59 723.58 L352.81 724.13 L353.06 724.66 L353.33 725.17 L353.63 725.68 L353.95 726.17 L354.30 726.64 L354.66 727.10 L355.05 727.53 L355.46 727.95 L355.89 728.35 L356.34 728.72 L356.81 729.08 L356.96 729.18 L357.02 729.23 L358.28 730.12 L358.34 730.16 L359.62 731.06 L359.68 731.10 L360.97 731.99 L361.03 732.03 L362.32 732.91 L362.38 732.95 L363.68 733.83 L363.74 733.87 L365.04 734.73 L365.10 734.77 L366.41 735.63 L366.47 735.67 L367.79 736.52 L367.85 736.56 L369.17 737.40 L369.23 737.44 L370.55 738.27 L370.61 738.31 L371.94 739.13 L372.00 739.17 L373.34 739.98 L373.40 740.02 L374.74 740.83 L374.80 740.87 L376.14 741.67 L376.21 741.70 L377.55 742.50 L377.62 742.53 L378.97 743.32 L379.03 743.35 L380.39 744.13 L380.46 744.16 L381.82 744.93 L381.88 744.96 L383.25 745.72 L383.31 745.76 L384.68 746.51 L384.75 746.54 L386.12 747.28 L386.19 747.32 L387.57 748.05 L387.64 748.08 L389.02 748.81 L389.09 748.84 L390.47 749.56 L390.54 749.59 L391.93 750.30 L392.00 750.33 L393.40 751.03 L393.46 751.06 L394.87 751.75 L394.93 751.78 L396.34 752.47 L396.40 752.50 L397.82 753.17 L397.88 753.20 L399.30 753.86 L399.36 753.90 L400.78 754.55 L400.85 754.58 L402.27 755.23 L402.34 755.26 L403.77 755.90 L403.83 755.93 L405.26 756.55 L405.33 756.58 L406.77 757.20 L406.83 757.23 L408.27 757.84 L408.34 757.87 L409.78 758.48 L409.85 758.50 L411.29 759.10 L411.36 759.12 L412.81 759.71 L412.88 759.74 L414.33 760.31 L414.40 760.34 L415.86 760.91 L415.93 760.93 L417.39 761.49 L417.45 761.52 L418.92 762.07 L418.99 762.09 L420.45 762.63 L420.52 762.66 L421.99 763.19 L422.06 763.21 L423.53 763.73 L423.60 763.76 L425.08 764.27 L425.15 764.30 L426.63 764.80 L426.70 764.82 L428.18 765.32 L428.25 765.34 L429.74 765.83 L429.81 765.85 L431.29 766.33 L431.36 766.35 L432.86 766.82 L432.93 766.84 L434.42 767.30 L434.49 767.32 L435.99 767.77 L436.06 767.79 L437.56 768.23 L437.63 768.25 L439.13 768.68 L439.20 768.70 L440.71 769.12 L440.78 769.14 L442.28 769.55 L442.35 769.57 L443.86 769.97 L443.94 769.99 L445.45 770.39 L445.52 770.40 L447.03 770.79 L447.11 770.81 L448.62 771.18 L448.69 771.20 L450.21 771.56 L450.28 771.58 L451.81 771.94 L451.88 771.95 L453.40 772.30 L453.47 772.32 L455.00 772.65 L455.07 772.67 L456.60 773.00 L456.67 773.01 L458.20 773.33 L458.27 773.35 L459.80 773.66 L459.88 773.67 L461.41 773.97 L461.48 773.99 L463.02 774.28 L463.09 774.29 L464.63 774.57 L464.70 774.58 L466.24 774.86 L466.31 774.87 L467.85 775.13 L467.92 775.14 L469.47 775.40 L469.54 775.41 L471.08 775.65 L471.16 775.66 L472.70 775.90 L472.77 775.91 L474.32 776.13 L474.39 776.14 L475.94 776.36 L476.01 776.37 L477.56 776.57 L477.64 776.58 L479.19 776.78 L479.26 776.79 L480.81 776.97 L480.88 776.98 L482.44 777.16 L482.51 777.17 L484.06 777.34 L484.14 777.34 L485.69 777.50 L485.76 777.51 L487.32 777.66 L487.39 777.66 L488.95 777.80 L489.02 777.81 L490.58 777.94 L490.65 777.94 L492.21 778.06 L492.29 778.07 L493.84 778.18 L493.92 778.18 L495.48 778.28 L495.55 778.29 L497.11 778.38 L497.18 778.38 L498.74 778.47 L498.82 778.47 L500.38 778.54 L500.45 778.54 L502.01 778.61 L502.09 778.61 L503.19 778.65 L503.25 778.65 L505.23 778.71 L505.32 778.71 L505.94 778.72 L506.00 778.72 L508.54 778.77 L508.68 778.77 L511.79 778.79 L511.93 778.79 L514.72 778.77 L514.85 778.77 L517.75 778.72 L517.81 778.72 L518.33 778.71 L518.42 778.71 L520.43 778.65 L520.49 778.65 L521.64 778.61 L521.72 778.61 L523.28 778.54 L523.35 778.54 L524.91 778.47 L524.99 778.47 L526.55 778.38 L526.62 778.38 L528.18 778.29 L528.26 778.28 L529.81 778.18 L529.89 778.18 L531.45 778.07 L531.52 778.06 L533.08 777.94 L533.15 777.94 L534.71 777.81 L534.78 777.80 L536.34 777.66 L536.41 777.66 L537.97 777.51 L538.04 777.50 L539.60 777.34 L539.67 777.34 L541.22 777.17 L541.30 777.16 L542.85 776.98 L542.92 776.97 L544.47 776.79 L544.55 776.78 L546.10 776.58 L546.17 776.57 L547.72 776.37 L547.79 776.36 L549.34 776.14 L549.41 776.13 L550.96 775.91 L551.03 775.90 L552.58 775.66 L552.65 775.65 L554.19 775.41 L554.27 775.40 L555.81 775.14 L555.88 775.13 L557.42 774.87 L557.49 774.86 L559.03 774.58 L559.10 774.57 L560.64 774.29 L560.71 774.28 L562.25 773.99 L562.32 773.97 L563.86 773.67 L563.93 773.66 L565.46 773.35 L565.53 773.33 L567.06 773.01 L567.13 773.00 L568.66 772.67 L568.73 772.65 L570.26 772.32 L570.33 772.30 L571.85 771.95 L571.93 771.94 L573.45 771.58 L573.52 771.56 L575.04 771.20 L575.11 771.18 L576.63 770.81 L576.70 770.79 L578.21 770.40 L578.28 770.39 L579.80 769.99 L579.87 769.97 L581.38 769.57 L581.45 769.55 L582.96 769.14 L583.03 769.12 L584.53 768.70 L584.60 768.68 L586.10 768.25 L586.17 768.23 L587.67 767.79 L587.75 767.77 L589.24 767.32 L589.31 767.30 L590.81 766.84 L590.88 766.82 L592.37 766.35 L592.44 766.33 L593.93 765.85 L594.00 765.83 L595.48 765.34 L595.55 765.32 L597.03 764.82 L597.10 764.80 L598.58 764.30 L598.65 764.27 L600.13 763.76 L600.20 763.73 L601.67 763.21 L601.74 763.19 L603.21 762.66 L603.28 762.63 L604.75 762.09 L604.81 762.07 L606.28 761.52 L606.35 761.49 L607.81 760.93 L607.87 760.91 L609.33 760.34 L609.40 760.31 L610.85 759.74 L610.92 759.71 L612.37 759.12 L612.44 759.10 L613.88 758.50 L613.95 758.48 L615.39 757.87 L615.46 757.84 L616.90 757.23 L616.97 757.20 L618.40 756.58 L618.47 756.55 L619.90 755.93 L619.97 755.90 L621.39 755.26 L621.46 755.23 L622.88 754.58 L622.95 754.55 L624.37 753.90 L624.44 753.86 L625.85 753.20 L625.92 753.17 L627.33 752.50 L627.39 752.47 L628.80 751.78 L628.87 751.75 L630.27 751.06 L630.33 751.03 L631.73 750.33 L631.80 750.30 L633.19 749.59 L633.26 749.56 L634.65 748.84 L634.71 748.81 L636.10 748.08 L636.16 748.05 L637.54 747.32 L637.61 747.28 L638.98 746.54 L639.05 746.51 L640.42 745.76 L640.48 745.72 L641.85 744.96 L641.91 744.93 L643.28 744.16 L643.34 744.13 L644.70 743.35 L644.76 743.32 L646.11 742.53 L646.18 742.50 L647.53 741.70 L647.59 741.67 L648.93 740.87 L648.99 740.83 L650.33 740.02 L650.40 739.98 L651.73 739.17 L651.79 739.13 L653.12 738.31 L653.18 738.27 L654.50 737.44 L654.57 737.40 L655.88 736.56 L655.95 736.52 L657.26 735.67 L657.32 735.63 L658.63 734.77 L658.69 734.73 L659.99 733.87 L660.05 733.83 L661.35 732.95 L661.41 732.91 L662.70 732.03 L662.76 731.99 L664.05 731.10 L664.11 731.06 L665.39 730.16 L665.45 730.12 L666.72 729.22 L666.78 729.18 L666.96 729.05 L667.43 728.69 L667.88 728.32 L668.31 727.92 L668.72 727.50 L669.11 727.07 L669.48 726.61 L669.82 726.14 L670.14 725.65 L670.44 725.15 L670.72 724.63 L670.96 724.10 L671.18 723.56 L671.38 723.00 L671.54 722.44 L671.68 721.88 L671.80 721.30 L671.88 720.72 L671.93 720.14 L671.96 719.55 L671.96 718.97 L671.93 718.38 L671.87 717.80 L671.78 717.22 L671.67 716.65 L671.52 716.08 L671.35 715.52 L671.16 714.97 L670.93 714.43 L670.14 712.65 L670.01 712.36 L668.36 708.89 L668.23 708.63 L666.36 704.93 L666.24 704.69 L664.15 700.78 L664.04 700.56 L661.74 696.46 L661.63 696.26 L659.13 691.98 L659.02 691.80 L656.32 687.37 L656.22 687.21 L653.34 682.64 L653.24 682.48 L650.17 677.79 L650.08 677.65 L646.85 672.84 L646.75 672.71 L643.36 667.81 L643.27 667.68 L639.72 662.69 L639.63 662.57 L635.93 657.51 L635.85 657.40 L632.01 652.27 L631.93 652.16 L627.96 646.98 L627.88 646.88 L623.79 641.64 L623.72 641.55 L619.51 636.28 L619.43 636.19 L615.12 630.88 L615.05 630.80 L610.63 625.47 L610.56 625.39 L606.05 620.05 L605.99 619.97 L601.39 614.63 L601.33 614.55 L596.66 609.21 L596.59 609.13 L591.85 603.80 L591.79 603.73 L586.99 598.40 L586.93 598.34 L582.07 593.04 L582.01 592.97 L577.11 587.70 L577.05 587.64 L572.11 582.41 L572.05 582.34 L567.08 577.16 L567.02 577.09 L562.03 571.96 L561.97 571.90 L556.96 566.82 L556.90 566.76 L551.88 561.74 L551.82 561.68 L546.81 556.74 L546.75 556.68 L541.74 551.81 L541.68 551.75 L536.68 546.97 L536.62 546.91 L531.65 542.22 L531.59 542.16 L526.65 537.56 L526.59 537.50 L521.69 533.01 L521.62 532.95 L519.93 531.42 L519.48 531.04 L519.02 530.67 L518.54 530.34 L518.04 530.02 L517.53 529.73 L517.00 529.47 L516.46 529.23 L515.92 529.02 L515.36 528.84 L514.79 528.68 L514.22 528.55 L513.64 528.45 L513.06 528.38 L512.47 528.34 L511.88 528.32 L511.30 528.34 L510.71 528.38 L510.13 528.45 L509.55 528.55 L508.97 528.68 L508.41 528.84 L507.85 529.02 L507.30 529.23 L506.76 529.47 L506.24 529.74 L505.73 530.02 L505.23 530.34 L504.75 530.68 L504.29 531.04 L503.84 531.42 L502.17 532.93 L502.11 532.99 L497.21 537.48 L497.14 537.54 L492.21 542.13 L492.14 542.19 L487.18 546.88 L487.11 546.94 L482.12 551.73 L482.06 551.79 L477.05 556.65 L476.99 556.71 L471.98 561.66 L471.92 561.72 L466.90 566.74 L466.84 566.80 L461.83 571.88 L461.77 571.94 L456.78 577.07 L456.72 577.14 L451.75 582.32 L451.69 582.39 L446.75 587.62 L446.69 587.68 L441.79 592.95 L441.73 593.02 L436.87 598.32 L436.81 598.38 L432.01 603.71 L431.95 603.78 L427.21 609.11 L427.15 609.18 L422.48 614.53 L422.41 614.60 L417.82 619.95 L417.75 620.03 L413.24 625.37 L413.17 625.45 L408.76 630.77 L408.69 630.86 L404.37 636.16 L404.30 636.25 L400.09 641.52 L400.02 641.62 L395.92 646.85 L395.85 646.95 L391.88 652.14 L391.80 652.24 L387.96 657.37 L387.88 657.48 L384.18 662.54 L384.09 662.66 L380.54 667.65 L380.45 667.77 L377.06 672.67 L376.96 672.81 L373.73 677.61 L373.64 677.75 L370.58 682.44 L370.48 682.60 L367.59 687.16 L367.49 687.33 L364.80 691.76 L364.69 691.94 L362.19 696.21 L362.08 696.41 L359.78 700.51 L359.67 700.73 L357.58 704.64 L357.46 704.87 L355.59 708.57 L355.46 708.83 L353.81 712.30 L353.68 712.58 L352.85 714.46 L352.62 715.00 L352.42 715.55Z"/><path fill="#FFFFFF" fill-opacity="0.01" d="M0 0h1v1h-1Z M1023 0h1v1h-1Z M0 1023h1v1h-1Z M1023 1023h1v1h-1Z"/></svg>
