<svg xmlns="http://www.w3.org/2000/svg" width="1024" height="1024" viewBox="0 0 1024 1024"><path fill="#FFFFFF" fill-rule="evenodd" d="M636.00 525.00 L635.99 523.27 L635.96 521.54 L635.90 519.81 L635.83 518.08 L635.73 516.35 L635.62 514.63 L635.48 512.90 L635.32 511.18 L635.14 509.46 L634.94 507.74 L634.72 506.02 L634.47 504.31 L634.21 502.60 L633.92 500.89 L633.62 499.19 L633.29 497.49 L632.94 495.80 L632.57 494.11 L632.18 492.42 L631.77 490.74 L631.34 489.06 L630.89 487.39 L630.42 485.73 L629.93 484.07 L629.42 482.42 L628.88 480.77 L628.33 479.13 L627.76 477.50 L627.16 475.87 L626.55 474.25 L625.92 472.64 L625.27 471.04 L624.60 469.45 L623.90 467.86 L623.19 466.28 L622.46 464.71 L621.71 463.16 L620.94 461.60 L620.16 460.06 L619.35 458.53 L618.53 457.01 L617.68 455.50 L616.82 454.00 L615.94 452.51 L615.04 451.03 L614.12 449.57 L613.19 448.11 L612.24 446.66 L611.27 445.23 L610.28 443.81 L609.27 442.40 L608.25 441.01 L607.21 439.62 L606.16 438.25 L605.08 436.89 L603.99 435.55 L602.89 434.22 L601.77 432.90 L600.63 431.60 L599.47 430.31 L598.30 429.04 L597.12 427.77 L595.92 426.53 L594.70 425.30 L593.47 424.08 L592.23 422.88 L590.96 421.70 L589.69 420.53 L588.40 419.37 L587.10 418.23 L585.78 417.11 L584.45 416.01 L583.11 414.92 L581.75 413.84 L580.38 412.79 L578.99 411.75 L577.60 410.73 L576.19 409.72 L574.77 408.73 L573.34 407.76 L571.89 406.81 L570.43 405.88 L568.97 404.96 L567.49 404.06 L566.00 403.18 L564.50 402.32 L562.99 401.47 L561.47 400.65 L559.94 399.84 L558.40 399.06 L556.84 398.29 L555.29 397.54 L553.72 396.81 L552.14 396.10 L550.55 395.40 L548.96 394.73 L547.36 394.08 L545.75 393.45 L544.13 392.84 L542.50 392.24 L540.87 391.67 L539.23 391.12 L537.58 390.58 L535.93 390.07 L534.27 389.58 L532.61 389.11 L530.94 388.66 L529.26 388.23 L527.58 387.82 L525.89 387.43 L524.20 387.06 L522.51 386.71 L520.81 386.38 L519.11 386.08 L517.40 385.79 L515.69 385.53 L513.98 385.28 L512.26 385.06 L510.54 384.86 L508.82 384.68 L507.10 384.52 L505.37 384.38 L503.65 384.27 L501.92 384.17 L500.19 384.10 L498.46 384.04 L496.73 384.01 L495.00 384.00 L493.27 384.01 L491.54 384.04 L489.81 384.10 L488.08 384.17 L486.35 384.27 L484.63 384.38 L482.90 384.52 L481.18 384.68 L479.46 384.86 L477.74 385.06 L476.02 385.28 L474.31 385.53 L472.60 385.79 L470.89 386.08 L469.19 386.38 L467.49 386.71 L465.80 387.06 L464.11 387.43 L462.42 387.82 L460.74 388.23 L459.06 388.66 L457.39 389.11 L455.73 389.58 L454.07 390.07 L452.42 390.58 L450.77 391.12 L449.13 391.67 L447.50 392.24 L445.87 392.84 L444.25 393.45 L442.64 394.08 L441.04 394.73 L439.45 395.40 L437.86 396.10 L436.28 396.81 L434.71 397.54 L433.16 398.29 L431.60 399.06 L430.06 399.84 L428.53 400.65 L427.01 401.47 L425.50 402.32 L424.00 403.18 L422.51 404.06 L421.03 404.96 L419.57 405.88 L418.11 406.81 L416.66 407.76 L415.23 408.73 L413.81 409.72 L412.40 410.73 L411.01 411.75 L409.62 412.79 L408.25 413.84 L406.89 414.92 L405.55 416.01 L404.22 417.11 L402.90 418.23 L401.60 419.37 L400.31 420.53 L399.04 421.70 L397.77 422.88 L396.53 424.08 L395.30 425.30 L394.08 426.53 L392.88 427.77 L391.70 429.04 L390.53 430.31 L389.37 431.60 L388.23 432.90 L387.11 434.22 L386.01 435.55 L384.92 436.89 L383.84 438.25 L382.79 439.62 L381.75 441.01 L380.73 442.40 L379.72 443.81 L378.73 445.23 L377.76 446.66 L376.81 448.11 L375.88 449.57 L374.96 451.03 L374.06 452.51 L373.18 454.00 L372.32 455.50 L371.47 457.01 L370.65 458.53 L369.84 460.06 L369.06 461.60 L368.29 463.16 L367.54 464.71 L366.81 466.28 L366.10 467.86 L365.40 469.45 L364.73 471.04 L364.08 472.64 L363.45 474.25 L362.84 475.87 L362.24 477.50 L361.67 479.13 L361.12 480.77 L360.58 482.42 L360.07 484.07 L359.58 485.73 L359.11 487.39 L358.66 489.06 L358.23 490.74 L357.82 492.42 L357.43 494.11 L357.06 495.80 L356.71 497.49 L356.38 499.19 L356.08 500.89 L355.79 502.60 L355.53 504.31 L355.28 506.02 L355.06 507.74 L354.86 509.46 L354.68 511.18 L354.52 512.90 L354.38 514.63 L354.27 516.35 L354.17 518.08 L354.10 519.81 L354.04 521.54 L354.01 523.27 L354.00 525.00 L354.01 526.73 L354.04 528.46 L354.10 530.19 L354.17 531.92 L354.27 533.65 L354.38 535.37 L354.52 537.10 L354.68 538.82 L354.86 540.54 L355.06 542.26 L355.28 543.98 L355.53 545.69 L355.79 547.40 L356.08 549.11 L356.38 550.81 L356.71 552.51 L357.06 554.20 L357.43 555.89 L357.82 557.58 L358.23 559.26 L358.66 560.94 L359.11 562.61 L359.58 564.27 L360.07 565.93 L360.58 567.58 L361.12 569.23 L361.67 570.87 L362.24 572.50 L362.84 574.13 L363.45 575.75 L364.08 577.36 L364.73 578.96 L365.40 580.55 L366.10 582.14 L366.81 583.72 L367.54 585.29 L368.29 586.84 L369.06 588.40 L369.84 589.94 L370.65 591.47 L371.47 592.99 L372.32 594.50 L373.18 596.00 L374.06 597.49 L374.96 598.97 L375.88 600.43 L376.81 601.89 L377.76 603.34 L378.73 604.77 L379.72 606.19 L380.73 607.60 L381.75 608.99 L382.79 610.38 L383.84 611.75 L384.92 613.11 L386.01 614.45 L387.11 615.78 L388.23 617.10 L389.37 618.40 L390.53 619.69 L391.70 620.96 L392.88 622.23 L394.08 623.47 L395.30 624.70 L396.53 625.92 L397.77 627.12 L399.04 628.30 L400.31 629.47 L401.60 630.63 L402.90 631.77 L404.22 632.89 L405.55 633.99 L406.89 635.08 L408.25 636.16 L409.62 637.21 L411.01 638.25 L412.40 639.27 L413.81 640.28 L415.23 641.27 L416.66 642.24 L418.11 643.19 L419.57 644.12 L421.03 645.04 L422.51 645.94 L424.00 646.82 L425.50 647.68 L427.01 648.53 L428.53 649.35 L430.06 650.16 L431.60 650.94 L433.16 651.71 L434.71 652.46 L436.28 653.19 L437.86 653.90 L439.45 654.60 L441.04 655.27 L442.64 655.92 L444.25 656.55 L445.87 657.16 L447.50 657.76 L449.13 658.33 L450.77 658.88 L452.42 659.42 L454.07 659.93 L455.73 660.42 L457.39 660.89 L459.06 661.34 L460.74 661.77 L462.42 662.18 L464.11 662.57 L465.80 662.94 L467.49 663.29 L469.19 663.62 L470.89 663.92 L472.60 664.21 L474.31 664.47 L476.02 664.72 L477.74 664.94 L479.46 665.14 L481.18 665.32 L482.90 665.48 L484.63 665.62 L486.35 665.73 L488.08 665.83 L489.81 665.90 L491.54 665.96 L493.27 665.99 L495.00 666.00 L496.73 665.99 L498.46 665.96 L500.19 665.90 L501.92 665.83 L503.65 665.73 L505.37 665.62 L507.10 665.48 L508.82 665.32 L510.54 665.14 L512.26 664.94 L513.98 664.72 L515.69 664.47 L517.40 664.21 L519.11 663.92 L520.81 663.62 L522.51 663.29 L524.20 662.94 L525.89 662.57 L527.58 662.18 L529.26 661.77 L530.94 661.34 L532.61 660.89 L534.27 660.42 L535.93 659.93 L537.58 659.42 L539.23 658.88 L540.87 658.33 L542.50 657.76 L544.13 657.16 L545.75 656.55 L547.36 655.92 L548.96 655.27 L550.55 654.60 L552.14 653.90 L553.72 653.19 L555.29 652.46 L556.84 651.71 L558.40 650.94 L559.94 650.16 L561.47 649.35 L562.99 648.53 L564.50 647.68 L566.00 646.82 L567.49 645.94 L568.97 645.04 L570.43 644.12 L571.89 643.19 L573.34 642.24 L574.77 641.27 L576.19 640.28 L577.60 639.27 L578.99 638.25 L580.38 637.21 L581.75 636.16 L583.11 635.08 L584.45 633.99 L585.78 632.89 L587.10 631.77 L588.40 630.63 L589.69 629.47 L590.96 628.30 L592.23 627.12 L593.47 625.92 L594.70 624.70 L595.92 623.47 L597.12 622.23 L598.30 620.96 L599.47 619.69 L600.63 618.40 L601.77 617.10 L602.89 615.78 L603.99 614.45 L605.08 613.11 L606.16 611.75 L607.21 610.38 L608.25 608.99 L609.27 607.60 L610.28 606.19 L611.27 604.77 L612.24 603.34 L613.19 601.89 L614.12 600.43 L615.04 598.97 L615.94 597.49 L616.82 596.00 L617.68 594.50 L618.53 592.99 L619.35 591.47 L620.16 589.94 L620.94 588.40 L621.71 586.84 L622.46 585.29 L623.19 583.72 L623.90 582.14 L624.60 580.55 L625.27 578.96 L625.92 577.36 L626.55 575.75 L627.16 574.13 L627.76 572.50 L628.33 570.87 L628.88 569.23 L629.42 567.58 L629.93 565.93 L630.42 564.27 L630.89 562.61 L631.34 560.94 L631.77 559.26 L632.18 557.58 L632.57 555.89 L632.94 554.20 L633.29 552.51 L633.62 550.81 L633.92 549.11 L634.21 547.40 L634.47 545.69 L634.72 543.98 L634.94 542.26 L635.14 540.54 L635.32 538.82 L635.48 537.10 L635.62 535.37 L635.73 533.65 L635.83 531.92 L635.90 530.19 L635.96 528.46 L635.99 526.73 L636.00 525.00Z"/><path fill="#FFFFFF" fill-opacity="0.01" d="M0 0h1v1h-1Z M1023 0h1v1h-1Z M0 1023h1v1h-1Z M1023 1023h1v1h-1Z"/></svg>
