<svg xmlns="http://www.w3.org/2000/svg" width="1024" height="1024" viewBox="0 0 1024 1024"><path fill="#FFFFFF" fill-rule="evenodd" d="M402.02 232.25 L401.67 232.42 L401.32 232.62 L400.99 232.83 L400.67 233.06 L400.35 233.30 L400.05 233.56 L399.77 233.83 L399.50 234.12 L399.24 234.42 L398.99 234.73 L398.77 235.05 L398.56 235.39 L398.36 235.73 L398.18 236.09 L398.03 236.45 L397.88 236.82 L397.76 237.19 L397.66 237.58 L397.57 237.96 L397.51 238.35 L397.46 238.75 L397.43 239.14 L397.43 239.54 L397.44 239.93 L397.47 240.33 L397.52 240.72 L397.59 241.11 L397.68 241.49 L397.79 241.87 L397.92 242.25 L398.06 242.62 L398.23 242.98 L398.41 243.33 L398.61 243.67 L398.82 244.00 L399.05 244.32 L399.30 244.63 L399.56 244.93 L399.84 245.21 L400.13 245.48 L400.43 245.74 L400.75 245.97 L401.07 246.20 L401.41 246.41 L401.76 246.60 L402.11 246.77 L402.48 246.92 L402.85 247.06 L403.23 247.18 L403.61 247.28 L405.65 247.75 L408.73 248.51 L411.80 249.30 L414.87 250.14 L417.93 251.00 L420.98 251.90 L424.01 252.82 L427.04 253.78 L430.05 254.76 L433.03 255.76 L436.00 256.79 L438.95 257.83 L441.86 258.89 L444.75 259.97 L447.61 261.06 L450.44 262.16 L453.23 263.27 L455.99 264.39 L458.70 265.51 L461.38 266.63 L464.01 267.76 L466.60 268.88 L469.14 270.00 L471.62 271.11 L474.06 272.22 L476.44 273.31 L478.76 274.39 L481.02 275.46 L483.23 276.52 L485.37 277.55 L487.44 278.56 L489.44 279.55 L491.38 280.52 L493.24 281.46 L495.03 282.37 L496.74 283.25 L498.37 284.10 L499.92 284.91 L501.38 285.68 L502.76 286.42 L504.05 287.11 L505.25 287.76 L506.36 288.37 L507.37 288.93 L507.85 289.19 L508.19 289.37 L508.54 289.53 L508.90 289.67 L509.26 289.80 L509.63 289.91 L510.00 290.00 L510.38 290.08 L510.76 290.13 L511.14 290.17 L511.53 290.19 L511.91 290.19 L512.30 290.17 L512.68 290.13 L513.06 290.08 L513.44 290.01 L513.81 289.91 L514.18 289.81 L514.54 289.68 L514.90 289.53 L515.25 289.37 L515.59 289.20 L516.33 288.79 L517.34 288.23 L518.45 287.63 L519.65 286.98 L520.94 286.29 L522.32 285.56 L523.78 284.79 L525.33 283.98 L526.96 283.14 L528.67 282.26 L530.46 281.35 L532.32 280.42 L534.25 279.45 L536.26 278.47 L538.33 277.46 L540.47 276.43 L542.67 275.38 L544.93 274.31 L547.25 273.23 L549.63 272.14 L552.07 271.04 L554.55 269.93 L557.09 268.82 L559.67 267.70 L562.30 266.58 L564.98 265.46 L567.69 264.35 L570.45 263.23 L573.24 262.13 L576.06 261.03 L578.92 259.95 L581.81 258.87 L584.72 257.81 L587.66 256.77 L590.63 255.75 L593.61 254.75 L596.62 253.78 L599.64 252.82 L602.68 251.90 L605.73 251.00 L608.79 250.14 L611.85 249.31 L614.92 248.52 L618.00 247.76 L620.10 247.27 L620.49 247.17 L620.87 247.06 L621.24 246.92 L621.60 246.76 L621.96 246.59 L622.30 246.40 L622.64 246.19 L622.97 245.97 L623.28 245.73 L623.59 245.48 L623.88 245.21 L624.15 244.93 L624.42 244.63 L624.66 244.32 L624.89 244.00 L625.11 243.67 L625.31 243.32 L625.49 242.97 L625.65 242.61 L625.80 242.25 L625.93 241.87 L626.04 241.49 L626.13 241.10 L626.20 240.72 L626.25 240.32 L626.28 239.93 L626.29 239.53 L626.28 239.14 L626.26 238.74 L626.21 238.35 L626.15 237.96 L626.06 237.57 L625.96 237.19 L625.83 236.81 L625.69 236.44 L625.53 236.08 L625.36 235.73 L625.16 235.38 L624.95 235.05 L624.72 234.73 L624.48 234.41 L624.22 234.11 L623.95 233.83 L623.66 233.55 L623.36 233.29 L623.05 233.05 L622.73 232.82 L622.39 232.61 L622.05 232.42 L621.70 232.24 L621.33 232.08 L620.96 231.94 L619.85 231.55 L619.81 231.53 L617.96 230.89 L617.92 230.87 L616.07 230.25 L616.02 230.23 L614.17 229.61 L614.13 229.60 L612.27 228.99 L612.22 228.97 L610.37 228.38 L610.32 228.36 L608.46 227.78 L608.41 227.77 L606.54 227.19 L606.50 227.18 L604.63 226.62 L604.58 226.60 L602.71 226.06 L602.66 226.04 L600.78 225.50 L600.74 225.49 L598.86 224.96 L598.81 224.95 L596.93 224.44 L596.88 224.42 L594.99 223.92 L594.95 223.91 L593.06 223.42 L593.01 223.40 L591.12 222.92 L591.07 222.91 L589.18 222.44 L589.13 222.43 L587.23 221.98 L587.18 221.96 L585.28 221.52 L585.24 221.51 L583.33 221.07 L583.29 221.06 L581.38 220.64 L581.33 220.63 L579.42 220.22 L579.38 220.21 L577.46 219.81 L577.42 219.80 L575.50 219.42 L575.46 219.41 L573.54 219.03 L573.49 219.02 L571.57 218.66 L571.53 218.65 L569.61 218.30 L569.56 218.29 L567.64 217.95 L567.59 217.94 L565.66 217.61 L565.62 217.61 L563.69 217.29 L563.64 217.28 L561.71 216.98 L561.66 216.97 L559.74 216.68 L559.69 216.67 L557.76 216.39 L557.71 216.38 L555.77 216.12 L555.72 216.11 L553.79 215.85 L553.74 215.85 L551.81 215.60 L551.76 215.60 L549.82 215.36 L549.77 215.36 L547.83 215.14 L547.78 215.13 L545.84 214.92 L545.79 214.92 L543.85 214.72 L543.80 214.71 L541.86 214.53 L541.81 214.52 L539.87 214.35 L539.82 214.35 L537.87 214.18 L537.82 214.18 L535.88 214.03 L535.83 214.03 L533.88 213.89 L533.83 213.89 L531.89 213.76 L531.84 213.76 L529.89 213.64 L529.84 213.64 L527.89 213.54 L527.84 213.54 L525.89 213.45 L525.84 213.45 L523.89 213.37 L523.84 213.37 L521.89 213.30 L521.84 213.30 L519.89 213.25 L519.84 213.24 L517.89 213.20 L517.84 213.20 L516.63 213.18 L516.61 213.18 L515.43 213.17 L515.40 213.17 L514.41 213.16 L514.37 213.16 L511.90 213.15 L511.84 213.15 L510.39 213.15 L510.38 213.15 L509.75 213.15 L509.71 213.15 L507.89 213.17 L507.84 213.17 L505.89 213.20 L505.84 213.20 L503.89 213.24 L503.84 213.25 L501.89 213.30 L501.84 213.30 L499.89 213.37 L499.84 213.37 L497.89 213.45 L497.84 213.45 L495.89 213.54 L495.84 213.54 L493.89 213.64 L493.84 213.64 L491.90 213.76 L491.85 213.76 L489.90 213.89 L489.85 213.89 L487.90 214.03 L487.85 214.03 L485.91 214.18 L485.86 214.18 L483.91 214.35 L483.87 214.35 L481.92 214.52 L481.87 214.53 L479.93 214.71 L479.88 214.72 L477.94 214.92 L477.89 214.92 L475.95 215.13 L475.90 215.14 L473.96 215.36 L473.91 215.36 L471.98 215.60 L471.93 215.60 L469.99 215.85 L469.94 215.85 L468.01 216.11 L467.96 216.12 L466.03 216.38 L465.98 216.39 L464.05 216.67 L464.00 216.68 L462.07 216.97 L462.02 216.98 L460.09 217.28 L460.04 217.29 L458.12 217.61 L458.07 217.61 L456.14 217.94 L456.10 217.95 L454.17 218.29 L454.13 218.30 L452.21 218.65 L452.16 218.66 L450.24 219.02 L450.19 219.03 L448.28 219.41 L448.23 219.42 L446.32 219.80 L446.27 219.81 L444.36 220.21 L444.31 220.22 L442.40 220.63 L442.35 220.64 L440.45 221.06 L440.40 221.07 L438.50 221.51 L438.45 221.52 L436.55 221.96 L436.50 221.98 L434.60 222.43 L434.56 222.44 L432.66 222.91 L432.61 222.92 L430.72 223.40 L430.67 223.42 L428.78 223.91 L428.74 223.92 L426.85 224.42 L426.80 224.44 L424.92 224.95 L424.87 224.96 L423.00 225.49 L422.95 225.50 L421.07 226.04 L421.02 226.06 L419.15 226.60 L419.10 226.62 L417.24 227.18 L417.19 227.19 L415.32 227.77 L415.28 227.78 L413.41 228.36 L413.37 228.38 L411.51 228.97 L411.46 228.99 L409.61 229.60 L409.56 229.61 L407.71 230.23 L407.66 230.25 L405.81 230.87 L405.77 230.89 L403.92 231.53 L403.88 231.55 L402.75 231.94 L402.39 232.09 L402.02 232.25ZM622.28 392.48 L622.02 392.78 L621.78 393.09 L621.56 393.42 L621.35 393.75 L621.16 394.10 L620.99 394.45 L620.84 394.81 L620.70 395.18 L620.58 395.56 L620.48 395.94 L620.40 396.32 L620.34 396.71 L620.29 397.11 L620.27 397.50 L620.26 397.89 L620.28 398.29 L620.31 398.68 L620.37 399.07 L620.44 399.46 L620.53 399.84 L620.64 400.22 L620.77 400.59 L620.92 400.95 L621.08 401.31 L621.27 401.66 L621.47 402.00 L621.68 402.33 L621.91 402.65 L624.19 405.62 L628.01 410.67 L631.89 415.85 L635.81 421.14 L639.76 426.55 L643.75 432.06 L647.77 437.67 L651.81 443.38 L655.86 449.17 L659.92 455.05 L663.99 461.01 L668.06 467.04 L672.12 473.14 L676.17 479.30 L680.21 485.51 L684.22 491.78 L688.20 498.08 L692.15 504.43 L696.06 510.81 L699.93 517.21 L703.74 523.64 L707.50 530.08 L711.20 536.53 L714.83 542.99 L718.39 549.44 L721.87 555.89 L725.27 562.32 L728.58 568.74 L731.80 575.13 L734.91 581.49 L737.92 587.81 L740.82 594.10 L743.60 600.33 L746.28 606.55 L746.29 606.57 L748.81 612.67 L748.82 612.70 L751.21 618.73 L751.22 618.76 L753.47 624.72 L753.48 624.75 L755.59 630.64 L755.60 630.67 L757.56 636.47 L757.57 636.51 L759.37 642.23 L759.38 642.25 L759.40 642.31 L761.03 647.88 L761.04 647.91 L761.05 647.97 L762.51 653.44 L762.52 653.47 L762.54 653.53 L763.83 658.89 L763.84 658.92 L763.85 658.99 L764.97 664.23 L764.98 664.27 L764.99 664.34 L765.92 669.46 L765.93 669.50 L765.95 669.58 L766.69 674.56 L766.70 674.60 L766.71 674.70 L767.27 679.54 L767.27 679.59 L767.28 679.69 L767.64 684.38 L767.65 684.43 L767.65 684.55 L767.82 689.09 L767.82 689.14 L767.82 689.27 L767.82 689.53 L767.82 689.92 L767.85 690.31 L767.89 690.70 L767.96 691.09 L768.04 691.48 L768.14 691.86 L768.26 692.23 L768.40 692.60 L768.56 692.96 L768.73 693.31 L768.92 693.66 L769.13 693.99 L769.36 694.32 L769.60 694.63 L769.85 694.93 L770.12 695.22 L770.40 695.49 L770.70 695.75 L771.01 695.99 L771.33 696.22 L771.66 696.43 L772.00 696.63 L772.35 696.81 L772.71 696.97 L773.08 697.11 L773.45 697.24 L773.83 697.35 L774.21 697.44 L774.60 697.51 L774.99 697.56 L775.38 697.59 L775.77 697.60 L776.17 697.59 L776.56 697.56 L776.95 697.52 L777.34 697.45 L777.72 697.37 L778.10 697.26 L778.48 697.14 L778.85 697.00 L779.21 696.85 L779.56 696.67 L779.90 696.48 L780.23 696.27 L780.56 696.04 L780.87 695.80 L781.17 695.55 L781.45 695.28 L781.73 694.99 L781.98 694.69 L782.23 694.38 L782.45 694.06 L782.97 693.29 L783.00 693.25 L784.08 691.63 L784.11 691.59 L785.18 689.95 L785.20 689.91 L786.26 688.27 L786.29 688.23 L787.34 686.59 L787.36 686.54 L788.40 684.89 L788.43 684.85 L789.46 683.19 L789.48 683.15 L790.50 681.49 L790.53 681.44 L791.54 679.77 L791.56 679.73 L792.56 678.05 L792.58 678.01 L793.57 676.33 L793.60 676.29 L794.57 674.60 L794.60 674.55 L795.57 672.86 L795.59 672.82 L796.55 671.11 L796.57 671.07 L797.52 669.36 L797.54 669.32 L798.48 667.61 L798.50 667.57 L799.43 665.85 L799.45 665.80 L800.36 664.08 L800.39 664.04 L801.29 662.31 L801.31 662.26 L802.21 660.53 L802.23 660.48 L803.11 658.74 L803.13 658.70 L804.01 656.95 L804.03 656.91 L804.89 655.16 L804.91 655.12 L805.76 653.36 L805.78 653.31 L806.62 651.55 L806.64 651.51 L807.47 649.74 L807.49 649.70 L808.31 647.92 L808.33 647.88 L809.14 646.10 L809.16 646.06 L809.96 644.28 L809.98 644.23 L810.76 642.45 L810.78 642.40 L811.56 640.61 L811.57 640.56 L812.34 638.77 L812.36 638.72 L813.11 636.92 L813.13 636.88 L813.87 635.07 L813.89 635.03 L814.62 633.22 L814.64 633.17 L815.36 631.36 L815.37 631.31 L816.08 629.49 L816.10 629.45 L816.80 627.62 L816.81 627.58 L817.50 625.75 L817.52 625.70 L818.19 623.87 L818.21 623.83 L818.87 621.99 L818.89 621.94 L819.54 620.10 L819.55 620.06 L820.20 618.21 L820.21 618.17 L820.84 616.32 L820.86 616.27 L821.47 614.42 L821.49 614.38 L822.10 612.52 L822.11 612.47 L822.71 610.62 L822.72 610.57 L823.30 608.71 L823.32 608.66 L823.89 606.79 L823.91 606.75 L824.47 604.88 L824.48 604.83 L825.03 602.96 L825.04 602.91 L825.58 601.03 L825.60 600.99 L826.12 599.11 L826.13 599.06 L826.65 597.18 L826.66 597.13 L827.17 595.24 L827.18 595.20 L827.67 593.31 L827.68 593.26 L828.16 591.37 L828.17 591.32 L828.64 589.43 L828.65 589.38 L829.11 587.48 L829.12 587.43 L829.57 585.53 L829.58 585.49 L830.01 583.58 L830.02 583.54 L830.44 581.63 L830.45 581.58 L830.86 579.67 L830.87 579.63 L831.27 577.71 L831.28 577.67 L831.67 575.75 L831.68 575.71 L832.05 573.79 L832.06 573.74 L832.43 571.82 L832.44 571.78 L832.79 569.86 L832.80 569.81 L833.13 567.89 L833.14 567.84 L833.47 565.91 L833.48 565.87 L833.79 563.94 L833.80 563.89 L834.11 561.96 L834.11 561.91 L834.41 559.99 L834.41 559.94 L834.69 558.01 L834.70 557.96 L834.97 556.02 L834.98 555.97 L835.23 554.04 L835.24 553.99 L835.48 552.06 L835.49 552.01 L835.72 550.07 L835.73 550.02 L835.95 548.08 L835.96 548.03 L836.16 546.09 L836.17 546.04 L836.37 544.10 L836.37 544.05 L836.56 542.11 L836.56 542.06 L836.74 540.12 L836.74 540.07 L836.90 538.12 L836.90 538.07 L837.04 536.37 L837.06 535.96 L837.06 535.55 L837.04 535.14 L836.90 533.44 L836.90 533.39 L836.74 531.44 L836.74 531.39 L836.56 529.45 L836.56 529.40 L836.37 527.46 L836.37 527.41 L836.17 525.47 L836.16 525.42 L835.96 523.48 L835.95 523.43 L835.73 521.49 L835.72 521.44 L835.49 519.50 L835.48 519.46 L835.24 517.52 L835.23 517.47 L834.98 515.54 L834.97 515.49 L834.70 513.55 L834.69 513.51 L834.41 511.57 L834.41 511.53 L834.11 509.60 L834.11 509.55 L833.80 507.62 L833.79 507.57 L833.48 505.64 L833.47 505.60 L833.14 503.67 L833.13 503.62 L832.80 501.70 L832.79 501.65 L832.44 499.73 L832.43 499.69 L832.06 497.77 L832.05 497.72 L831.68 495.80 L831.67 495.76 L831.28 493.84 L831.27 493.80 L830.87 491.88 L830.86 491.84 L830.45 489.93 L830.44 489.88 L830.02 487.98 L830.01 487.93 L829.58 486.02 L829.57 485.98 L829.12 484.08 L829.11 484.03 L828.65 482.13 L828.64 482.08 L828.17 480.19 L828.16 480.14 L827.68 478.25 L827.67 478.20 L827.18 476.31 L827.17 476.27 L826.66 474.38 L826.65 474.33 L826.13 472.45 L826.12 472.40 L825.60 470.52 L825.58 470.48 L825.04 468.60 L825.03 468.55 L824.48 466.68 L824.47 466.63 L823.91 464.76 L823.89 464.72 L823.32 462.85 L823.30 462.80 L822.72 460.94 L822.71 460.89 L822.11 459.04 L822.10 458.99 L821.49 457.13 L821.47 457.09 L820.86 455.24 L820.84 455.19 L820.21 453.34 L820.20 453.30 L819.55 451.45 L819.54 451.41 L818.89 449.57 L818.87 449.52 L818.21 447.68 L818.19 447.64 L817.52 445.81 L817.50 445.76 L816.81 443.93 L816.80 443.89 L816.10 442.07 L816.08 442.02 L815.37 440.20 L815.36 440.15 L814.64 438.34 L814.62 438.29 L813.89 436.48 L813.87 436.44 L813.13 434.63 L813.11 434.59 L812.36 432.79 L812.34 432.74 L811.57 430.95 L811.56 430.90 L810.78 429.11 L810.76 429.07 L809.98 427.28 L809.96 427.23 L809.16 425.45 L809.14 425.41 L808.33 423.63 L808.31 423.59 L807.49 421.81 L807.47 421.77 L806.64 420.00 L806.62 419.96 L805.78 418.20 L805.76 418.15 L804.91 416.40 L804.89 416.35 L804.03 414.60 L804.01 414.56 L803.24 413.02 L803.21 412.96 L801.73 410.06 L801.68 409.97 L799.88 406.53 L799.83 406.45 L797.99 403.04 L797.94 402.95 L796.06 399.57 L796.01 399.48 L794.08 396.12 L794.04 396.04 L792.07 392.70 L792.02 392.62 L790.02 389.31 L789.97 389.23 L787.92 385.94 L787.87 385.86 L785.79 382.61 L785.74 382.52 L783.62 379.30 L783.56 379.21 L781.41 376.01 L781.35 375.93 L779.16 372.76 L779.10 372.68 L776.87 369.54 L776.81 369.46 L774.54 366.34 L774.48 366.26 L772.18 363.18 L772.12 363.10 L769.77 360.04 L769.71 359.96 L767.33 356.93 L767.27 356.86 L764.86 353.86 L764.80 353.78 L762.35 350.81 L762.29 350.74 L759.80 347.80 L759.74 347.73 L757.22 344.82 L757.15 344.75 L754.60 341.87 L754.53 341.80 L751.94 338.95 L751.88 338.88 L749.25 336.06 L749.19 335.99 L746.53 333.21 L746.46 333.14 L743.77 330.39 L743.70 330.32 L741.67 328.29 L741.39 328.03 L741.11 327.78 L740.81 327.55 L740.50 327.33 L740.19 327.12 L739.86 326.93 L739.52 326.76 L739.18 326.60 L738.83 326.46 L738.83 326.46 L738.61 326.38 L738.56 326.36 L738.52 326.35 L738.47 326.33 L738.44 326.32 L738.38 326.31 L738.35 326.30 L738.30 326.28 L738.27 326.27 L738.21 326.25 L738.18 326.24 L738.13 326.22 L738.09 326.21 L738.04 326.19 L738.00 326.18 L737.95 326.17 L737.92 326.16 L737.86 326.14 L737.83 326.13 L737.78 326.11 L737.75 326.10 L737.69 326.09 L737.65 326.08 L737.60 326.06 L737.56 326.05 L737.50 326.03 L737.47 326.02 L737.41 326.01 L737.37 326.00 L737.31 325.98 L737.27 325.97 L737.21 325.95 L737.17 325.94 L737.11 325.93 L737.07 325.92 L737.01 325.90 L736.97 325.89 L736.91 325.87 L736.87 325.86 L736.81 325.85 L736.77 325.84 L736.70 325.82 L736.66 325.81 L736.60 325.80 L736.56 325.79 L736.49 325.77 L736.45 325.76 L736.38 325.75 L736.34 325.74 L736.27 325.72 L736.23 325.71 L736.16 325.70 L736.12 325.69 L736.05 325.68 L736.01 325.67 L735.94 325.65 L735.89 325.64 L735.82 325.63 L735.78 325.62 L735.71 325.61 L735.66 325.60 L735.59 325.59 L735.55 325.58 L735.47 325.56 L735.43 325.56 L735.35 325.54 L735.31 325.53 L735.23 325.52 L735.19 325.51 L735.11 325.50 L735.06 325.49 L734.99 325.48 L734.94 325.47 L734.86 325.46 L734.82 325.46 L734.73 325.44 L734.69 325.44 L734.61 325.43 L734.56 325.42 L734.48 325.41 L734.43 325.40 L734.35 325.39 L734.30 325.39 L734.21 325.37 L734.17 325.37 L734.08 325.36 L734.04 325.35 L733.95 325.34 L733.90 325.34 L733.81 325.33 L733.76 325.32 L733.67 325.32 L733.63 325.31 L733.53 325.30 L733.49 325.30 L733.39 325.29 L733.35 325.29 L733.25 325.28 L733.20 325.27 L733.11 325.27 L733.06 325.26 L732.96 325.26 L732.92 325.25 L732.81 325.25 L732.77 325.24 L732.67 325.24 L732.62 325.23 L732.52 325.23 L732.47 325.23 L732.37 325.22 L732.32 325.22 L732.21 325.21 L732.17 325.21 L732.06 325.21 L732.01 325.21 L731.90 325.20 L731.86 325.20 L731.75 325.20 L731.70 325.20 L731.59 325.20 L731.54 325.20 L731.43 325.19 L731.38 325.19 L731.26 325.19 L731.22 325.19 L731.15 325.19 L731.04 325.19 L730.43 325.20 L730.25 325.20 L729.62 325.22 L729.45 325.23 L728.79 325.27 L728.61 325.28 L727.92 325.33 L727.74 325.35 L727.01 325.42 L726.84 325.44 L726.07 325.53 L725.91 325.55 L725.10 325.67 L724.94 325.69 L724.10 325.83 L723.94 325.86 L723.05 326.02 L722.90 326.05 L721.98 326.24 L721.83 326.27 L720.86 326.48 L720.72 326.52 L719.71 326.76 L719.57 326.80 L718.53 327.07 L718.39 327.11 L717.31 327.41 L717.17 327.45 L716.05 327.79 L715.92 327.83 L714.75 328.20 L714.62 328.24 L713.41 328.65 L713.29 328.69 L712.04 329.14 L711.92 329.18 L710.62 329.66 L710.51 329.71 L709.17 330.23 L709.06 330.27 L707.68 330.84 L707.57 330.88 L706.15 331.49 L706.04 331.53 L704.58 332.18 L704.47 332.23 L702.96 332.92 L702.86 332.97 L701.31 333.71 L701.21 333.75 L699.61 334.54 L699.52 334.59 L697.88 335.42 L697.79 335.47 L696.10 336.35 L696.01 336.40 L694.27 337.34 L694.19 337.38 L692.41 338.37 L692.33 338.42 L690.50 339.46 L690.42 339.51 L688.54 340.61 L688.47 340.65 L686.55 341.81 L686.47 341.85 L684.50 343.07 L684.43 343.11 L682.42 344.38 L682.35 344.43 L680.28 345.76 L680.22 345.80 L678.11 347.19 L678.04 347.24 L675.88 348.69 L675.82 348.73 L673.61 350.25 L673.55 350.30 L671.29 351.88 L671.23 351.92 L668.92 353.57 L668.87 353.61 L666.51 355.33 L666.45 355.37 L664.05 357.16 L663.99 357.20 L661.54 359.05 L661.49 359.09 L658.98 361.02 L658.93 361.06 L656.37 363.06 L656.32 363.09 L653.71 365.17 L653.66 365.20 L651.00 367.35 L650.96 367.39 L648.24 369.61 L648.20 369.65 L645.43 371.95 L645.39 371.98 L642.57 374.36 L642.53 374.40 L639.66 376.86 L639.62 376.89 L636.69 379.43 L636.65 379.46 L633.68 382.08 L633.64 382.12 L630.61 384.82 L630.57 384.86 L627.48 387.64 L627.44 387.68 L624.30 390.55 L624.27 390.58 L622.83 391.92 L622.55 392.19 L622.28 392.48ZM186.68 535.96 L186.70 536.37 L186.83 538.07 L186.83 538.12 L186.99 540.07 L187.00 540.12 L187.17 542.06 L187.17 542.11 L187.36 544.05 L187.37 544.10 L187.56 546.04 L187.57 546.09 L187.78 548.03 L187.78 548.08 L188.00 550.02 L188.01 550.07 L188.24 552.01 L188.25 552.06 L188.49 553.99 L188.50 554.04 L188.76 555.97 L188.76 556.02 L189.03 557.96 L189.04 558.01 L189.32 559.94 L189.33 559.99 L189.62 561.91 L189.63 561.96 L189.93 563.89 L189.94 563.94 L190.25 565.87 L190.26 565.91 L190.59 567.84 L190.60 567.89 L190.94 569.81 L190.95 569.86 L191.30 571.78 L191.31 571.82 L191.67 573.74 L191.68 573.79 L192.05 575.71 L192.06 575.75 L192.45 577.67 L192.46 577.71 L192.86 579.63 L192.87 579.67 L193.28 581.58 L193.29 581.63 L193.71 583.54 L193.72 583.58 L194.15 585.49 L194.17 585.53 L194.61 587.43 L194.62 587.48 L195.08 589.38 L195.09 589.43 L195.56 591.32 L195.57 591.37 L196.05 593.26 L196.06 593.31 L196.55 595.20 L196.57 595.24 L197.07 597.13 L197.08 597.18 L197.60 599.06 L197.61 599.11 L198.14 600.99 L198.15 601.03 L198.69 602.91 L198.70 602.96 L199.25 604.83 L199.27 604.88 L199.83 606.75 L199.84 606.79 L200.41 608.66 L200.43 608.71 L201.01 610.57 L201.03 610.62 L201.62 612.47 L201.64 612.52 L202.24 614.38 L202.26 614.42 L202.88 616.27 L202.89 616.32 L203.52 618.17 L203.54 618.21 L204.18 620.06 L204.19 620.10 L204.85 621.94 L204.86 621.99 L205.52 623.83 L205.54 623.87 L206.22 625.70 L206.23 625.75 L206.92 627.58 L206.94 627.62 L207.63 629.45 L207.65 629.49 L208.36 631.31 L208.38 631.36 L209.10 633.17 L209.11 633.22 L209.84 635.03 L209.86 635.07 L210.60 636.88 L210.62 636.92 L211.38 638.72 L211.39 638.77 L212.16 640.56 L212.18 640.61 L212.95 642.40 L212.97 642.45 L213.76 644.23 L213.78 644.28 L214.57 646.06 L214.59 646.10 L215.40 647.88 L215.42 647.92 L216.24 649.70 L216.26 649.74 L217.09 651.51 L217.11 651.55 L217.95 653.31 L217.97 653.36 L218.82 655.12 L218.84 655.16 L219.70 656.91 L219.73 656.95 L220.60 658.70 L220.62 658.74 L221.50 660.48 L221.53 660.53 L222.42 662.26 L222.44 662.31 L223.35 664.04 L223.37 664.08 L224.28 665.80 L224.31 665.85 L225.23 667.57 L225.26 667.61 L226.19 669.32 L226.21 669.36 L227.16 671.07 L227.18 671.11 L228.14 672.82 L228.17 672.86 L229.13 674.55 L229.16 674.60 L230.13 676.29 L230.16 676.33 L231.15 678.01 L231.17 678.05 L232.17 679.73 L232.20 679.77 L233.20 681.44 L233.23 681.49 L234.25 683.15 L234.27 683.19 L235.30 684.85 L235.33 684.89 L236.37 686.54 L236.39 686.59 L237.44 688.23 L237.47 688.27 L238.53 689.91 L238.56 689.95 L239.63 691.59 L239.65 691.63 L240.73 693.25 L240.76 693.29 L241.31 694.11 L241.54 694.43 L241.78 694.74 L242.04 695.04 L242.31 695.32 L242.60 695.59 L242.89 695.85 L243.21 696.09 L243.53 696.31 L243.86 696.52 L244.20 696.72 L244.56 696.89 L244.92 697.05 L245.28 697.19 L245.66 697.31 L246.04 697.41 L246.42 697.50 L246.81 697.56 L247.20 697.61 L247.59 697.64 L247.99 697.65 L248.38 697.63 L248.77 697.60 L249.16 697.55 L249.55 697.48 L249.93 697.40 L250.31 697.29 L250.68 697.16 L251.05 697.02 L251.41 696.86 L251.76 696.68 L252.10 696.48 L252.43 696.27 L252.75 696.04 L253.06 695.80 L253.36 695.54 L253.64 695.27 L253.91 694.98 L254.16 694.68 L254.40 694.37 L254.63 694.05 L254.84 693.71 L255.03 693.37 L255.20 693.02 L255.36 692.66 L255.50 692.29 L255.62 691.91 L255.72 691.53 L255.80 691.15 L255.87 690.76 L255.91 690.37 L255.94 689.98 L255.95 689.58 L255.94 689.15 L255.94 689.09 L255.95 688.97 L256.12 684.43 L256.12 684.37 L256.13 684.26 L256.49 679.57 L256.50 679.52 L256.51 679.42 L257.07 674.57 L257.07 674.53 L257.09 674.44 L257.84 669.46 L257.85 669.42 L257.86 669.33 L258.80 664.22 L258.81 664.18 L258.82 664.10 L259.94 658.87 L259.95 658.83 L259.96 658.76 L261.26 653.40 L261.27 653.37 L261.28 653.31 L262.75 647.84 L262.76 647.81 L262.77 647.75 L264.40 642.18 L264.41 642.15 L264.43 642.10 L266.22 636.43 L266.23 636.40 L268.19 630.59 L268.20 630.56 L270.31 624.67 L270.32 624.64 L272.57 618.67 L272.58 618.65 L274.98 612.61 L274.99 612.58 L277.51 606.48 L277.52 606.46 L280.16 600.32 L282.95 594.08 L285.85 587.80 L288.86 581.47 L291.98 575.10 L295.19 568.71 L298.50 562.30 L301.90 555.87 L305.38 549.42 L308.94 542.96 L312.58 536.51 L316.27 530.06 L320.03 523.61 L323.85 517.19 L327.72 510.78 L331.63 504.41 L335.58 498.06 L339.56 491.76 L343.57 485.50 L347.60 479.28 L351.65 473.13 L355.72 467.03 L359.78 461.00 L363.85 455.05 L367.92 449.17 L371.97 443.38 L376.01 437.67 L380.02 432.06 L384.01 426.56 L387.97 421.15 L391.88 415.87 L395.76 410.69 L399.58 405.65 L401.89 402.64 L402.12 402.32 L402.34 401.99 L402.53 401.65 L402.72 401.30 L402.88 400.94 L403.03 400.58 L403.16 400.21 L403.27 399.83 L403.36 399.44 L403.43 399.06 L403.49 398.67 L403.52 398.27 L403.54 397.88 L403.53 397.49 L403.51 397.09 L403.47 396.70 L403.40 396.31 L403.32 395.93 L403.22 395.55 L403.10 395.17 L402.97 394.80 L402.81 394.44 L402.64 394.08 L402.45 393.74 L402.24 393.40 L402.02 393.08 L401.78 392.77 L401.52 392.46 L401.26 392.18 L400.97 391.90 L399.56 390.59 L399.52 390.56 L396.38 387.69 L396.34 387.65 L393.26 384.86 L393.22 384.83 L390.19 382.13 L390.15 382.09 L387.17 379.47 L387.13 379.44 L384.21 376.90 L384.17 376.86 L381.29 374.41 L381.25 374.37 L378.43 371.99 L378.39 371.96 L375.62 369.66 L375.58 369.62 L372.87 367.40 L372.82 367.36 L370.16 365.21 L370.11 365.18 L367.50 363.11 L367.45 363.07 L364.89 361.07 L364.84 361.03 L362.33 359.10 L362.28 359.06 L359.82 357.21 L359.77 357.17 L357.36 355.38 L357.31 355.34 L354.95 353.63 L354.89 353.58 L352.58 351.94 L352.53 351.89 L350.27 350.31 L350.21 350.27 L348.00 348.75 L347.93 348.71 L345.77 347.25 L345.71 347.21 L343.60 345.82 L343.53 345.78 L341.47 344.45 L341.40 344.40 L339.38 343.13 L339.31 343.09 L337.34 341.88 L337.27 341.83 L335.34 340.68 L335.27 340.63 L333.39 339.53 L333.31 339.49 L331.49 338.45 L331.41 338.40 L329.62 337.41 L329.54 337.37 L327.80 336.43 L327.72 336.38 L326.03 335.50 L325.94 335.45 L324.29 334.62 L324.20 334.57 L322.60 333.78 L322.50 333.74 L320.95 333.00 L320.85 332.95 L319.34 332.26 L319.24 332.21 L317.77 331.57 L317.67 331.52 L316.24 330.92 L316.13 330.87 L314.76 330.31 L314.64 330.26 L313.31 329.74 L313.19 329.70 L311.90 329.22 L311.78 329.17 L310.53 328.73 L310.41 328.69 L309.20 328.28 L309.07 328.24 L307.91 327.87 L307.78 327.83 L306.65 327.49 L306.52 327.45 L305.44 327.14 L305.30 327.11 L304.26 326.83 L304.12 326.80 L303.11 326.55 L302.97 326.52 L302.01 326.31 L301.86 326.27 L300.94 326.09 L300.78 326.06 L299.90 325.89 L299.74 325.87 L298.90 325.73 L298.74 325.70 L297.93 325.59 L297.77 325.57 L297.00 325.47 L296.84 325.46 L296.11 325.38 L295.94 325.37 L295.24 325.31 L295.07 325.30 L294.41 325.26 L294.23 325.26 L293.61 325.23 L293.43 325.23 L292.79 325.22 L292.69 325.22 L292.59 325.22 L292.53 325.22 L292.42 325.22 L292.38 325.22 L292.25 325.22 L292.21 325.22 L292.09 325.23 L292.05 325.23 L291.93 325.23 L291.89 325.23 L291.77 325.23 L291.73 325.24 L291.62 325.24 L291.58 325.24 L291.46 325.24 L291.42 325.25 L291.31 325.25 L291.27 325.25 L291.16 325.26 L291.11 325.26 L291.01 325.27 L290.96 325.27 L290.86 325.28 L290.81 325.28 L290.71 325.28 L290.67 325.29 L290.56 325.30 L290.52 325.30 L290.42 325.31 L290.37 325.31 L290.28 325.32 L290.23 325.32 L290.13 325.33 L290.09 325.33 L289.99 325.34 L289.95 325.35 L289.86 325.36 L289.81 325.36 L289.72 325.37 L289.67 325.37 L289.58 325.38 L289.54 325.39 L289.45 325.40 L289.40 325.41 L289.32 325.42 L289.27 325.42 L289.19 325.43 L289.14 325.44 L289.06 325.45 L289.01 325.46 L288.93 325.47 L288.88 325.47 L288.80 325.49 L288.75 325.49 L288.68 325.50 L288.63 325.51 L288.55 325.52 L288.50 325.53 L288.43 325.54 L288.38 325.55 L288.31 325.56 L288.26 325.57 L288.19 325.58 L288.14 325.59 L288.07 325.61 L288.02 325.61 L287.96 325.63 L287.91 325.64 L287.84 325.65 L287.79 325.66 L287.73 325.67 L287.68 325.68 L287.62 325.70 L287.57 325.71 L287.51 325.72 L287.45 325.73 L287.40 325.74 L287.35 325.75 L287.29 325.77 L287.24 325.78 L287.18 325.79 L287.13 325.80 L287.08 325.82 L287.03 325.83 L286.97 325.84 L286.92 325.86 L286.87 325.87 L286.82 325.88 L286.77 325.90 L286.72 325.91 L286.67 325.92 L286.62 325.94 L286.57 325.95 L286.52 325.96 L286.48 325.98 L286.42 325.99 L286.38 326.00 L286.33 326.02 L286.29 326.03 L286.23 326.05 L286.20 326.06 L286.14 326.08 L286.11 326.09 L286.05 326.11 L286.02 326.12 L285.96 326.14 L285.93 326.15 L285.87 326.17 L285.84 326.18 L285.79 326.20 L285.76 326.21 L285.70 326.23 L285.67 326.24 L285.62 326.26 L285.59 326.27 L285.53 326.29 L285.51 326.30 L285.45 326.32 L285.43 326.33 L285.37 326.35 L285.35 326.36 L285.29 326.38 L285.28 326.39 L285.23 326.41 L285.16 326.44 L284.95 326.51 L284.86 326.54 L284.52 326.68 L284.17 326.83 L283.84 327.00 L283.52 327.19 L283.20 327.38 L282.89 327.60 L282.60 327.83 L282.31 328.07 L282.04 328.32 L280.03 330.27 L279.88 330.42 L277.25 333.11 L277.18 333.18 L274.53 335.97 L274.46 336.04 L271.84 338.85 L271.77 338.92 L269.18 341.77 L269.12 341.84 L266.57 344.72 L266.50 344.79 L263.98 347.70 L263.92 347.77 L261.44 350.71 L261.37 350.78 L258.93 353.75 L258.86 353.83 L256.45 356.83 L256.39 356.90 L254.01 359.93 L253.95 360.01 L251.61 363.07 L251.55 363.14 L249.25 366.23 L249.19 366.31 L246.92 369.43 L246.86 369.50 L244.63 372.65 L244.58 372.73 L242.38 375.90 L242.33 375.98 L240.17 379.18 L240.12 379.26 L238.00 382.49 L237.94 382.57 L235.86 385.83 L235.81 385.91 L233.77 389.19 L233.72 389.27 L231.72 392.58 L231.67 392.67 L229.70 396.00 L229.65 396.08 L227.73 399.44 L227.68 399.53 L225.80 402.92 L225.75 403.00 L224.15 405.97 L224.12 406.02 L223.44 407.29 L223.42 407.33 L223.16 407.83 L223.15 407.84 L222.44 409.20 L222.42 409.25 L221.53 410.98 L221.50 411.03 L220.62 412.77 L220.60 412.81 L219.73 414.56 L219.70 414.60 L218.84 416.35 L218.82 416.40 L217.97 418.15 L217.95 418.20 L217.11 419.96 L217.09 420.00 L216.26 421.77 L216.24 421.81 L215.42 423.59 L215.40 423.63 L214.59 425.41 L214.57 425.45 L213.78 427.23 L213.76 427.28 L212.97 429.07 L212.95 429.11 L212.18 430.90 L212.16 430.95 L211.39 432.74 L211.38 432.79 L210.62 434.59 L210.60 434.64 L209.86 436.44 L209.84 436.49 L209.11 438.30 L209.10 438.34 L208.38 440.16 L208.36 440.20 L207.65 442.02 L207.63 442.07 L206.94 443.89 L206.92 443.93 L206.23 445.76 L206.22 445.81 L205.54 447.64 L205.52 447.69 L204.86 449.52 L204.85 449.57 L204.19 451.41 L204.18 451.45 L203.54 453.30 L203.52 453.34 L202.89 455.19 L202.88 455.24 L202.26 457.09 L202.24 457.14 L201.64 458.99 L201.62 459.04 L201.03 460.90 L201.01 460.94 L200.43 462.80 L200.41 462.85 L199.84 464.72 L199.83 464.76 L199.27 466.63 L199.25 466.68 L198.70 468.55 L198.69 468.60 L198.15 470.48 L198.14 470.52 L197.61 472.40 L197.60 472.45 L197.08 474.33 L197.07 474.38 L196.57 476.27 L196.55 476.31 L196.06 478.20 L196.05 478.25 L195.57 480.14 L195.56 480.19 L195.09 482.08 L195.08 482.13 L194.62 484.03 L194.61 484.08 L194.17 485.98 L194.15 486.03 L193.72 487.93 L193.71 487.98 L193.29 489.88 L193.28 489.93 L192.87 491.84 L192.86 491.89 L192.46 493.80 L192.45 493.84 L192.06 495.76 L192.05 495.81 L191.68 497.72 L191.67 497.77 L191.31 499.69 L191.30 499.74 L190.95 501.65 L190.94 501.70 L190.60 503.63 L190.59 503.67 L190.26 505.60 L190.25 505.65 L189.94 507.57 L189.93 507.62 L189.63 509.55 L189.62 509.60 L189.33 511.53 L189.32 511.57 L189.04 513.51 L189.03 513.55 L188.76 515.49 L188.76 515.54 L188.50 517.47 L188.49 517.52 L188.25 519.46 L188.24 519.50 L188.01 521.44 L188.00 521.49 L187.78 523.43 L187.78 523.48 L187.57 525.42 L187.56 525.47 L187.37 527.41 L187.36 527.46 L187.17 529.40 L187.17 529.45 L187.00 531.39 L186.99 531.44 L186.83 533.39 L186.83 533.44 L186.70 535.14 L186.68 535.55 L186.68 535.96ZM309.27 759.97 L309.12 760.34 L308.99 760.71 L308.88 761.08 L308.78 761.46 L308.71 761.85 L308.65 762.24 L308.62 762.63 L308.60 763.02 L308.60 763.41 L308.62 763.80 L308.66 764.19 L308.72 764.58 L308.80 764.96 L308.90 765.34 L309.01 765.72 L309.14 766.09 L309.30 766.45 L309.46 766.80 L309.65 767.15 L309.85 767.48 L310.07 767.81 L310.31 768.12 L310.56 768.43 L310.82 768.72 L311.10 768.99 L311.39 769.25 L311.70 769.50 L313.79 771.12 L313.85 771.17 L316.64 773.28 L316.71 773.33 L319.18 775.17 L319.23 775.21 L320.71 776.28 L320.73 776.29 L320.93 776.44 L320.96 776.46 L322.46 777.54 L322.50 777.57 L324.09 778.69 L324.13 778.72 L325.73 779.84 L325.77 779.87 L327.38 780.98 L327.42 781.01 L329.03 782.11 L329.07 782.13 L330.69 783.22 L330.73 783.25 L332.36 784.33 L332.40 784.36 L334.03 785.43 L334.07 785.45 L335.71 786.51 L335.75 786.54 L337.40 787.59 L337.44 787.61 L339.09 788.65 L339.13 788.68 L340.79 789.71 L340.83 789.73 L342.50 790.75 L342.54 790.78 L344.21 791.79 L344.25 791.81 L345.93 792.81 L345.97 792.83 L347.65 793.82 L347.70 793.85 L349.39 794.82 L349.43 794.85 L351.12 795.82 L351.17 795.84 L352.87 796.80 L352.91 796.82 L354.62 797.77 L354.66 797.79 L356.37 798.73 L356.42 798.75 L358.13 799.68 L358.18 799.70 L359.90 800.61 L359.95 800.64 L361.67 801.54 L361.72 801.56 L363.45 802.46 L363.50 802.48 L365.24 803.36 L365.28 803.38 L367.03 804.26 L367.07 804.28 L368.82 805.14 L368.87 805.16 L370.62 806.01 L370.67 806.03 L372.43 806.87 L372.47 806.89 L374.24 807.72 L374.29 807.74 L376.06 808.56 L376.10 808.58 L377.88 809.39 L377.92 809.41 L379.71 810.21 L379.75 810.23 L381.54 811.01 L381.58 811.03 L383.37 811.81 L383.42 811.82 L385.21 812.59 L385.26 812.61 L387.06 813.36 L387.11 813.38 L388.91 814.12 L388.96 814.14 L390.77 814.87 L390.81 814.89 L392.63 815.61 L392.67 815.62 L394.49 816.33 L394.54 816.35 L396.36 817.05 L396.41 817.06 L398.23 817.75 L398.28 817.77 L400.11 818.44 L400.16 818.46 L401.99 819.12 L402.04 819.14 L403.88 819.79 L403.92 819.80 L405.77 820.45 L405.81 820.46 L407.66 821.09 L407.71 821.11 L409.56 821.72 L409.61 821.74 L411.46 822.35 L411.51 822.36 L413.37 822.96 L413.41 822.97 L415.28 823.55 L415.32 823.57 L417.19 824.14 L417.24 824.16 L419.10 824.72 L419.15 824.73 L421.02 825.28 L421.07 825.29 L422.95 825.83 L423.00 825.85 L424.87 826.37 L424.92 826.38 L426.80 826.90 L426.85 826.91 L428.74 827.42 L428.78 827.43 L430.67 827.92 L430.72 827.93 L432.61 828.41 L432.66 828.42 L434.56 828.89 L434.60 828.90 L436.50 829.36 L436.55 829.37 L438.45 829.82 L438.50 829.83 L440.40 830.26 L440.45 830.27 L442.35 830.69 L442.40 830.70 L444.31 831.11 L444.36 831.12 L446.27 831.52 L446.32 831.53 L448.23 831.92 L448.28 831.93 L450.19 832.30 L450.24 832.31 L452.16 832.68 L452.21 832.69 L454.13 833.04 L454.17 833.05 L456.10 833.38 L456.14 833.39 L458.07 833.72 L458.12 833.73 L460.04 834.04 L460.09 834.05 L462.02 834.36 L462.07 834.36 L464.00 834.66 L464.05 834.66 L465.98 834.94 L466.03 834.95 L467.96 835.22 L468.01 835.23 L469.94 835.48 L469.99 835.49 L471.93 835.73 L471.98 835.74 L473.91 835.97 L473.96 835.98 L475.90 836.20 L475.95 836.21 L477.89 836.41 L477.94 836.42 L479.88 836.62 L479.93 836.62 L481.87 836.81 L481.92 836.81 L483.87 836.99 L483.91 836.99 L485.86 837.15 L485.91 837.15 L487.85 837.30 L487.90 837.31 L489.85 837.45 L489.90 837.45 L491.85 837.57 L491.90 837.58 L493.84 837.69 L493.89 837.69 L495.84 837.80 L495.89 837.80 L497.84 837.89 L497.89 837.89 L499.84 837.97 L499.89 837.97 L501.34 838.02 L501.37 838.02 L503.75 838.09 L503.76 838.09 L503.84 838.09 L503.89 838.09 L504.78 838.11 L504.82 838.11 L507.88 838.16 L507.94 838.17 L508.27 838.17 L508.29 838.17 L511.80 838.19 L511.89 838.19 L515.43 838.17 L515.46 838.17 L515.80 838.17 L515.86 838.16 L518.89 838.11 L518.92 838.11 L519.84 838.09 L519.89 838.09 L520.14 838.08 L520.15 838.08 L522.30 838.02 L522.34 838.02 L523.84 837.97 L523.89 837.97 L525.84 837.89 L525.89 837.89 L527.84 837.80 L527.89 837.80 L529.84 837.69 L529.89 837.69 L531.84 837.58 L531.89 837.57 L533.83 837.45 L533.88 837.45 L535.83 837.31 L535.88 837.30 L537.82 837.15 L537.87 837.15 L539.82 836.99 L539.87 836.99 L541.81 836.81 L541.86 836.81 L543.80 836.62 L543.85 836.62 L545.79 836.42 L545.84 836.41 L547.78 836.21 L547.83 836.20 L549.77 835.98 L549.82 835.97 L551.76 835.74 L551.81 835.73 L553.74 835.49 L553.79 835.48 L555.72 835.23 L555.77 835.22 L557.71 834.95 L557.76 834.94 L559.69 834.66 L559.74 834.66 L561.66 834.36 L561.71 834.36 L563.64 834.05 L563.69 834.04 L565.62 833.73 L565.66 833.72 L567.59 833.39 L567.64 833.38 L569.56 833.05 L569.61 833.04 L571.53 832.69 L571.57 832.68 L573.49 832.31 L573.54 832.30 L575.46 831.93 L575.50 831.92 L577.42 831.53 L577.46 831.52 L579.38 831.12 L579.42 831.11 L581.33 830.70 L581.38 830.69 L583.29 830.27 L583.33 830.26 L585.24 829.83 L585.28 829.82 L587.18 829.37 L587.23 829.36 L589.13 828.90 L589.18 828.89 L591.07 828.42 L591.12 828.41 L593.01 827.93 L593.06 827.92 L594.95 827.43 L594.99 827.42 L596.88 826.91 L596.93 826.90 L598.81 826.38 L598.86 826.37 L600.74 825.85 L600.78 825.83 L602.66 825.29 L602.71 825.28 L604.58 824.73 L604.63 824.72 L606.50 824.16 L606.54 824.14 L608.41 823.57 L608.46 823.55 L610.32 822.97 L610.37 822.96 L612.22 822.36 L612.27 822.35 L614.13 821.74 L614.17 821.72 L616.02 821.11 L616.07 821.09 L617.92 820.46 L617.96 820.45 L619.81 819.80 L619.85 819.79 L621.69 819.14 L621.74 819.12 L623.58 818.46 L623.62 818.44 L625.45 817.77 L625.50 817.75 L627.33 817.06 L627.37 817.05 L629.20 816.35 L629.24 816.33 L631.06 815.62 L631.11 815.61 L632.92 814.89 L632.97 814.87 L634.78 814.14 L634.82 814.12 L636.63 813.38 L636.67 813.36 L638.47 812.61 L638.52 812.59 L640.31 811.82 L640.36 811.81 L642.15 811.03 L642.20 811.01 L643.98 810.23 L644.03 810.21 L645.81 809.41 L645.85 809.39 L647.63 808.58 L647.67 808.56 L649.45 807.74 L649.49 807.72 L651.26 806.89 L651.30 806.87 L653.06 806.03 L653.11 806.01 L654.87 805.16 L654.91 805.14 L656.66 804.28 L656.70 804.26 L658.45 803.38 L658.49 803.36 L660.23 802.48 L660.28 802.46 L662.01 801.56 L662.06 801.54 L663.79 800.64 L663.83 800.61 L665.55 799.70 L665.60 799.68 L667.32 798.75 L667.36 798.73 L669.07 797.79 L669.11 797.77 L670.82 796.82 L670.86 796.80 L672.57 795.84 L672.61 795.82 L674.30 794.85 L674.35 794.82 L676.04 793.85 L676.08 793.82 L677.76 792.83 L677.80 792.81 L679.48 791.81 L679.52 791.79 L681.19 790.78 L681.24 790.75 L682.90 789.73 L682.94 789.71 L684.60 788.68 L684.64 788.65 L686.29 787.61 L686.34 787.59 L687.98 786.54 L688.02 786.51 L689.66 785.45 L689.70 785.43 L691.34 784.36 L691.38 784.33 L693.00 783.25 L693.04 783.22 L694.66 782.13 L694.70 782.11 L696.32 781.01 L696.36 780.98 L697.96 779.87 L698.00 779.84 L699.60 778.72 L699.64 778.69 L701.23 777.57 L701.27 777.54 L702.86 776.40 L702.90 776.37 L704.48 775.22 L704.52 775.19 L706.09 774.04 L706.13 774.01 L707.69 772.84 L707.73 772.81 L709.29 771.63 L709.33 771.60 L710.88 770.42 L710.92 770.39 L712.08 769.48 L712.39 769.23 L712.68 768.97 L712.96 768.69 L713.22 768.40 L713.47 768.10 L713.71 767.79 L713.92 767.46 L714.13 767.13 L714.31 766.78 L714.48 766.43 L714.63 766.07 L714.77 765.70 L714.88 765.32 L714.98 764.94 L715.06 764.56 L715.12 764.17 L715.16 763.78 L715.18 763.39 L715.18 763.00 L715.16 762.61 L715.13 762.22 L715.07 761.83 L714.99 761.44 L714.90 761.06 L714.79 760.69 L714.66 760.32 L714.51 759.95 L714.35 759.60 L714.16 759.25 L713.28 757.68 L713.21 757.55 L710.13 752.28 L710.06 752.16 L706.80 746.81 L706.73 746.70 L703.31 741.28 L703.25 741.18 L699.67 735.70 L699.61 735.60 L695.88 730.06 L695.82 729.97 L691.95 724.39 L691.89 724.30 L687.88 718.67 L687.82 718.59 L683.68 712.93 L683.63 712.85 L679.36 707.15 L679.31 707.09 L674.93 701.36 L674.88 701.30 L670.39 695.55 L670.34 695.49 L665.74 689.73 L665.69 689.67 L661.00 683.91 L660.95 683.85 L656.17 678.09 L656.13 678.03 L651.26 672.27 L651.22 672.22 L646.28 666.47 L646.23 666.42 L641.22 660.68 L641.18 660.63 L636.10 654.92 L636.06 654.87 L630.93 649.18 L630.89 649.14 L625.71 643.48 L625.67 643.44 L620.45 637.83 L620.40 637.78 L615.15 632.21 L615.11 632.17 L609.82 626.65 L609.78 626.61 L604.47 621.14 L604.43 621.10 L599.10 615.70 L599.06 615.66 L593.73 610.33 L593.68 610.29 L588.35 605.02 L588.31 604.99 L582.97 599.80 L582.93 599.76 L577.61 594.66 L577.57 594.63 L572.27 589.62 L572.22 589.58 L566.95 584.67 L566.90 584.63 L561.66 579.82 L561.61 579.78 L556.40 575.07 L556.36 575.03 L551.19 570.44 L551.15 570.40 L546.04 565.93 L545.99 565.89 L540.94 561.54 L540.89 561.50 L535.90 557.28 L535.85 557.24 L530.94 553.16 L530.88 553.11 L526.05 549.18 L525.99 549.13 L521.25 545.34 L521.18 545.29 L516.80 541.86 L516.48 541.63 L516.15 541.41 L515.82 541.20 L515.47 541.02 L515.11 540.85 L514.75 540.70 L514.38 540.57 L514.00 540.45 L513.62 540.36 L513.24 540.28 L512.85 540.22 L512.46 540.18 L512.06 540.17 L511.67 540.17 L511.28 540.18 L510.89 540.22 L510.50 540.28 L510.11 540.36 L509.73 540.45 L509.35 540.57 L508.98 540.70 L508.62 540.85 L508.26 541.02 L507.92 541.21 L507.58 541.41 L507.25 541.63 L506.94 541.86 L502.59 545.27 L502.52 545.32 L497.78 549.11 L497.72 549.16 L492.90 553.09 L492.84 553.14 L487.93 557.22 L487.88 557.26 L482.89 561.48 L482.84 561.52 L477.79 565.87 L477.74 565.91 L472.64 570.38 L472.59 570.43 L467.43 575.01 L467.38 575.06 L462.18 579.76 L462.13 579.80 L456.89 584.61 L456.84 584.65 L451.57 589.56 L451.53 589.60 L446.22 594.61 L446.18 594.65 L440.86 599.75 L440.82 599.79 L435.49 604.97 L435.45 605.01 L430.11 610.27 L430.07 610.31 L424.74 615.64 L424.70 615.68 L419.37 621.09 L419.33 621.13 L414.02 626.59 L413.98 626.63 L408.69 632.15 L408.65 632.19 L403.40 637.76 L403.36 637.81 L398.13 643.42 L398.09 643.47 L392.91 649.12 L392.87 649.16 L387.74 654.85 L387.70 654.90 L382.63 660.61 L382.58 660.66 L377.57 666.39 L377.53 666.44 L372.59 672.20 L372.54 672.25 L367.68 678.01 L367.63 678.06 L362.85 683.83 L362.80 683.88 L358.11 689.65 L358.07 689.71 L353.47 695.46 L353.42 695.53 L348.93 701.27 L348.88 701.33 L344.50 707.06 L344.45 707.13 L340.18 712.82 L340.13 712.90 L335.99 718.56 L335.93 718.64 L331.92 724.27 L331.86 724.35 L327.99 729.94 L327.93 730.03 L324.21 735.56 L324.14 735.66 L320.57 741.13 L320.50 741.24 L317.08 746.65 L317.01 746.76 L313.76 752.11 L313.69 752.23 L310.61 757.50 L310.53 757.63 L309.62 759.27 L309.43 759.62 L309.27 759.97Z"/><path fill="#FFFFFF" fill-opacity="0.01" d="M0 0h1v1h-1Z M1023 0h1v1h-1Z M0 1023h1v1h-1Z M1023 1023h1v1h-1Z"/></svg>
