<svg xmlns="http://www.w3.org/2000/svg" width="1024" height="1024" viewBox="0 0 1024 1024"><path fill="#FFFFFF" fill-rule="evenodd" d="M489.93 647.46 L489.81 647.48 L489.69 647.51 L489.57 647.54 L489.45 647.57 L489.33 647.60 L489.21 647.64 L489.10 647.67 L488.98 647.71 L488.86 647.75 L488.75 647.79 L488.63 647.83 L488.52 647.87 L488.40 647.91 L488.29 647.96 L488.17 648.00 L488.06 648.05 L487.95 648.10 L487.84 648.15 L487.72 648.20 L487.61 648.25 L487.50 648.31 L487.39 648.37 L487.29 648.42 L487.18 648.48 L487.07 648.54 L486.96 648.60 L486.86 648.66 L486.75 648.73 L486.65 648.79 L486.55 648.86 L486.44 648.93 L486.34 649.00 L486.24 649.07 L486.14 649.14 L486.04 649.21 L485.94 649.28 L485.85 649.36 L485.75 649.43 L485.66 649.51 L485.56 649.59 L485.47 649.67 L485.38 649.75 L485.28 649.83 L485.19 649.92 L485.10 650.00 L485.02 650.08 L484.93 650.17 L484.84 650.26 L484.76 650.35 L484.67 650.44 L484.59 650.53 L484.51 650.62 L484.43 650.71 L484.35 650.80 L484.27 650.90 L484.19 650.99 L484.12 651.09 L484.04 651.19 L483.97 651.28 L483.90 651.38 L483.82 651.48 L483.75 651.58 L483.69 651.69 L483.62 651.79 L483.55 651.89 L483.49 652.00 L483.42 652.10 L483.36 652.21 L483.30 652.31 L483.24 652.42 L483.18 652.53 L483.12 652.64 L483.07 652.75 L483.01 652.86 L482.96 652.97 L482.91 653.08 L482.86 653.19 L482.81 653.30 L482.76 653.41 L482.71 653.53 L482.67 653.64 L482.63 653.76 L482.58 653.87 L482.54 653.99 L482.50 654.10 L482.47 654.22 L482.43 654.34 L482.40 654.46 L482.36 654.57 L482.33 654.69 L482.30 654.81 L482.27 654.93 L482.24 655.05 L482.22 655.17 L482.19 655.29 L482.17 655.41 L482.15 655.53 L482.13 655.65 L482.11 655.77 L482.09 655.90 L482.08 656.02 L482.06 656.14 L482.05 656.26 L482.04 656.38 L482.03 656.51 L482.02 656.63 L482.01 656.75 L482.01 656.87 L482.00 657.00 L482.00 657.12 L482.00 657.24 L482.00 692.76 L482.00 692.88 L482.00 693.00 L482.01 693.13 L482.01 693.25 L482.02 693.37 L482.03 693.49 L482.04 693.62 L482.05 693.74 L482.06 693.86 L482.08 693.98 L482.09 694.10 L482.11 694.23 L482.13 694.35 L482.15 694.47 L482.17 694.59 L482.19 694.71 L482.22 694.83 L482.24 694.95 L482.27 695.07 L482.30 695.19 L482.33 695.31 L482.36 695.43 L482.40 695.54 L482.43 695.66 L482.47 695.78 L482.50 695.90 L482.54 696.01 L482.58 696.13 L482.63 696.24 L482.67 696.36 L482.71 696.47 L482.76 696.59 L482.81 696.70 L482.86 696.81 L482.91 696.92 L482.96 697.03 L483.01 697.14 L483.07 697.25 L483.12 697.36 L483.18 697.47 L483.24 697.58 L483.30 697.69 L483.36 697.79 L483.42 697.90 L483.49 698.00 L483.55 698.11 L483.62 698.21 L483.69 698.31 L483.75 698.42 L483.82 698.52 L483.90 698.62 L483.97 698.72 L484.04 698.81 L484.12 698.91 L484.19 699.01 L484.27 699.10 L484.35 699.20 L484.43 699.29 L484.51 699.38 L484.59 699.47 L484.67 699.56 L484.76 699.65 L484.84 699.74 L484.93 699.83 L485.02 699.92 L485.10 700.00 L485.19 700.08 L485.28 700.17 L485.38 700.25 L485.47 700.33 L485.56 700.41 L485.66 700.49 L485.75 700.57 L485.85 700.64 L485.94 700.72 L486.04 700.79 L486.14 700.86 L486.24 700.93 L486.34 701.00 L486.44 701.07 L486.55 701.14 L486.65 701.21 L486.75 701.27 L486.86 701.34 L486.96 701.40 L487.07 701.46 L487.18 701.52 L487.29 701.58 L487.39 701.63 L487.50 701.69 L487.61 701.75 L487.72 701.80 L487.84 701.85 L487.95 701.90 L488.06 701.95 L488.17 702.00 L488.29 702.04 L488.40 702.09 L488.52 702.13 L488.63 702.17 L488.75 702.21 L488.86 702.25 L488.98 702.29 L489.10 702.33 L489.21 702.36 L489.33 702.40 L489.45 702.43 L489.57 702.46 L489.69 702.49 L489.81 702.52 L489.93 702.54 L490.05 702.57 L520.11 708.54 L520.26 708.58 L520.37 708.60 L520.49 708.63 L520.61 708.66 L520.73 708.69 L520.85 708.72 L520.97 708.75 L521.08 708.79 L521.20 708.82 L521.32 708.86 L521.43 708.90 L521.55 708.94 L521.66 708.98 L521.77 709.03 L521.89 709.07 L522.00 709.12 L522.11 709.16 L522.23 709.21 L522.34 709.26 L522.45 709.31 L522.56 709.37 L522.67 709.42 L522.78 709.48 L522.88 709.53 L522.99 709.59 L523.10 709.65 L523.20 709.71 L523.31 709.77 L523.41 709.84 L523.52 709.90 L523.62 709.97 L523.72 710.03 L523.82 710.10 L523.92 710.17 L524.02 710.24 L524.12 710.31 L524.22 710.39 L524.32 710.46 L524.41 710.54 L524.51 710.61 L524.60 710.69 L524.70 710.77 L524.79 710.85 L524.88 710.93 L524.97 711.01 L525.06 711.10 L525.15 711.18 L525.23 711.27 L525.32 711.35 L525.40 711.44 L525.49 711.53 L525.57 711.62 L525.65 711.71 L525.73 711.80 L525.81 711.89 L525.89 711.99 L525.97 712.08 L526.04 712.18 L526.12 712.27 L526.19 712.37 L526.27 712.47 L526.34 712.57 L526.41 712.67 L526.48 712.77 L526.54 712.87 L526.61 712.97 L526.67 713.08 L526.74 713.18 L526.80 713.28 L526.86 713.39 L526.92 713.50 L526.98 713.60 L527.04 713.71 L527.09 713.82 L527.15 713.93 L527.20 714.04 L527.25 714.15 L527.31 714.26 L527.36 714.37 L527.40 714.48 L527.45 714.60 L527.49 714.71 L527.54 714.82 L527.58 714.94 L527.62 715.05 L527.66 715.17 L527.70 715.28 L527.74 715.40 L527.77 715.52 L527.81 715.63 L527.84 715.75 L527.87 715.87 L527.91 716.02 L528.19 717.16 L528.22 717.28 L528.72 719.23 L528.75 719.35 L529.27 721.29 L529.30 721.41 L529.85 723.35 L529.89 723.47 L530.46 725.40 L530.49 725.51 L531.09 727.43 L531.13 727.55 L531.75 729.47 L531.78 729.58 L532.43 731.49 L532.47 731.61 L533.13 733.51 L533.17 733.62 L533.86 735.51 L533.90 735.63 L534.62 737.51 L534.66 737.62 L535.40 739.50 L535.44 739.61 L536.20 741.48 L536.25 741.59 L537.03 743.44 L537.08 743.56 L537.88 745.40 L537.93 745.51 L538.76 747.35 L538.81 747.46 L539.66 749.29 L539.71 749.40 L540.58 751.21 L540.63 751.32 L541.53 753.13 L541.58 753.24 L542.50 755.03 L542.55 755.14 L543.49 756.92 L543.55 757.03 L544.51 758.80 L544.57 758.90 L545.55 760.66 L545.61 760.77 L546.61 762.51 L546.67 762.62 L547.70 764.35 L547.76 764.46 L548.43 765.57 L548.51 765.70 L548.57 765.81 L548.63 765.91 L548.69 766.02 L548.75 766.13 L548.81 766.24 L548.86 766.35 L548.92 766.46 L548.97 766.57 L549.02 766.68 L549.07 766.80 L549.12 766.91 L549.17 767.02 L549.21 767.14 L549.26 767.25 L549.30 767.37 L549.34 767.49 L549.38 767.60 L549.42 767.72 L549.46 767.84 L549.49 767.96 L549.53 768.07 L549.56 768.19 L549.59 768.31 L549.62 768.43 L549.65 768.55 L549.67 768.67 L549.70 768.79 L549.72 768.91 L549.75 769.04 L549.77 769.16 L549.79 769.28 L549.80 769.40 L549.82 769.52 L549.83 769.65 L549.85 769.77 L549.86 769.89 L549.87 770.01 L549.88 770.14 L549.89 770.26 L549.89 770.38 L549.90 770.51 L549.90 770.63 L549.90 770.75 L549.90 770.88 L549.90 771.00 L549.89 771.12 L549.89 771.25 L549.88 771.37 L549.87 771.49 L549.86 771.62 L549.85 771.74 L549.84 771.86 L549.83 771.98 L549.81 772.11 L549.79 772.23 L549.78 772.35 L549.76 772.47 L549.73 772.59 L549.71 772.71 L549.69 772.84 L549.66 772.96 L549.63 773.08 L549.60 773.20 L549.57 773.32 L549.54 773.43 L549.51 773.55 L549.47 773.67 L549.44 773.79 L549.40 773.91 L549.36 774.02 L549.32 774.14 L549.28 774.26 L549.23 774.37 L549.19 774.49 L549.14 774.60 L549.09 774.71 L549.04 774.83 L548.99 774.94 L548.94 775.05 L548.89 775.16 L548.83 775.27 L548.78 775.38 L548.72 775.49 L548.66 775.60 L548.60 775.71 L548.54 775.82 L548.48 775.92 L548.41 776.03 L548.35 776.13 L548.28 776.24 L548.20 776.36 L531.17 801.84 L531.10 801.95 L531.04 802.05 L530.97 802.15 L530.91 802.26 L530.85 802.36 L530.79 802.47 L530.73 802.58 L530.67 802.69 L530.61 802.79 L530.55 802.90 L530.50 803.01 L530.45 803.12 L530.39 803.24 L530.34 803.35 L530.29 803.46 L530.25 803.57 L530.20 803.69 L530.16 803.80 L530.11 803.92 L530.07 804.03 L530.03 804.15 L529.99 804.26 L529.95 804.38 L529.92 804.50 L529.88 804.61 L529.85 804.73 L529.82 804.85 L529.79 804.97 L529.76 805.09 L529.73 805.21 L529.70 805.33 L529.68 805.45 L529.65 805.57 L529.63 805.69 L529.61 805.81 L529.59 805.93 L529.58 806.05 L529.56 806.18 L529.55 806.30 L529.53 806.42 L529.52 806.54 L529.51 806.66 L529.50 806.79 L529.50 806.91 L529.49 807.03 L529.49 807.15 L529.49 807.28 L529.49 807.40 L529.49 807.52 L529.49 807.65 L529.49 807.77 L529.50 807.89 L529.50 808.01 L529.51 808.14 L529.52 808.26 L529.53 808.38 L529.55 808.50 L529.56 808.62 L529.58 808.75 L529.59 808.87 L529.61 808.99 L529.63 809.11 L529.65 809.23 L529.68 809.35 L529.70 809.47 L529.73 809.59 L529.76 809.71 L529.79 809.83 L529.82 809.95 L529.85 810.07 L529.88 810.18 L529.92 810.30 L529.95 810.42 L529.99 810.54 L530.03 810.65 L530.07 810.77 L530.11 810.88 L530.16 811.00 L530.20 811.11 L530.25 811.23 L530.29 811.34 L530.34 811.45 L530.39 811.56 L530.45 811.68 L530.50 811.79 L530.55 811.90 L530.61 812.01 L530.67 812.11 L530.73 812.22 L530.79 812.33 L530.85 812.44 L530.91 812.54 L530.97 812.65 L531.04 812.75 L531.10 812.85 L531.17 812.96 L531.24 813.06 L531.31 813.16 L531.38 813.26 L531.45 813.36 L531.53 813.45 L531.60 813.55 L531.68 813.65 L531.76 813.74 L531.83 813.84 L531.91 813.93 L531.99 814.02 L532.08 814.12 L532.16 814.21 L532.24 814.30 L532.33 814.38 L532.41 814.47 L557.53 839.59 L557.62 839.67 L557.70 839.76 L557.79 839.84 L557.88 839.92 L557.98 840.01 L558.07 840.09 L558.16 840.17 L558.26 840.24 L558.35 840.32 L558.45 840.40 L558.55 840.47 L558.64 840.55 L558.74 840.62 L558.84 840.69 L558.94 840.76 L559.04 840.83 L559.15 840.90 L559.25 840.96 L559.35 841.03 L559.46 841.09 L559.56 841.15 L559.67 841.21 L559.78 841.27 L559.89 841.33 L559.99 841.39 L560.10 841.45 L560.21 841.50 L560.32 841.55 L560.44 841.61 L560.55 841.66 L560.66 841.71 L560.77 841.75 L560.89 841.80 L561.00 841.84 L561.12 841.89 L561.23 841.93 L561.35 841.97 L561.46 842.01 L561.58 842.05 L561.70 842.08 L561.82 842.12 L561.93 842.15 L562.05 842.18 L562.17 842.21 L562.29 842.24 L562.41 842.27 L562.53 842.30 L562.65 842.32 L562.77 842.35 L562.89 842.37 L563.01 842.39 L563.13 842.41 L563.25 842.42 L563.38 842.44 L563.50 842.45 L563.62 842.47 L563.74 842.48 L563.86 842.49 L563.99 842.50 L564.11 842.50 L564.23 842.51 L564.35 842.51 L564.48 842.51 L564.60 842.51 L564.72 842.51 L564.85 842.51 L564.97 842.51 L565.09 842.50 L565.21 842.50 L565.34 842.49 L565.46 842.48 L565.58 842.47 L565.70 842.45 L565.82 842.44 L565.95 842.42 L566.07 842.41 L566.19 842.39 L566.31 842.37 L566.43 842.35 L566.55 842.32 L566.67 842.30 L566.79 842.27 L566.91 842.24 L567.03 842.21 L567.15 842.18 L567.27 842.15 L567.39 842.12 L567.50 842.08 L567.62 842.05 L567.74 842.01 L567.85 841.97 L567.97 841.93 L568.08 841.89 L568.20 841.84 L568.31 841.80 L568.43 841.75 L568.54 841.71 L568.65 841.66 L568.76 841.61 L568.88 841.55 L568.99 841.50 L569.10 841.45 L569.21 841.39 L569.31 841.33 L569.42 841.27 L569.53 841.21 L569.64 841.15 L569.74 841.09 L569.85 841.03 L569.95 840.96 L570.05 840.90 L570.16 840.83 L595.64 823.80 L595.76 823.72 L595.87 823.65 L595.97 823.59 L596.07 823.52 L596.18 823.46 L596.29 823.40 L596.39 823.34 L596.50 823.28 L596.61 823.23 L596.72 823.17 L596.82 823.12 L596.93 823.06 L597.05 823.01 L597.16 822.96 L597.27 822.91 L597.38 822.87 L597.49 822.82 L597.61 822.78 L597.72 822.73 L597.84 822.69 L597.95 822.65 L598.07 822.61 L598.18 822.57 L598.30 822.54 L598.42 822.50 L598.53 822.47 L598.65 822.44 L598.77 822.40 L598.89 822.38 L599.01 822.35 L599.13 822.32 L599.25 822.30 L599.37 822.27 L599.49 822.25 L599.61 822.23 L599.73 822.21 L599.85 822.20 L599.97 822.18 L600.09 822.16 L600.21 822.15 L600.33 822.14 L600.45 822.13 L600.58 822.12 L600.70 822.11 L600.82 822.11 L600.94 822.10 L601.06 822.10 L601.19 822.10 L601.31 822.10 L601.43 822.10 L601.55 822.11 L601.67 822.11 L601.80 822.12 L601.92 822.13 L602.04 822.13 L602.16 822.15 L602.28 822.16 L602.40 822.17 L602.52 822.19 L602.65 822.20 L602.77 822.22 L602.89 822.24 L603.01 822.26 L603.13 822.28 L603.25 822.31 L603.37 822.33 L603.49 822.36 L603.60 822.39 L603.72 822.42 L603.84 822.45 L603.96 822.48 L604.07 822.52 L604.19 822.55 L604.31 822.59 L604.42 822.63 L604.54 822.67 L604.65 822.71 L604.77 822.75 L604.88 822.80 L605.00 822.84 L605.11 822.89 L605.22 822.94 L605.33 822.99 L605.44 823.04 L605.55 823.09 L605.66 823.14 L605.77 823.20 L605.88 823.25 L605.99 823.31 L606.09 823.37 L606.20 823.43 L606.31 823.49 L606.44 823.57 L607.44 824.18 L607.55 824.24 L609.28 825.27 L609.39 825.33 L611.13 826.34 L611.24 826.40 L613.00 827.38 L613.10 827.44 L614.87 828.40 L614.98 828.46 L616.76 829.39 L616.87 829.45 L618.66 830.37 L618.77 830.42 L620.57 831.32 L620.68 831.37 L622.50 832.24 L622.61 832.29 L624.43 833.14 L624.54 833.20 L626.38 834.02 L626.49 834.07 L628.34 834.88 L628.45 834.93 L630.30 835.71 L630.42 835.76 L632.28 836.52 L632.39 836.56 L634.27 837.30 L634.38 837.34 L636.26 838.05 L636.38 838.10 L638.27 838.79 L638.38 838.83 L640.28 839.50 L640.40 839.54 L642.31 840.18 L642.42 840.22 L644.34 840.84 L644.45 840.88 L646.38 841.47 L646.49 841.51 L648.42 842.08 L648.54 842.12 L650.48 842.66 L650.60 842.70 L652.54 843.22 L652.66 843.25 L654.61 843.76 L654.72 843.79 L655.99 844.09 L656.14 844.13 L656.26 844.16 L656.37 844.20 L656.49 844.23 L656.61 844.27 L656.73 844.30 L656.85 844.34 L656.96 844.38 L657.08 844.42 L657.19 844.47 L657.31 844.51 L657.42 844.56 L657.54 844.61 L657.65 844.65 L657.76 844.70 L657.88 844.76 L657.99 844.81 L658.10 844.86 L658.21 844.92 L658.32 844.98 L658.43 845.03 L658.53 845.09 L658.64 845.15 L658.75 845.22 L658.85 845.28 L658.96 845.35 L659.06 845.41 L659.16 845.48 L659.27 845.55 L659.37 845.62 L659.47 845.69 L659.57 845.76 L659.67 845.84 L659.77 845.91 L659.86 845.99 L659.96 846.06 L660.05 846.14 L660.15 846.22 L660.24 846.30 L660.33 846.38 L660.42 846.47 L660.51 846.55 L660.60 846.64 L660.69 846.72 L660.78 846.81 L660.86 846.90 L660.95 846.99 L661.03 847.08 L661.12 847.17 L661.20 847.26 L661.28 847.36 L661.36 847.45 L661.43 847.55 L661.51 847.64 L661.59 847.74 L661.66 847.84 L661.73 847.94 L661.81 848.04 L661.88 848.14 L661.95 848.24 L662.01 848.35 L662.08 848.45 L662.15 848.55 L662.21 848.66 L662.27 848.77 L662.33 848.87 L662.39 848.98 L662.45 849.09 L662.51 849.20 L662.57 849.31 L662.62 849.42 L662.68 849.53 L662.73 849.64 L662.78 849.75 L662.83 849.87 L662.88 849.98 L662.92 850.09 L662.97 850.21 L663.01 850.32 L663.05 850.44 L663.10 850.56 L663.13 850.67 L663.17 850.79 L663.21 850.91 L663.24 851.03 L663.28 851.14 L663.31 851.26 L663.34 851.38 L663.37 851.50 L663.40 851.62 L663.42 851.74 L663.46 851.89 L669.43 881.95 L669.46 882.07 L669.48 882.19 L669.51 882.31 L669.54 882.43 L669.57 882.55 L669.60 882.67 L669.64 882.79 L669.67 882.90 L669.71 883.02 L669.75 883.14 L669.79 883.25 L669.83 883.37 L669.87 883.48 L669.91 883.60 L669.96 883.71 L670.00 883.83 L670.05 883.94 L670.10 884.05 L670.15 884.16 L670.20 884.28 L670.25 884.39 L670.31 884.50 L670.37 884.61 L670.42 884.71 L670.48 884.82 L670.54 884.93 L670.60 885.04 L670.66 885.14 L670.73 885.25 L670.79 885.35 L670.86 885.45 L670.93 885.56 L671.00 885.66 L671.07 885.76 L671.14 885.86 L671.21 885.96 L671.28 886.06 L671.36 886.15 L671.43 886.25 L671.51 886.34 L671.59 886.44 L671.67 886.53 L671.75 886.62 L671.83 886.72 L671.92 886.81 L672.00 886.90 L672.08 886.98 L672.17 887.07 L672.26 887.16 L672.35 887.24 L672.44 887.33 L672.53 887.41 L672.62 887.49 L672.71 887.57 L672.80 887.65 L672.90 887.73 L672.99 887.81 L673.09 887.88 L673.19 887.96 L673.28 888.03 L673.38 888.10 L673.48 888.18 L673.58 888.25 L673.69 888.31 L673.79 888.38 L673.89 888.45 L674.00 888.51 L674.10 888.58 L674.21 888.64 L674.31 888.70 L674.42 888.76 L674.53 888.82 L674.64 888.88 L674.75 888.93 L674.86 888.99 L674.97 889.04 L675.08 889.09 L675.19 889.14 L675.30 889.19 L675.41 889.24 L675.53 889.29 L675.64 889.33 L675.76 889.37 L675.87 889.42 L675.99 889.46 L676.10 889.50 L676.22 889.53 L676.34 889.57 L676.46 889.60 L676.57 889.64 L676.69 889.67 L676.81 889.70 L676.93 889.73 L677.05 889.76 L677.17 889.78 L677.29 889.81 L677.41 889.83 L677.53 889.85 L677.65 889.87 L677.77 889.89 L677.90 889.91 L678.02 889.92 L678.14 889.94 L678.26 889.95 L678.38 889.96 L678.51 889.97 L678.63 889.98 L678.75 889.99 L678.87 889.99 L679.00 890.00 L679.12 890.00 L679.24 890.00 L714.76 890.00 L714.88 890.00 L715.00 890.00 L715.13 889.99 L715.25 889.99 L715.37 889.98 L715.49 889.97 L715.62 889.96 L715.74 889.95 L715.86 889.94 L715.98 889.92 L716.10 889.91 L716.23 889.89 L716.35 889.87 L716.47 889.85 L716.59 889.83 L716.71 889.81 L716.83 889.78 L716.95 889.76 L717.07 889.73 L717.19 889.70 L717.31 889.67 L717.43 889.64 L717.54 889.60 L717.66 889.57 L717.78 889.53 L717.90 889.50 L718.01 889.46 L718.13 889.42 L718.24 889.37 L718.36 889.33 L718.47 889.29 L718.59 889.24 L718.70 889.19 L718.81 889.14 L718.92 889.09 L719.03 889.04 L719.14 888.99 L719.25 888.93 L719.36 888.88 L719.47 888.82 L719.58 888.76 L719.69 888.70 L719.79 888.64 L719.90 888.58 L720.00 888.51 L720.11 888.45 L720.21 888.38 L720.31 888.31 L720.42 888.25 L720.52 888.18 L720.62 888.10 L720.72 888.03 L720.81 887.96 L720.91 887.88 L721.01 887.81 L721.10 887.73 L721.20 887.65 L721.29 887.57 L721.38 887.49 L721.47 887.41 L721.56 887.33 L721.65 887.24 L721.74 887.16 L721.83 887.07 L721.92 886.98 L722.00 886.90 L722.08 886.81 L722.17 886.72 L722.25 886.62 L722.33 886.53 L722.41 886.44 L722.49 886.34 L722.57 886.25 L722.64 886.15 L722.72 886.06 L722.79 885.96 L722.86 885.86 L722.93 885.76 L723.00 885.66 L723.07 885.56 L723.14 885.45 L723.21 885.35 L723.27 885.25 L723.34 885.14 L723.40 885.04 L723.46 884.93 L723.52 884.82 L723.58 884.71 L723.63 884.61 L723.69 884.50 L723.75 884.39 L723.80 884.28 L723.85 884.16 L723.90 884.05 L723.95 883.94 L724.00 883.83 L724.04 883.71 L724.09 883.60 L724.13 883.48 L724.17 883.37 L724.21 883.25 L724.25 883.14 L724.29 883.02 L724.33 882.90 L724.36 882.79 L724.40 882.67 L724.43 882.55 L724.46 882.43 L724.49 882.31 L724.52 882.19 L724.54 882.07 L724.57 881.95 L730.54 851.89 L730.58 851.74 L730.60 851.63 L730.63 851.51 L730.66 851.39 L730.69 851.27 L730.72 851.15 L730.75 851.03 L730.79 850.92 L730.82 850.80 L730.86 850.68 L730.90 850.57 L730.94 850.45 L730.98 850.34 L731.03 850.23 L731.07 850.11 L731.12 850.00 L731.16 849.89 L731.21 849.77 L731.26 849.66 L731.31 849.55 L731.37 849.44 L731.42 849.33 L731.48 849.22 L731.53 849.12 L731.59 849.01 L731.65 848.90 L731.71 848.80 L731.77 848.69 L731.84 848.59 L731.90 848.48 L731.97 848.38 L732.03 848.28 L732.10 848.18 L732.17 848.08 L732.24 847.98 L732.31 847.88 L732.39 847.78 L732.46 847.68 L732.54 847.59 L732.61 847.49 L732.69 847.40 L732.77 847.30 L732.85 847.21 L732.93 847.12 L733.01 847.03 L733.10 846.94 L733.18 846.85 L733.27 846.77 L733.35 846.68 L733.44 846.60 L733.53 846.51 L733.62 846.43 L733.71 846.35 L733.80 846.27 L733.89 846.19 L733.99 846.11 L734.08 846.03 L734.18 845.96 L734.27 845.88 L734.37 845.81 L734.47 845.73 L734.57 845.66 L734.67 845.59 L734.77 845.52 L734.87 845.46 L734.97 845.39 L735.08 845.33 L735.18 845.26 L735.28 845.20 L735.39 845.14 L735.50 845.08 L735.60 845.02 L735.71 844.96 L735.82 844.91 L735.93 844.85 L736.04 844.80 L736.15 844.75 L736.26 844.69 L736.37 844.64 L736.48 844.60 L736.60 844.55 L736.71 844.51 L736.82 844.46 L736.94 844.42 L737.05 844.38 L737.17 844.34 L737.28 844.30 L737.40 844.26 L737.52 844.23 L737.63 844.19 L737.75 844.16 L737.87 844.13 L738.02 844.09 L739.16 843.81 L739.28 843.78 L741.23 843.28 L741.35 843.25 L743.29 842.73 L743.41 842.70 L745.35 842.15 L745.47 842.11 L747.40 841.54 L747.51 841.51 L749.43 840.91 L749.55 840.87 L751.47 840.25 L751.58 840.22 L753.49 839.57 L753.61 839.53 L755.51 838.87 L755.62 838.83 L757.51 838.14 L757.63 838.10 L759.51 837.38 L759.62 837.34 L761.50 836.60 L761.61 836.56 L763.48 835.80 L763.59 835.75 L765.44 834.97 L765.56 834.92 L767.40 834.12 L767.51 834.07 L769.35 833.24 L769.46 833.19 L771.29 832.34 L771.40 832.29 L773.21 831.42 L773.32 831.37 L775.13 830.47 L775.24 830.42 L777.03 829.50 L777.14 829.45 L778.92 828.51 L779.03 828.45 L780.80 827.49 L780.90 827.43 L782.66 826.45 L782.77 826.39 L784.51 825.39 L784.62 825.33 L786.35 824.30 L786.46 824.24 L787.57 823.57 L787.70 823.49 L787.81 823.43 L787.91 823.37 L788.02 823.31 L788.13 823.25 L788.24 823.19 L788.35 823.14 L788.46 823.08 L788.57 823.03 L788.68 822.98 L788.80 822.93 L788.91 822.88 L789.02 822.83 L789.14 822.79 L789.25 822.74 L789.37 822.70 L789.49 822.66 L789.60 822.62 L789.72 822.58 L789.84 822.54 L789.96 822.51 L790.07 822.47 L790.19 822.44 L790.31 822.41 L790.43 822.38 L790.55 822.35 L790.67 822.33 L790.79 822.30 L790.91 822.28 L791.04 822.25 L791.16 822.23 L791.28 822.21 L791.40 822.20 L791.52 822.18 L791.65 822.17 L791.77 822.15 L791.89 822.14 L792.01 822.13 L792.14 822.12 L792.26 822.11 L792.38 822.11 L792.51 822.10 L792.63 822.10 L792.75 822.10 L792.88 822.10 L793.00 822.10 L793.12 822.11 L793.25 822.11 L793.37 822.12 L793.49 822.13 L793.62 822.14 L793.74 822.15 L793.86 822.16 L793.98 822.17 L794.11 822.19 L794.23 822.21 L794.35 822.22 L794.47 822.24 L794.59 822.27 L794.71 822.29 L794.84 822.31 L794.96 822.34 L795.08 822.37 L795.20 822.40 L795.32 822.43 L795.43 822.46 L795.55 822.49 L795.67 822.53 L795.79 822.56 L795.91 822.60 L796.02 822.64 L796.14 822.68 L796.26 822.72 L796.37 822.77 L796.49 822.81 L796.60 822.86 L796.71 822.91 L796.83 822.96 L796.94 823.01 L797.05 823.06 L797.16 823.11 L797.27 823.17 L797.38 823.22 L797.49 823.28 L797.60 823.34 L797.71 823.40 L797.82 823.46 L797.92 823.52 L798.03 823.59 L798.13 823.65 L798.24 823.72 L798.36 823.80 L823.84 840.83 L823.95 840.90 L824.05 840.96 L824.15 841.03 L824.26 841.09 L824.36 841.15 L824.47 841.21 L824.58 841.27 L824.69 841.33 L824.79 841.39 L824.90 841.45 L825.01 841.50 L825.12 841.55 L825.24 841.61 L825.35 841.66 L825.46 841.71 L825.57 841.75 L825.69 841.80 L825.80 841.84 L825.92 841.89 L826.03 841.93 L826.15 841.97 L826.26 842.01 L826.38 842.05 L826.50 842.08 L826.61 842.12 L826.73 842.15 L826.85 842.18 L826.97 842.21 L827.09 842.24 L827.21 842.27 L827.33 842.30 L827.45 842.32 L827.57 842.35 L827.69 842.37 L827.81 842.39 L827.93 842.41 L828.05 842.42 L828.18 842.44 L828.30 842.45 L828.42 842.47 L828.54 842.48 L828.66 842.49 L828.79 842.50 L828.91 842.50 L829.03 842.51 L829.15 842.51 L829.28 842.51 L829.40 842.51 L829.52 842.51 L829.65 842.51 L829.77 842.51 L829.89 842.50 L830.01 842.50 L830.14 842.49 L830.26 842.48 L830.38 842.47 L830.50 842.45 L830.62 842.44 L830.75 842.42 L830.87 842.41 L830.99 842.39 L831.11 842.37 L831.23 842.35 L831.35 842.32 L831.47 842.30 L831.59 842.27 L831.71 842.24 L831.83 842.21 L831.95 842.18 L832.07 842.15 L832.18 842.12 L832.30 842.08 L832.42 842.05 L832.54 842.01 L832.65 841.97 L832.77 841.93 L832.88 841.89 L833.00 841.84 L833.11 841.80 L833.23 841.75 L833.34 841.71 L833.45 841.66 L833.56 841.61 L833.68 841.55 L833.79 841.50 L833.90 841.45 L834.01 841.39 L834.11 841.33 L834.22 841.27 L834.33 841.21 L834.44 841.15 L834.54 841.09 L834.65 841.03 L834.75 840.96 L834.85 840.90 L834.96 840.83 L835.06 840.76 L835.16 840.69 L835.26 840.62 L835.36 840.55 L835.45 840.47 L835.55 840.40 L835.65 840.32 L835.74 840.24 L835.84 840.17 L835.93 840.09 L836.02 840.01 L836.12 839.92 L836.21 839.84 L836.30 839.76 L836.38 839.67 L836.47 839.59 L861.59 814.47 L861.67 814.38 L861.76 814.30 L861.84 814.21 L861.92 814.12 L862.01 814.02 L862.09 813.93 L862.17 813.84 L862.24 813.74 L862.32 813.65 L862.40 813.55 L862.47 813.45 L862.55 813.36 L862.62 813.26 L862.69 813.16 L862.76 813.06 L862.83 812.96 L862.90 812.85 L862.96 812.75 L863.03 812.65 L863.09 812.54 L863.15 812.44 L863.21 812.33 L863.27 812.22 L863.33 812.11 L863.39 812.01 L863.45 811.90 L863.50 811.79 L863.55 811.68 L863.61 811.56 L863.66 811.45 L863.71 811.34 L863.75 811.23 L863.80 811.11 L863.84 811.00 L863.89 810.88 L863.93 810.77 L863.97 810.65 L864.01 810.54 L864.05 810.42 L864.08 810.30 L864.12 810.18 L864.15 810.07 L864.18 809.95 L864.21 809.83 L864.24 809.71 L864.27 809.59 L864.30 809.47 L864.32 809.35 L864.35 809.23 L864.37 809.11 L864.39 808.99 L864.41 808.87 L864.42 808.75 L864.44 808.62 L864.45 808.50 L864.47 808.38 L864.48 808.26 L864.49 808.14 L864.50 808.01 L864.50 807.89 L864.51 807.77 L864.51 807.65 L864.51 807.52 L864.51 807.40 L864.51 807.28 L864.51 807.15 L864.51 807.03 L864.50 806.91 L864.50 806.79 L864.49 806.66 L864.48 806.54 L864.47 806.42 L864.45 806.30 L864.44 806.18 L864.42 806.05 L864.41 805.93 L864.39 805.81 L864.37 805.69 L864.35 805.57 L864.32 805.45 L864.30 805.33 L864.27 805.21 L864.24 805.09 L864.21 804.97 L864.18 804.85 L864.15 804.73 L864.12 804.61 L864.08 804.50 L864.05 804.38 L864.01 804.26 L863.97 804.15 L863.93 804.03 L863.89 803.92 L863.84 803.80 L863.80 803.69 L863.75 803.57 L863.71 803.46 L863.66 803.35 L863.61 803.24 L863.55 803.12 L863.50 803.01 L863.45 802.90 L863.39 802.79 L863.33 802.69 L863.27 802.58 L863.21 802.47 L863.15 802.36 L863.09 802.26 L863.03 802.15 L862.96 802.05 L862.90 801.95 L862.83 801.84 L845.80 776.36 L845.72 776.24 L845.65 776.13 L845.59 776.03 L845.52 775.93 L845.46 775.82 L845.40 775.71 L845.34 775.61 L845.28 775.50 L845.23 775.39 L845.17 775.28 L845.12 775.18 L845.06 775.07 L845.01 774.95 L844.96 774.84 L844.91 774.73 L844.87 774.62 L844.82 774.51 L844.78 774.39 L844.73 774.28 L844.69 774.16 L844.65 774.05 L844.61 773.93 L844.57 773.82 L844.54 773.70 L844.50 773.58 L844.47 773.47 L844.44 773.35 L844.40 773.23 L844.38 773.11 L844.35 772.99 L844.32 772.87 L844.30 772.75 L844.27 772.63 L844.25 772.51 L844.23 772.39 L844.21 772.27 L844.20 772.15 L844.18 772.03 L844.16 771.91 L844.15 771.79 L844.14 771.67 L844.13 771.55 L844.12 771.42 L844.11 771.30 L844.11 771.18 L844.10 771.06 L844.10 770.94 L844.10 770.81 L844.10 770.69 L844.10 770.57 L844.11 770.45 L844.11 770.33 L844.12 770.20 L844.13 770.08 L844.13 769.96 L844.15 769.84 L844.16 769.72 L844.17 769.60 L844.19 769.48 L844.20 769.35 L844.22 769.23 L844.24 769.11 L844.26 768.99 L844.28 768.87 L844.31 768.75 L844.33 768.63 L844.36 768.51 L844.39 768.40 L844.42 768.28 L844.45 768.16 L844.48 768.04 L844.52 767.93 L844.55 767.81 L844.59 767.69 L844.63 767.58 L844.67 767.46 L844.71 767.35 L844.75 767.23 L844.80 767.12 L844.84 767.00 L844.89 766.89 L844.94 766.78 L844.99 766.67 L845.04 766.56 L845.09 766.45 L845.14 766.34 L845.20 766.23 L845.25 766.12 L845.31 766.01 L845.37 765.91 L845.43 765.80 L845.49 765.69 L845.57 765.56 L846.18 764.56 L846.24 764.45 L847.27 762.72 L847.33 762.61 L848.34 760.87 L848.40 760.76 L849.38 759.00 L849.44 758.90 L850.40 757.13 L850.46 757.02 L851.39 755.24 L851.45 755.13 L852.37 753.34 L852.42 753.23 L853.32 751.43 L853.37 751.32 L854.24 749.50 L854.29 749.39 L855.14 747.57 L855.20 747.46 L856.02 745.62 L856.07 745.51 L856.88 743.66 L856.93 743.55 L857.71 741.70 L857.76 741.58 L858.52 739.72 L858.56 739.61 L859.30 737.73 L859.34 737.62 L860.05 735.74 L860.10 735.62 L860.79 733.73 L860.83 733.62 L861.50 731.72 L861.54 731.60 L862.18 729.69 L862.22 729.58 L862.84 727.66 L862.88 727.55 L863.47 725.62 L863.51 725.51 L864.08 723.58 L864.12 723.46 L864.66 721.52 L864.70 721.40 L865.22 719.46 L865.25 719.34 L865.76 717.39 L865.79 717.28 L866.09 716.01 L866.13 715.86 L866.16 715.74 L866.20 715.63 L866.23 715.51 L866.27 715.39 L866.30 715.27 L866.34 715.15 L866.38 715.04 L866.42 714.92 L866.47 714.81 L866.51 714.69 L866.56 714.58 L866.61 714.46 L866.65 714.35 L866.70 714.24 L866.76 714.12 L866.81 714.01 L866.86 713.90 L866.92 713.79 L866.98 713.68 L867.03 713.57 L867.09 713.47 L867.15 713.36 L867.22 713.25 L867.28 713.15 L867.35 713.04 L867.41 712.94 L867.48 712.84 L867.55 712.73 L867.62 712.63 L867.69 712.53 L867.76 712.43 L867.84 712.33 L867.91 712.23 L867.99 712.14 L868.06 712.04 L868.14 711.95 L868.22 711.85 L868.30 711.76 L868.38 711.67 L868.47 711.58 L868.55 711.49 L868.64 711.40 L868.72 711.31 L868.81 711.22 L868.90 711.14 L868.99 711.05 L869.08 710.97 L869.17 710.88 L869.26 710.80 L869.36 710.72 L869.45 710.64 L869.55 710.57 L869.64 710.49 L869.74 710.41 L869.84 710.34 L869.94 710.27 L870.04 710.19 L870.14 710.12 L870.24 710.05 L870.35 709.99 L870.45 709.92 L870.55 709.85 L870.66 709.79 L870.77 709.73 L870.87 709.67 L870.98 709.61 L871.09 709.55 L871.20 709.49 L871.31 709.43 L871.42 709.38 L871.53 709.32 L871.64 709.27 L871.75 709.22 L871.87 709.17 L871.98 709.12 L872.09 709.08 L872.21 709.03 L872.32 708.99 L872.44 708.95 L872.56 708.90 L872.67 708.87 L872.79 708.83 L872.91 708.79 L873.03 708.76 L873.14 708.72 L873.26 708.69 L873.38 708.66 L873.50 708.63 L873.62 708.60 L873.74 708.58 L873.89 708.54 L903.95 702.57 L904.07 702.54 L904.19 702.52 L904.31 702.49 L904.43 702.46 L904.55 702.43 L904.67 702.40 L904.79 702.36 L904.90 702.33 L905.02 702.29 L905.14 702.25 L905.25 702.21 L905.37 702.17 L905.48 702.13 L905.60 702.09 L905.71 702.04 L905.83 702.00 L905.94 701.95 L906.05 701.90 L906.16 701.85 L906.28 701.80 L906.39 701.75 L906.50 701.69 L906.61 701.63 L906.71 701.58 L906.82 701.52 L906.93 701.46 L907.04 701.40 L907.14 701.34 L907.25 701.27 L907.35 701.21 L907.45 701.14 L907.56 701.07 L907.66 701.00 L907.76 700.93 L907.86 700.86 L907.96 700.79 L908.06 700.72 L908.15 700.64 L908.25 700.57 L908.34 700.49 L908.44 700.41 L908.53 700.33 L908.62 700.25 L908.72 700.17 L908.81 700.08 L908.90 700.00 L908.98 699.92 L909.07 699.83 L909.16 699.74 L909.24 699.65 L909.33 699.56 L909.41 699.47 L909.49 699.38 L909.57 699.29 L909.65 699.20 L909.73 699.10 L909.81 699.01 L909.88 698.91 L909.96 698.81 L910.03 698.72 L910.10 698.62 L910.18 698.52 L910.25 698.42 L910.31 698.31 L910.38 698.21 L910.45 698.11 L910.51 698.00 L910.58 697.90 L910.64 697.79 L910.70 697.69 L910.76 697.58 L910.82 697.47 L910.88 697.36 L910.93 697.25 L910.99 697.14 L911.04 697.03 L911.09 696.92 L911.14 696.81 L911.19 696.70 L911.24 696.59 L911.29 696.47 L911.33 696.36 L911.37 696.24 L911.42 696.13 L911.46 696.01 L911.50 695.90 L911.53 695.78 L911.57 695.66 L911.60 695.54 L911.64 695.43 L911.67 695.31 L911.70 695.19 L911.73 695.07 L911.76 694.95 L911.78 694.83 L911.81 694.71 L911.83 694.59 L911.85 694.47 L911.87 694.35 L911.89 694.23 L911.91 694.10 L911.92 693.98 L911.94 693.86 L911.95 693.74 L911.96 693.62 L911.97 693.49 L911.98 693.37 L911.99 693.25 L911.99 693.13 L912.00 693.00 L912.00 692.88 L912.00 692.76 L912.00 657.24 L912.00 657.12 L912.00 657.00 L911.99 656.87 L911.99 656.75 L911.98 656.63 L911.97 656.51 L911.96 656.38 L911.95 656.26 L911.94 656.14 L911.92 656.02 L911.91 655.90 L911.89 655.77 L911.87 655.65 L911.85 655.53 L911.83 655.41 L911.81 655.29 L911.78 655.17 L911.76 655.05 L911.73 654.93 L911.70 654.81 L911.67 654.69 L911.64 654.57 L911.60 654.46 L911.57 654.34 L911.53 654.22 L911.50 654.10 L911.46 653.99 L911.42 653.87 L911.37 653.76 L911.33 653.64 L911.29 653.53 L911.24 653.41 L911.19 653.30 L911.14 653.19 L911.09 653.08 L911.04 652.97 L910.99 652.86 L910.93 652.75 L910.88 652.64 L910.82 652.53 L910.76 652.42 L910.70 652.31 L910.64 652.21 L910.58 652.10 L910.51 652.00 L910.45 651.89 L910.38 651.79 L910.31 651.69 L910.25 651.58 L910.18 651.48 L910.10 651.38 L910.03 651.28 L909.96 651.19 L909.88 651.09 L909.81 650.99 L909.73 650.90 L909.65 650.80 L909.57 650.71 L909.49 650.62 L909.41 650.53 L909.33 650.44 L909.24 650.35 L909.16 650.26 L909.07 650.17 L908.98 650.08 L908.90 650.00 L908.81 649.92 L908.72 649.83 L908.62 649.75 L908.53 649.67 L908.44 649.59 L908.34 649.51 L908.25 649.43 L908.15 649.36 L908.06 649.28 L907.96 649.21 L907.86 649.14 L907.76 649.07 L907.66 649.00 L907.56 648.93 L907.45 648.86 L907.35 648.79 L907.25 648.73 L907.14 648.66 L907.04 648.60 L906.93 648.54 L906.82 648.48 L906.71 648.42 L906.61 648.37 L906.50 648.31 L906.39 648.25 L906.28 648.20 L906.16 648.15 L906.05 648.10 L905.94 648.05 L905.83 648.00 L905.71 647.96 L905.60 647.91 L905.48 647.87 L905.37 647.83 L905.25 647.79 L905.14 647.75 L905.02 647.71 L904.90 647.67 L904.79 647.64 L904.67 647.60 L904.55 647.57 L904.43 647.54 L904.31 647.51 L904.19 647.48 L904.07 647.46 L903.95 647.43 L873.89 641.46 L873.74 641.42 L873.63 641.40 L873.51 641.37 L873.39 641.34 L873.27 641.31 L873.15 641.28 L873.03 641.25 L872.92 641.21 L872.80 641.18 L872.68 641.14 L872.57 641.10 L872.45 641.06 L872.34 641.02 L872.23 640.97 L872.11 640.93 L872.00 640.88 L871.89 640.84 L871.77 640.79 L871.66 640.74 L871.55 640.69 L871.44 640.63 L871.33 640.58 L871.22 640.52 L871.12 640.47 L871.01 640.41 L870.90 640.35 L870.80 640.29 L870.69 640.23 L870.59 640.16 L870.48 640.10 L870.38 640.03 L870.28 639.97 L870.18 639.90 L870.08 639.83 L869.98 639.76 L869.88 639.69 L869.78 639.61 L869.68 639.54 L869.59 639.46 L869.49 639.39 L869.40 639.31 L869.30 639.23 L869.21 639.15 L869.12 639.07 L869.03 638.99 L868.94 638.90 L868.85 638.82 L868.77 638.73 L868.68 638.65 L868.60 638.56 L868.51 638.47 L868.43 638.38 L868.35 638.29 L868.27 638.20 L868.19 638.11 L868.11 638.01 L868.03 637.92 L867.96 637.82 L867.88 637.73 L867.81 637.63 L867.73 637.53 L867.66 637.43 L867.59 637.33 L867.52 637.23 L867.46 637.13 L867.39 637.03 L867.33 636.92 L867.26 636.82 L867.20 636.72 L867.14 636.61 L867.08 636.50 L867.02 636.40 L866.96 636.29 L866.91 636.18 L866.85 636.07 L866.80 635.96 L866.75 635.85 L866.69 635.74 L866.64 635.63 L866.60 635.52 L866.55 635.40 L866.51 635.29 L866.46 635.18 L866.42 635.06 L866.38 634.95 L866.34 634.83 L866.30 634.72 L866.26 634.60 L866.23 634.48 L866.19 634.37 L866.16 634.25 L866.13 634.13 L866.09 633.98 L865.81 632.84 L865.78 632.72 L865.28 630.77 L865.25 630.65 L864.73 628.71 L864.70 628.59 L864.15 626.65 L864.11 626.53 L863.54 624.60 L863.51 624.49 L862.91 622.57 L862.87 622.45 L862.25 620.53 L862.22 620.42 L861.57 618.51 L861.53 618.39 L860.87 616.49 L860.83 616.38 L860.14 614.49 L860.10 614.37 L859.38 612.49 L859.34 612.38 L858.60 610.50 L858.56 610.39 L857.80 608.52 L857.75 608.41 L856.97 606.56 L856.92 606.44 L856.12 604.60 L856.07 604.49 L855.24 602.65 L855.19 602.54 L854.34 600.71 L854.29 600.60 L853.42 598.79 L853.37 598.68 L852.47 596.87 L852.42 596.76 L851.50 594.97 L851.45 594.86 L850.51 593.08 L850.45 592.97 L849.49 591.20 L849.43 591.10 L848.45 589.34 L848.39 589.23 L847.39 587.49 L847.33 587.38 L846.30 585.65 L846.24 585.54 L845.57 584.43 L845.49 584.30 L845.43 584.19 L845.37 584.09 L845.31 583.98 L845.25 583.87 L845.19 583.76 L845.14 583.65 L845.08 583.54 L845.03 583.43 L844.98 583.32 L844.93 583.20 L844.88 583.09 L844.83 582.98 L844.79 582.86 L844.74 582.75 L844.70 582.63 L844.66 582.51 L844.62 582.40 L844.58 582.28 L844.54 582.16 L844.51 582.04 L844.47 581.93 L844.44 581.81 L844.41 581.69 L844.38 581.57 L844.35 581.45 L844.33 581.33 L844.30 581.21 L844.28 581.09 L844.25 580.96 L844.23 580.84 L844.21 580.72 L844.20 580.60 L844.18 580.48 L844.17 580.35 L844.15 580.23 L844.14 580.11 L844.13 579.99 L844.12 579.86 L844.11 579.74 L844.11 579.62 L844.10 579.49 L844.10 579.37 L844.10 579.25 L844.10 579.12 L844.10 579.00 L844.11 578.88 L844.11 578.75 L844.12 578.63 L844.13 578.51 L844.14 578.38 L844.15 578.26 L844.16 578.14 L844.17 578.02 L844.19 577.89 L844.21 577.77 L844.22 577.65 L844.24 577.53 L844.27 577.41 L844.29 577.29 L844.31 577.16 L844.34 577.04 L844.37 576.92 L844.40 576.80 L844.43 576.68 L844.46 576.57 L844.49 576.45 L844.53 576.33 L844.56 576.21 L844.60 576.09 L844.64 575.98 L844.68 575.86 L844.72 575.74 L844.77 575.63 L844.81 575.51 L844.86 575.40 L844.91 575.29 L844.96 575.17 L845.01 575.06 L845.06 574.95 L845.11 574.84 L845.17 574.73 L845.22 574.62 L845.28 574.51 L845.34 574.40 L845.40 574.29 L845.46 574.18 L845.52 574.08 L845.59 573.97 L845.65 573.87 L845.72 573.76 L845.80 573.64 L862.83 548.16 L862.90 548.05 L862.96 547.95 L863.03 547.85 L863.09 547.74 L863.15 547.64 L863.21 547.53 L863.27 547.42 L863.33 547.31 L863.39 547.21 L863.45 547.10 L863.50 546.99 L863.55 546.88 L863.61 546.76 L863.66 546.65 L863.71 546.54 L863.75 546.43 L863.80 546.31 L863.84 546.20 L863.89 546.08 L863.93 545.97 L863.97 545.85 L864.01 545.74 L864.05 545.62 L864.08 545.50 L864.12 545.39 L864.15 545.27 L864.18 545.15 L864.21 545.03 L864.24 544.91 L864.27 544.79 L864.30 544.67 L864.32 544.55 L864.35 544.43 L864.37 544.31 L864.39 544.19 L864.41 544.07 L864.42 543.95 L864.44 543.82 L864.45 543.70 L864.47 543.58 L864.48 543.46 L864.49 543.34 L864.50 543.21 L864.50 543.09 L864.51 542.97 L864.51 542.85 L864.51 542.72 L864.51 542.60 L864.51 542.48 L864.51 542.35 L864.51 542.23 L864.50 542.11 L864.50 541.99 L864.49 541.86 L864.48 541.74 L864.47 541.62 L864.45 541.50 L864.44 541.38 L864.42 541.25 L864.41 541.13 L864.39 541.01 L864.37 540.89 L864.35 540.77 L864.32 540.65 L864.30 540.53 L864.27 540.41 L864.24 540.29 L864.21 540.17 L864.18 540.05 L864.15 539.93 L864.12 539.82 L864.08 539.70 L864.05 539.58 L864.01 539.46 L863.97 539.35 L863.93 539.23 L863.89 539.12 L863.84 539.00 L863.80 538.89 L863.75 538.77 L863.71 538.66 L863.66 538.55 L863.61 538.44 L863.55 538.32 L863.50 538.21 L863.45 538.10 L863.39 537.99 L863.33 537.89 L863.27 537.78 L863.21 537.67 L863.15 537.56 L863.09 537.46 L863.03 537.35 L862.96 537.25 L862.90 537.15 L862.83 537.04 L862.76 536.94 L862.69 536.84 L862.62 536.74 L862.55 536.64 L862.47 536.55 L862.40 536.45 L862.32 536.35 L862.24 536.26 L862.17 536.16 L862.09 536.07 L862.01 535.98 L861.92 535.88 L861.84 535.79 L861.76 535.70 L861.67 535.62 L861.59 535.53 L836.47 510.41 L836.38 510.33 L836.30 510.24 L836.21 510.16 L836.12 510.08 L836.02 509.99 L835.93 509.91 L835.84 509.83 L835.74 509.76 L835.65 509.68 L835.55 509.60 L835.45 509.53 L835.36 509.45 L835.26 509.38 L835.16 509.31 L835.06 509.24 L834.96 509.17 L834.85 509.10 L834.75 509.04 L834.65 508.97 L834.54 508.91 L834.44 508.85 L834.33 508.79 L834.22 508.73 L834.11 508.67 L834.01 508.61 L833.90 508.55 L833.79 508.50 L833.68 508.45 L833.56 508.39 L833.45 508.34 L833.34 508.29 L833.23 508.25 L833.11 508.20 L833.00 508.16 L832.88 508.11 L832.77 508.07 L832.65 508.03 L832.54 507.99 L832.42 507.95 L832.30 507.92 L832.18 507.88 L832.07 507.85 L831.95 507.82 L831.83 507.79 L831.71 507.76 L831.59 507.73 L831.47 507.70 L831.35 507.68 L831.23 507.65 L831.11 507.63 L830.99 507.61 L830.87 507.59 L830.75 507.58 L830.62 507.56 L830.50 507.55 L830.38 507.53 L830.26 507.52 L830.14 507.51 L830.01 507.50 L829.89 507.50 L829.77 507.49 L829.65 507.49 L829.52 507.49 L829.40 507.49 L829.28 507.49 L829.15 507.49 L829.03 507.49 L828.91 507.50 L828.79 507.50 L828.66 507.51 L828.54 507.52 L828.42 507.53 L828.30 507.55 L828.18 507.56 L828.05 507.58 L827.93 507.59 L827.81 507.61 L827.69 507.63 L827.57 507.65 L827.45 507.68 L827.33 507.70 L827.21 507.73 L827.09 507.76 L826.97 507.79 L826.85 507.82 L826.73 507.85 L826.61 507.88 L826.50 507.92 L826.38 507.95 L826.26 507.99 L826.15 508.03 L826.03 508.07 L825.92 508.11 L825.80 508.16 L825.69 508.20 L825.57 508.25 L825.46 508.29 L825.35 508.34 L825.24 508.39 L825.12 508.45 L825.01 508.50 L824.90 508.55 L824.79 508.61 L824.69 508.67 L824.58 508.73 L824.47 508.79 L824.36 508.85 L824.26 508.91 L824.15 508.97 L824.05 509.04 L823.95 509.10 L823.84 509.17 L798.36 526.20 L798.24 526.28 L798.13 526.35 L798.03 526.41 L797.93 526.48 L797.82 526.54 L797.71 526.60 L797.61 526.66 L797.50 526.72 L797.39 526.77 L797.28 526.83 L797.18 526.88 L797.07 526.94 L796.95 526.99 L796.84 527.04 L796.73 527.09 L796.62 527.13 L796.51 527.18 L796.39 527.22 L796.28 527.27 L796.16 527.31 L796.05 527.35 L795.93 527.39 L795.82 527.43 L795.70 527.46 L795.58 527.50 L795.47 527.53 L795.35 527.56 L795.23 527.60 L795.11 527.62 L794.99 527.65 L794.87 527.68 L794.75 527.70 L794.63 527.73 L794.51 527.75 L794.39 527.77 L794.27 527.79 L794.15 527.80 L794.03 527.82 L793.91 527.84 L793.79 527.85 L793.67 527.86 L793.55 527.87 L793.42 527.88 L793.30 527.89 L793.18 527.89 L793.06 527.90 L792.94 527.90 L792.81 527.90 L792.69 527.90 L792.57 527.90 L792.45 527.89 L792.33 527.89 L792.20 527.88 L792.08 527.87 L791.96 527.87 L791.84 527.85 L791.72 527.84 L791.60 527.83 L791.48 527.81 L791.35 527.80 L791.23 527.78 L791.11 527.76 L790.99 527.74 L790.87 527.72 L790.75 527.69 L790.63 527.67 L790.51 527.64 L790.40 527.61 L790.28 527.58 L790.16 527.55 L790.04 527.52 L789.93 527.48 L789.81 527.45 L789.69 527.41 L789.58 527.37 L789.46 527.33 L789.35 527.29 L789.23 527.25 L789.12 527.20 L789.00 527.16 L788.89 527.11 L788.78 527.06 L788.67 527.01 L788.56 526.96 L788.45 526.91 L788.34 526.86 L788.23 526.80 L788.12 526.75 L788.01 526.69 L787.91 526.63 L787.80 526.57 L787.69 526.51 L787.56 526.43 L786.56 525.82 L786.45 525.76 L784.72 524.73 L784.61 524.67 L782.87 523.66 L782.76 523.60 L781.00 522.62 L780.90 522.56 L779.13 521.60 L779.02 521.54 L777.24 520.61 L777.13 520.55 L775.34 519.63 L775.23 519.58 L773.43 518.68 L773.32 518.63 L771.50 517.76 L771.39 517.71 L769.57 516.86 L769.46 516.80 L767.62 515.98 L767.51 515.93 L765.66 515.12 L765.55 515.07 L763.70 514.29 L763.58 514.24 L761.72 513.48 L761.61 513.44 L759.73 512.70 L759.62 512.66 L757.74 511.95 L757.62 511.90 L755.73 511.21 L755.62 511.17 L753.72 510.50 L753.60 510.46 L751.69 509.82 L751.58 509.78 L749.66 509.16 L749.55 509.12 L747.62 508.53 L747.51 508.49 L745.58 507.92 L745.46 507.88 L743.52 507.34 L743.40 507.30 L741.46 506.78 L741.34 506.75 L739.39 506.24 L739.28 506.21 L738.01 505.91 L737.86 505.87 L737.74 505.84 L737.63 505.80 L737.51 505.77 L737.39 505.73 L737.27 505.70 L737.15 505.66 L737.04 505.62 L736.92 505.58 L736.81 505.53 L736.69 505.49 L736.58 505.44 L736.46 505.39 L736.35 505.35 L736.24 505.30 L736.12 505.24 L736.01 505.19 L735.90 505.14 L735.79 505.08 L735.68 505.02 L735.57 504.97 L735.47 504.91 L735.36 504.85 L735.25 504.78 L735.15 504.72 L735.04 504.65 L734.94 504.59 L734.84 504.52 L734.73 504.45 L734.63 504.38 L734.53 504.31 L734.43 504.24 L734.33 504.16 L734.23 504.09 L734.14 504.01 L734.04 503.94 L733.95 503.86 L733.85 503.78 L733.76 503.70 L733.67 503.62 L733.58 503.53 L733.49 503.45 L733.40 503.36 L733.31 503.28 L733.22 503.19 L733.14 503.10 L733.05 503.01 L732.97 502.92 L732.88 502.83 L732.80 502.74 L732.72 502.64 L732.64 502.55 L732.57 502.45 L732.49 502.36 L732.41 502.26 L732.34 502.16 L732.27 502.06 L732.19 501.96 L732.12 501.86 L732.05 501.76 L731.99 501.65 L731.92 501.55 L731.85 501.45 L731.79 501.34 L731.73 501.23 L731.67 501.13 L731.61 501.02 L731.55 500.91 L731.49 500.80 L731.43 500.69 L731.38 500.58 L731.32 500.47 L731.27 500.36 L731.22 500.25 L731.17 500.13 L731.12 500.02 L731.08 499.91 L731.03 499.79 L730.99 499.68 L730.95 499.56 L730.90 499.44 L730.87 499.33 L730.83 499.21 L730.79 499.09 L730.76 498.97 L730.72 498.86 L730.69 498.74 L730.66 498.62 L730.63 498.50 L730.60 498.38 L730.58 498.26 L730.54 498.11 L724.57 468.05 L724.54 467.93 L724.52 467.81 L724.49 467.69 L724.46 467.57 L724.43 467.45 L724.40 467.33 L724.36 467.21 L724.33 467.10 L724.29 466.98 L724.25 466.86 L724.21 466.75 L724.17 466.63 L724.13 466.52 L724.09 466.40 L724.04 466.29 L724.00 466.17 L723.95 466.06 L723.90 465.95 L723.85 465.84 L723.80 465.72 L723.75 465.61 L723.69 465.50 L723.63 465.39 L723.58 465.29 L723.52 465.18 L723.46 465.07 L723.40 464.96 L723.34 464.86 L723.27 464.75 L723.21 464.65 L723.14 464.55 L723.07 464.44 L723.00 464.34 L722.93 464.24 L722.86 464.14 L722.79 464.04 L722.72 463.94 L722.64 463.85 L722.57 463.75 L722.49 463.66 L722.41 463.56 L722.33 463.47 L722.25 463.38 L722.17 463.28 L722.08 463.19 L722.00 463.10 L721.92 463.02 L721.83 462.93 L721.74 462.84 L721.65 462.76 L721.56 462.67 L721.47 462.59 L721.38 462.51 L721.29 462.43 L721.20 462.35 L721.10 462.27 L721.01 462.19 L720.91 462.12 L720.81 462.04 L720.72 461.97 L720.62 461.90 L720.52 461.82 L720.42 461.75 L720.31 461.69 L720.21 461.62 L720.11 461.55 L720.00 461.49 L719.90 461.42 L719.79 461.36 L719.69 461.30 L719.58 461.24 L719.47 461.18 L719.36 461.12 L719.25 461.07 L719.14 461.01 L719.03 460.96 L718.92 460.91 L718.81 460.86 L718.70 460.81 L718.59 460.76 L718.47 460.71 L718.36 460.67 L718.24 460.63 L718.13 460.58 L718.01 460.54 L717.90 460.50 L717.78 460.47 L717.66 460.43 L717.54 460.40 L717.43 460.36 L717.31 460.33 L717.19 460.30 L717.07 460.27 L716.95 460.24 L716.83 460.22 L716.71 460.19 L716.59 460.17 L716.47 460.15 L716.35 460.13 L716.23 460.11 L716.10 460.09 L715.98 460.08 L715.86 460.06 L715.74 460.05 L715.62 460.04 L715.49 460.03 L715.37 460.02 L715.25 460.01 L715.13 460.01 L715.00 460.00 L714.88 460.00 L714.76 460.00 L679.24 460.00 L679.12 460.00 L679.00 460.00 L678.87 460.01 L678.75 460.01 L678.63 460.02 L678.51 460.03 L678.38 460.04 L678.26 460.05 L678.14 460.06 L678.02 460.08 L677.90 460.09 L677.77 460.11 L677.65 460.13 L677.53 460.15 L677.41 460.17 L677.29 460.19 L677.17 460.22 L677.05 460.24 L676.93 460.27 L676.81 460.30 L676.69 460.33 L676.57 460.36 L676.46 460.40 L676.34 460.43 L676.22 460.47 L676.10 460.50 L675.99 460.54 L675.87 460.58 L675.76 460.63 L675.64 460.67 L675.53 460.71 L675.41 460.76 L675.30 460.81 L675.19 460.86 L675.08 460.91 L674.97 460.96 L674.86 461.01 L674.75 461.07 L674.64 461.12 L674.53 461.18 L674.42 461.24 L674.31 461.30 L674.21 461.36 L674.10 461.42 L674.00 461.49 L673.89 461.55 L673.79 461.62 L673.69 461.69 L673.58 461.75 L673.48 461.82 L673.38 461.90 L673.28 461.97 L673.19 462.04 L673.09 462.12 L672.99 462.19 L672.90 462.27 L672.80 462.35 L672.71 462.43 L672.62 462.51 L672.53 462.59 L672.44 462.67 L672.35 462.76 L672.26 462.84 L672.17 462.93 L672.08 463.02 L672.00 463.10 L671.92 463.19 L671.83 463.28 L671.75 463.38 L671.67 463.47 L671.59 463.56 L671.51 463.66 L671.43 463.75 L671.36 463.85 L671.28 463.94 L671.21 464.04 L671.14 464.14 L671.07 464.24 L671.00 464.34 L670.93 464.44 L670.86 464.55 L670.79 464.65 L670.73 464.75 L670.66 464.86 L670.60 464.96 L670.54 465.07 L670.48 465.18 L670.42 465.29 L670.37 465.39 L670.31 465.50 L670.25 465.61 L670.20 465.72 L670.15 465.84 L670.10 465.95 L670.05 466.06 L670.00 466.17 L669.96 466.29 L669.91 466.40 L669.87 466.52 L669.83 466.63 L669.79 466.75 L669.75 466.86 L669.71 466.98 L669.67 467.10 L669.64 467.21 L669.60 467.33 L669.57 467.45 L669.54 467.57 L669.51 467.69 L669.48 467.81 L669.46 467.93 L669.43 468.05 L663.46 498.11 L663.42 498.26 L663.40 498.37 L663.37 498.49 L663.34 498.61 L663.31 498.73 L663.28 498.85 L663.25 498.97 L663.21 499.08 L663.18 499.20 L663.14 499.32 L663.10 499.43 L663.06 499.55 L663.02 499.66 L662.97 499.77 L662.93 499.89 L662.88 500.00 L662.84 500.11 L662.79 500.23 L662.74 500.34 L662.69 500.45 L662.63 500.56 L662.58 500.67 L662.52 500.78 L662.47 500.88 L662.41 500.99 L662.35 501.10 L662.29 501.20 L662.23 501.31 L662.16 501.41 L662.10 501.52 L662.03 501.62 L661.97 501.72 L661.90 501.82 L661.83 501.92 L661.76 502.02 L661.69 502.12 L661.61 502.22 L661.54 502.32 L661.46 502.41 L661.39 502.51 L661.31 502.60 L661.23 502.70 L661.15 502.79 L661.07 502.88 L660.99 502.97 L660.90 503.06 L660.82 503.15 L660.73 503.23 L660.65 503.32 L660.56 503.40 L660.47 503.49 L660.38 503.57 L660.29 503.65 L660.20 503.73 L660.11 503.81 L660.01 503.89 L659.92 503.97 L659.82 504.04 L659.73 504.12 L659.63 504.19 L659.53 504.27 L659.43 504.34 L659.33 504.41 L659.23 504.48 L659.13 504.54 L659.03 504.61 L658.92 504.67 L658.82 504.74 L658.72 504.80 L658.61 504.86 L658.50 504.92 L658.40 504.98 L658.29 505.04 L658.18 505.09 L658.07 505.15 L657.96 505.20 L657.85 505.25 L657.74 505.31 L657.63 505.36 L657.52 505.40 L657.40 505.45 L657.29 505.49 L657.18 505.54 L657.06 505.58 L656.95 505.62 L656.83 505.66 L656.72 505.70 L656.60 505.74 L656.48 505.77 L656.37 505.81 L656.25 505.84 L656.13 505.87 L655.98 505.91 L654.84 506.19 L654.72 506.22 L652.77 506.72 L652.65 506.75 L650.71 507.27 L650.59 507.30 L648.65 507.85 L648.53 507.89 L646.60 508.46 L646.49 508.49 L644.57 509.09 L644.45 509.13 L642.53 509.75 L642.42 509.78 L640.51 510.43 L640.39 510.47 L638.49 511.13 L638.38 511.17 L636.49 511.86 L636.37 511.90 L634.49 512.62 L634.38 512.66 L632.50 513.40 L632.39 513.44 L630.52 514.20 L630.41 514.25 L628.56 515.03 L628.44 515.08 L626.60 515.88 L626.49 515.93 L624.65 516.76 L624.54 516.81 L622.71 517.66 L622.60 517.71 L620.79 518.58 L620.68 518.63 L618.87 519.53 L618.76 519.58 L616.97 520.50 L616.86 520.55 L615.08 521.49 L614.97 521.55 L613.20 522.51 L613.10 522.57 L611.34 523.55 L611.23 523.61 L609.49 524.61 L609.38 524.67 L607.65 525.70 L607.54 525.76 L606.43 526.43 L606.30 526.51 L606.19 526.57 L606.09 526.63 L605.98 526.69 L605.87 526.75 L605.76 526.81 L605.65 526.86 L605.54 526.92 L605.43 526.97 L605.32 527.02 L605.20 527.07 L605.09 527.12 L604.98 527.17 L604.86 527.21 L604.75 527.26 L604.63 527.30 L604.51 527.34 L604.40 527.38 L604.28 527.42 L604.16 527.46 L604.04 527.49 L603.93 527.53 L603.81 527.56 L603.69 527.59 L603.57 527.62 L603.45 527.65 L603.33 527.67 L603.21 527.70 L603.09 527.72 L602.96 527.75 L602.84 527.77 L602.72 527.79 L602.60 527.80 L602.48 527.82 L602.35 527.83 L602.23 527.85 L602.11 527.86 L601.99 527.87 L601.86 527.88 L601.74 527.89 L601.62 527.89 L601.49 527.90 L601.37 527.90 L601.25 527.90 L601.12 527.90 L601.00 527.90 L600.88 527.89 L600.75 527.89 L600.63 527.88 L600.51 527.87 L600.38 527.86 L600.26 527.85 L600.14 527.84 L600.02 527.83 L599.89 527.81 L599.77 527.79 L599.65 527.78 L599.53 527.76 L599.41 527.73 L599.29 527.71 L599.16 527.69 L599.04 527.66 L598.92 527.63 L598.80 527.60 L598.68 527.57 L598.57 527.54 L598.45 527.51 L598.33 527.47 L598.21 527.44 L598.09 527.40 L597.98 527.36 L597.86 527.32 L597.74 527.28 L597.63 527.23 L597.51 527.19 L597.40 527.14 L597.29 527.09 L597.17 527.04 L597.06 526.99 L596.95 526.94 L596.84 526.89 L596.73 526.83 L596.62 526.78 L596.51 526.72 L596.40 526.66 L596.29 526.60 L596.18 526.54 L596.08 526.48 L595.97 526.41 L595.87 526.35 L595.76 526.28 L595.64 526.20 L570.16 509.17 L570.05 509.10 L569.95 509.04 L569.85 508.97 L569.74 508.91 L569.64 508.85 L569.53 508.79 L569.42 508.73 L569.31 508.67 L569.21 508.61 L569.10 508.55 L568.99 508.50 L568.88 508.45 L568.76 508.39 L568.65 508.34 L568.54 508.29 L568.43 508.25 L568.31 508.20 L568.20 508.16 L568.08 508.11 L567.97 508.07 L567.85 508.03 L567.74 507.99 L567.62 507.95 L567.50 507.92 L567.39 507.88 L567.27 507.85 L567.15 507.82 L567.03 507.79 L566.91 507.76 L566.79 507.73 L566.67 507.70 L566.55 507.68 L566.43 507.65 L566.31 507.63 L566.19 507.61 L566.07 507.59 L565.95 507.58 L565.82 507.56 L565.70 507.55 L565.58 507.53 L565.46 507.52 L565.34 507.51 L565.21 507.50 L565.09 507.50 L564.97 507.49 L564.85 507.49 L564.72 507.49 L564.60 507.49 L564.48 507.49 L564.35 507.49 L564.23 507.49 L564.11 507.50 L563.99 507.50 L563.86 507.51 L563.74 507.52 L563.62 507.53 L563.50 507.55 L563.38 507.56 L563.25 507.58 L563.13 507.59 L563.01 507.61 L562.89 507.63 L562.77 507.65 L562.65 507.68 L562.53 507.70 L562.41 507.73 L562.29 507.76 L562.17 507.79 L562.05 507.82 L561.93 507.85 L561.82 507.88 L561.70 507.92 L561.58 507.95 L561.46 507.99 L561.35 508.03 L561.23 508.07 L561.12 508.11 L561.00 508.16 L560.89 508.20 L560.77 508.25 L560.66 508.29 L560.55 508.34 L560.44 508.39 L560.32 508.45 L560.21 508.50 L560.10 508.55 L559.99 508.61 L559.89 508.67 L559.78 508.73 L559.67 508.79 L559.56 508.85 L559.46 508.91 L559.35 508.97 L559.25 509.04 L559.15 509.10 L559.04 509.17 L558.94 509.24 L558.84 509.31 L558.74 509.38 L558.64 509.45 L558.55 509.53 L558.45 509.60 L558.35 509.68 L558.26 509.76 L558.16 509.83 L558.07 509.91 L557.98 509.99 L557.88 510.08 L557.79 510.16 L557.70 510.24 L557.62 510.33 L557.53 510.41 L532.41 535.53 L532.33 535.62 L532.24 535.70 L532.16 535.79 L532.08 535.88 L531.99 535.98 L531.91 536.07 L531.83 536.16 L531.76 536.26 L531.68 536.35 L531.60 536.45 L531.53 536.55 L531.45 536.64 L531.38 536.74 L531.31 536.84 L531.24 536.94 L531.17 537.04 L531.10 537.15 L531.04 537.25 L530.97 537.35 L530.91 537.46 L530.85 537.56 L530.79 537.67 L530.73 537.78 L530.67 537.89 L530.61 537.99 L530.55 538.10 L530.50 538.21 L530.45 538.32 L530.39 538.44 L530.34 538.55 L530.29 538.66 L530.25 538.77 L530.20 538.89 L530.16 539.00 L530.11 539.12 L530.07 539.23 L530.03 539.35 L529.99 539.46 L529.95 539.58 L529.92 539.70 L529.88 539.82 L529.85 539.93 L529.82 540.05 L529.79 540.17 L529.76 540.29 L529.73 540.41 L529.70 540.53 L529.68 540.65 L529.65 540.77 L529.63 540.89 L529.61 541.01 L529.59 541.13 L529.58 541.25 L529.56 541.38 L529.55 541.50 L529.53 541.62 L529.52 541.74 L529.51 541.86 L529.50 541.99 L529.50 542.11 L529.49 542.23 L529.49 542.35 L529.49 542.48 L529.49 542.60 L529.49 542.72 L529.49 542.85 L529.49 542.97 L529.50 543.09 L529.50 543.21 L529.51 543.34 L529.52 543.46 L529.53 543.58 L529.55 543.70 L529.56 543.82 L529.58 543.95 L529.59 544.07 L529.61 544.19 L529.63 544.31 L529.65 544.43 L529.68 544.55 L529.70 544.67 L529.73 544.79 L529.76 544.91 L529.79 545.03 L529.82 545.15 L529.85 545.27 L529.88 545.39 L529.92 545.50 L529.95 545.62 L529.99 545.74 L530.03 545.85 L530.07 545.97 L530.11 546.08 L530.16 546.20 L530.20 546.31 L530.25 546.43 L530.29 546.54 L530.34 546.65 L530.39 546.76 L530.45 546.88 L530.50 546.99 L530.55 547.10 L530.61 547.21 L530.67 547.31 L530.73 547.42 L530.79 547.53 L530.85 547.64 L530.91 547.74 L530.97 547.85 L531.04 547.95 L531.10 548.05 L531.17 548.16 L548.20 573.64 L548.28 573.76 L548.35 573.87 L548.41 573.97 L548.48 574.07 L548.54 574.18 L548.60 574.29 L548.66 574.39 L548.72 574.50 L548.77 574.61 L548.83 574.72 L548.88 574.82 L548.94 574.93 L548.99 575.05 L549.04 575.16 L549.09 575.27 L549.13 575.38 L549.18 575.49 L549.22 575.61 L549.27 575.72 L549.31 575.84 L549.35 575.95 L549.39 576.07 L549.43 576.18 L549.46 576.30 L549.50 576.42 L549.53 576.53 L549.56 576.65 L549.60 576.77 L549.62 576.89 L549.65 577.01 L549.68 577.13 L549.70 577.25 L549.73 577.37 L549.75 577.49 L549.77 577.61 L549.79 577.73 L549.80 577.85 L549.82 577.97 L549.84 578.09 L549.85 578.21 L549.86 578.33 L549.87 578.45 L549.88 578.58 L549.89 578.70 L549.89 578.82 L549.90 578.94 L549.90 579.06 L549.90 579.19 L549.90 579.31 L549.90 579.43 L549.89 579.55 L549.89 579.67 L549.88 579.80 L549.87 579.92 L549.87 580.04 L549.85 580.16 L549.84 580.28 L549.83 580.40 L549.81 580.52 L549.80 580.65 L549.78 580.77 L549.76 580.89 L549.74 581.01 L549.72 581.13 L549.69 581.25 L549.67 581.37 L549.64 581.49 L549.61 581.60 L549.58 581.72 L549.55 581.84 L549.52 581.96 L549.48 582.07 L549.45 582.19 L549.41 582.31 L549.37 582.42 L549.33 582.54 L549.29 582.65 L549.25 582.77 L549.20 582.88 L549.16 583.00 L549.11 583.11 L549.06 583.22 L549.01 583.33 L548.96 583.44 L548.91 583.55 L548.86 583.66 L548.80 583.77 L548.75 583.88 L548.69 583.99 L548.63 584.09 L548.57 584.20 L548.51 584.31 L548.43 584.44 L547.82 585.44 L547.76 585.55 L546.73 587.28 L546.67 587.39 L545.66 589.13 L545.60 589.24 L544.62 591.00 L544.56 591.10 L543.60 592.87 L543.54 592.98 L542.61 594.76 L542.55 594.87 L541.63 596.66 L541.58 596.77 L540.68 598.57 L540.63 598.68 L539.76 600.50 L539.71 600.61 L538.86 602.43 L538.80 602.54 L537.98 604.38 L537.93 604.49 L537.12 606.34 L537.07 606.45 L536.29 608.30 L536.24 608.42 L535.48 610.28 L535.44 610.39 L534.70 612.27 L534.66 612.38 L533.95 614.26 L533.90 614.38 L533.21 616.27 L533.17 616.38 L532.50 618.28 L532.46 618.40 L531.82 620.31 L531.78 620.42 L531.16 622.34 L531.12 622.45 L530.53 624.38 L530.49 624.49 L529.92 626.42 L529.88 626.54 L529.34 628.48 L529.30 628.60 L528.78 630.54 L528.75 630.66 L528.24 632.61 L528.21 632.72 L527.91 633.99 L527.87 634.14 L527.84 634.26 L527.80 634.37 L527.77 634.49 L527.73 634.61 L527.70 634.73 L527.66 634.85 L527.62 634.96 L527.58 635.08 L527.53 635.19 L527.49 635.31 L527.44 635.42 L527.39 635.54 L527.35 635.65 L527.30 635.76 L527.24 635.88 L527.19 635.99 L527.14 636.10 L527.08 636.21 L527.02 636.32 L526.97 636.43 L526.91 636.53 L526.85 636.64 L526.78 636.75 L526.72 636.85 L526.65 636.96 L526.59 637.06 L526.52 637.16 L526.45 637.27 L526.38 637.37 L526.31 637.47 L526.24 637.57 L526.16 637.67 L526.09 637.77 L526.01 637.86 L525.94 637.96 L525.86 638.05 L525.78 638.15 L525.70 638.24 L525.62 638.33 L525.53 638.42 L525.45 638.51 L525.36 638.60 L525.28 638.69 L525.19 638.78 L525.10 638.86 L525.01 638.95 L524.92 639.03 L524.83 639.12 L524.74 639.20 L524.64 639.28 L524.55 639.36 L524.45 639.43 L524.36 639.51 L524.26 639.59 L524.16 639.66 L524.06 639.73 L523.96 639.81 L523.86 639.88 L523.76 639.95 L523.65 640.01 L523.55 640.08 L523.45 640.15 L523.34 640.21 L523.23 640.27 L523.13 640.33 L523.02 640.39 L522.91 640.45 L522.80 640.51 L522.69 640.57 L522.58 640.62 L522.47 640.68 L522.36 640.73 L522.25 640.78 L522.13 640.83 L522.02 640.88 L521.91 640.92 L521.79 640.97 L521.68 641.01 L521.56 641.05 L521.44 641.10 L521.33 641.13 L521.21 641.17 L521.09 641.21 L520.97 641.24 L520.86 641.28 L520.74 641.31 L520.62 641.34 L520.50 641.37 L520.38 641.40 L520.26 641.42 L520.11 641.46 L490.05 647.43 L489.93 647.46ZM763.00 675.81 L762.98 676.62 L762.96 677.43 L762.92 678.24 L762.88 679.05 L762.82 679.86 L762.76 680.66 L762.68 681.47 L762.60 682.27 L762.50 683.08 L762.40 683.88 L762.29 684.68 L762.16 685.48 L762.03 686.28 L761.88 687.08 L761.73 687.88 L761.57 688.67 L761.40 689.46 L761.21 690.25 L761.02 691.04 L760.82 691.82 L760.61 692.60 L760.39 693.38 L760.16 694.16 L759.92 694.93 L759.67 695.70 L759.41 696.47 L759.14 697.23 L758.86 698.00 L758.58 698.75 L758.28 699.51 L757.98 700.26 L757.66 701.00 L757.34 701.75 L757.01 702.48 L756.66 703.22 L756.31 703.95 L755.95 704.67 L755.58 705.40 L755.21 706.11 L754.82 706.82 L754.43 707.53 L754.02 708.23 L753.61 708.93 L753.19 709.62 L752.76 710.31 L752.32 710.99 L751.88 711.67 L751.42 712.34 L750.96 713.00 L750.49 713.66 L750.01 714.32 L749.53 714.96 L749.03 715.61 L748.53 716.24 L748.02 716.87 L747.50 717.49 L746.98 718.11 L746.44 718.72 L745.90 719.32 L745.36 719.92 L744.80 720.51 L744.24 721.09 L743.67 721.67 L743.09 722.24 L742.51 722.80 L741.92 723.36 L741.32 723.90 L740.72 724.44 L740.11 724.98 L739.49 725.50 L738.87 726.02 L738.24 726.53 L737.61 727.03 L736.96 727.53 L736.32 728.01 L735.66 728.49 L735.00 728.96 L734.34 729.42 L733.67 729.88 L732.99 730.32 L732.31 730.76 L731.62 731.19 L730.93 731.61 L730.23 732.02 L729.53 732.43 L728.82 732.82 L728.11 733.21 L727.40 733.58 L726.67 733.95 L725.95 734.31 L725.22 734.66 L724.48 735.01 L723.75 735.34 L723.00 735.66 L722.26 735.98 L721.51 736.28 L720.75 736.58 L720.00 736.86 L719.23 737.14 L718.47 737.41 L717.70 737.67 L716.93 737.92 L716.16 738.16 L715.38 738.39 L714.60 738.61 L713.82 738.82 L713.04 739.02 L712.25 739.21 L711.46 739.40 L710.67 739.57 L709.88 739.73 L709.08 739.88 L708.28 740.03 L707.48 740.16 L706.68 740.29 L705.88 740.40 L705.08 740.50 L704.27 740.60 L703.47 740.68 L702.66 740.76 L701.86 740.82 L701.05 740.88 L700.24 740.92 L699.43 740.96 L698.62 740.98 L697.81 741.00 L697.00 741.00 L696.19 741.00 L695.38 740.98 L694.57 740.96 L693.76 740.92 L692.95 740.88 L692.14 740.82 L691.34 740.76 L690.53 740.68 L689.73 740.60 L688.92 740.50 L688.12 740.40 L687.32 740.29 L686.52 740.16 L685.72 740.03 L684.92 739.88 L684.12 739.73 L683.33 739.57 L682.54 739.40 L681.75 739.21 L680.96 739.02 L680.18 738.82 L679.40 738.61 L678.62 738.39 L677.84 738.16 L677.07 737.92 L676.30 737.67 L675.53 737.41 L674.77 737.14 L674.00 736.86 L673.25 736.58 L672.49 736.28 L671.74 735.98 L671.00 735.66 L670.25 735.34 L669.52 735.01 L668.78 734.66 L668.05 734.31 L667.33 733.95 L666.60 733.58 L665.89 733.21 L665.18 732.82 L664.47 732.43 L663.77 732.02 L663.07 731.61 L662.38 731.19 L661.69 730.76 L661.01 730.32 L660.33 729.88 L659.66 729.42 L659.00 728.96 L658.34 728.49 L657.68 728.01 L657.04 727.53 L656.39 727.03 L655.76 726.53 L655.13 726.02 L654.51 725.50 L653.89 724.98 L653.28 724.44 L652.68 723.90 L652.08 723.36 L651.49 722.80 L650.91 722.24 L650.33 721.67 L649.76 721.09 L649.20 720.51 L648.64 719.92 L648.10 719.32 L647.56 718.72 L647.02 718.11 L646.50 717.49 L645.98 716.87 L645.47 716.24 L644.97 715.61 L644.47 714.96 L643.99 714.32 L643.51 713.66 L643.04 713.00 L642.58 712.34 L642.12 711.67 L641.68 710.99 L641.24 710.31 L640.81 709.62 L640.39 708.93 L639.98 708.23 L639.57 707.53 L639.18 706.82 L638.79 706.11 L638.42 705.40 L638.05 704.67 L637.69 703.95 L637.34 703.22 L636.99 702.48 L636.66 701.75 L636.34 701.00 L636.02 700.26 L635.72 699.51 L635.42 698.75 L635.14 698.00 L634.86 697.23 L634.59 696.47 L634.33 695.70 L634.08 694.93 L633.84 694.16 L633.61 693.38 L633.39 692.60 L633.18 691.82 L632.98 691.04 L632.79 690.25 L632.60 689.46 L632.43 688.67 L632.27 687.88 L632.12 687.08 L631.97 686.28 L631.84 685.48 L631.71 684.68 L631.60 683.88 L631.50 683.08 L631.40 682.27 L631.32 681.47 L631.24 680.66 L631.18 679.86 L631.12 679.05 L631.08 678.24 L631.04 677.43 L631.02 676.62 L631.00 675.81 L631.00 675.00 L631.00 674.19 L631.02 673.38 L631.04 672.57 L631.08 671.76 L631.12 670.95 L631.18 670.14 L631.24 669.34 L631.32 668.53 L631.40 667.73 L631.50 666.92 L631.60 666.12 L631.71 665.32 L631.84 664.52 L631.97 663.72 L632.12 662.92 L632.27 662.12 L632.43 661.33 L632.60 660.54 L632.79 659.75 L632.98 658.96 L633.18 658.18 L633.39 657.40 L633.61 656.62 L633.84 655.84 L634.08 655.07 L634.33 654.30 L634.59 653.53 L634.86 652.77 L635.14 652.00 L635.42 651.25 L635.72 650.49 L636.02 649.74 L636.34 649.00 L636.66 648.25 L636.99 647.52 L637.34 646.78 L637.69 646.05 L638.05 645.33 L638.42 644.60 L638.79 643.89 L639.18 643.18 L639.57 642.47 L639.98 641.77 L640.39 641.07 L640.81 640.38 L641.24 639.69 L641.68 639.01 L642.12 638.33 L642.58 637.66 L643.04 637.00 L643.51 636.34 L643.99 635.68 L644.47 635.04 L644.97 634.39 L645.47 633.76 L645.98 633.13 L646.50 632.51 L647.02 631.89 L647.56 631.28 L648.10 630.68 L648.64 630.08 L649.20 629.49 L649.76 628.91 L650.33 628.33 L650.91 627.76 L651.49 627.20 L652.08 626.64 L652.68 626.10 L653.28 625.56 L653.89 625.02 L654.51 624.50 L655.13 623.98 L655.76 623.47 L656.39 622.97 L657.04 622.47 L657.68 621.99 L658.34 621.51 L659.00 621.04 L659.66 620.58 L660.33 620.12 L661.01 619.68 L661.69 619.24 L662.38 618.81 L663.07 618.39 L663.77 617.98 L664.47 617.57 L665.18 617.18 L665.89 616.79 L666.60 616.42 L667.33 616.05 L668.05 615.69 L668.78 615.34 L669.52 614.99 L670.25 614.66 L671.00 614.34 L671.74 614.02 L672.49 613.72 L673.25 613.42 L674.00 613.14 L674.77 612.86 L675.53 612.59 L676.30 612.33 L677.07 612.08 L677.84 611.84 L678.62 611.61 L679.40 611.39 L680.18 611.18 L680.96 610.98 L681.75 610.79 L682.54 610.60 L683.33 610.43 L684.12 610.27 L684.92 610.12 L685.72 609.97 L686.52 609.84 L687.32 609.71 L688.12 609.60 L688.92 609.50 L689.73 609.40 L690.53 609.32 L691.34 609.24 L692.14 609.18 L692.95 609.12 L693.76 609.08 L694.57 609.04 L695.38 609.02 L696.19 609.00 L697.00 609.00 L697.81 609.00 L698.62 609.02 L699.43 609.04 L700.24 609.08 L701.05 609.12 L701.86 609.18 L702.66 609.24 L703.47 609.32 L704.27 609.40 L705.08 609.50 L705.88 609.60 L706.68 609.71 L707.48 609.84 L708.28 609.97 L709.08 610.12 L709.88 610.27 L710.67 610.43 L711.46 610.60 L712.25 610.79 L713.04 610.98 L713.82 611.18 L714.60 611.39 L715.38 611.61 L716.16 611.84 L716.93 612.08 L717.70 612.33 L718.47 612.59 L719.23 612.86 L720.00 613.14 L720.75 613.42 L721.51 613.72 L722.26 614.02 L723.00 614.34 L723.75 614.66 L724.48 614.99 L725.22 615.34 L725.95 615.69 L726.67 616.05 L727.40 616.42 L728.11 616.79 L728.82 617.18 L729.53 617.57 L730.23 617.98 L730.93 618.39 L731.62 618.81 L732.31 619.24 L732.99 619.68 L733.67 620.12 L734.34 620.58 L735.00 621.04 L735.66 621.51 L736.32 621.99 L736.96 622.47 L737.61 622.97 L738.24 623.47 L738.87 623.98 L739.49 624.50 L740.11 625.02 L740.72 625.56 L741.32 626.10 L741.92 626.64 L742.51 627.20 L743.09 627.76 L743.67 628.33 L744.24 628.91 L744.80 629.49 L745.36 630.08 L745.90 630.68 L746.44 631.28 L746.98 631.89 L747.50 632.51 L748.02 633.13 L748.53 633.76 L749.03 634.39 L749.53 635.04 L750.01 635.68 L750.49 636.34 L750.96 637.00 L751.42 637.66 L751.88 638.33 L752.32 639.01 L752.76 639.69 L753.19 640.38 L753.61 641.07 L754.02 641.77 L754.43 642.47 L754.82 643.18 L755.21 643.89 L755.58 644.60 L755.95 645.33 L756.31 646.05 L756.66 646.78 L757.01 647.52 L757.34 648.25 L757.66 649.00 L757.98 649.74 L758.28 650.49 L758.58 651.25 L758.86 652.00 L759.14 652.77 L759.41 653.53 L759.67 654.30 L759.92 655.07 L760.16 655.84 L760.39 656.62 L760.61 657.40 L760.82 658.18 L761.02 658.96 L761.21 659.75 L761.40 660.54 L761.57 661.33 L761.73 662.12 L761.88 662.92 L762.03 663.72 L762.16 664.52 L762.29 665.32 L762.40 666.12 L762.50 666.92 L762.60 667.73 L762.68 668.53 L762.76 669.34 L762.82 670.14 L762.88 670.95 L762.92 671.76 L762.96 672.57 L762.98 673.38 L763.00 674.19 L763.00 675.00 L763.00 675.81Z"/></svg>
