<svg xmlns="http://www.w3.org/2000/svg" width="1024" height="1024" viewBox="0 0 1024 1024"><path fill="#FFFFFF" fill-rule="evenodd" d="M204.42 770.43 L358.19 770.43 L358.19 898.58 L486.34 770.43 L588.84 770.43 L819.51 539.79 L819.51 181.00 L332.57 181.00 L204.42 309.15 L204.42 770.43ZM563.21 616.66 L473.51 706.36 L473.51 616.66 L358.19 616.66 L358.19 232.25 L768.23 232.25 L768.23 514.16 L665.74 616.66 L563.21 616.66ZM499.11 475.71 L550.42 475.71 L550.42 321.94 L499.14 321.94 L499.11 475.71ZM640.11 475.71 L691.36 475.71 L691.36 321.94 L640.11 321.94 L640.11 475.71Z"/></svg>
